<svg xmlns="http://www.w3.org/2000/svg" width="66" height="63" shape-rendering="geometricPrecision" text-rendering="geometricPrecision" image-rendering="optimizeQuality" fill-rule="evenodd" clip-rule="evenodd"><path d="M60.26 63.5H5.74C2.57 63.5 0 60.94 0 57.77l5.74-34.36c.97-4.93 3.83-5.73 7-5.73h3.8C18.71 7.73 25.26.5 33 .5s14.29 7.23 16.46 17.18h3.8c3.17 0 6.03.8 7 5.73L66 57.77c0 3.17-2.57 5.73-5.74 5.73zM33 3.36c-6.24 0-11.54 5.98-13.51 14.32h27.02C44.54 9.34 39.25 3.36 33 3.36z" fill="#fefefe"/></svg>