<svg xmlns="http://www.w3.org/2000/svg" width="58" height="58" shape-rendering="geometricPrecision" text-rendering="geometricPrecision" image-rendering="optimizeQuality" fill-rule="evenodd" clip-rule="evenodd"><defs><style>.fil0{fill:#fefefe;fill-rule:nonzero}</style></defs><g id="Слой_x0020_1"><g id="instagram"><path class="fil0" d="M43.5 2.32c6.72.01 12.17 5.46 12.18 12.18v29c-.01 6.72-5.46 12.17-12.18 12.18h-29C7.78 55.67 2.33 50.22 2.32 43.5v-29C2.33 7.78 7.78 2.33 14.5 2.32h29zm0-2.32h-29C6.49 0 0 6.49 0 14.5v29C0 51.51 6.49 58 14.5 58h29C51.51 58 58 51.51 58 43.5v-29C58 6.49 51.51 0 43.5 0z"/><path class="fil0" d="M29 17.4c6.41 0 11.6 5.19 11.6 11.6 0 6.41-5.19 11.6-11.6 11.6-6.41 0-11.6-5.19-11.6-11.6 0-6.41 5.19-11.6 11.6-11.6zm0-2.32c-7.69 0-13.92 6.23-13.92 13.92 0 7.69 6.23 13.92 13.92 13.92 7.69 0 13.92-6.23 13.92-13.92 0-7.69-6.23-13.92-13.92-13.92zm16.24-5.8c1.28 0 2.32 1.04 2.32 2.32 0 1.28-1.04 2.32-2.32 2.32-1.28 0-2.32-1.04-2.32-2.32 0-1.28 1.04-2.32 2.32-2.32zm0-2.32c-2.56 0-4.64 2.08-4.64 4.64 0 2.56 2.08 4.64 4.64 4.64 2.56 0 4.64-2.08 4.64-4.64 0-2.56-2.08-4.64-4.64-4.64z"/></g></g></svg>