<svg xmlns="http://www.w3.org/2000/svg" width="571" height="110" shape-rendering="geometricPrecision" text-rendering="geometricPrecision" image-rendering="optimizeQuality" fill-rule="evenodd" clip-rule="evenodd"><defs><style>.str0,.str1{stroke:#000;stroke-width:1.04;stroke-miterlimit:22.9256}.str1{stroke:#2b2a29}.fil0,.fil1{fill-rule:nonzero}.fil1{fill:none}.fil0{fill:#2b2a29}</style></defs><g id="gschwend"><g id="_2303012372704"><path class="fil0 str0" d="M85.5 85.11l-.54.32-.54.22-.52.1-.76-.1-.74.32-1.05.12-.34-.23-.09-.11-1.08-.1-.74-.54-.96-.32-.23-.23-.31-.11-.97-1.07-.62-.12-.43-.98-.43-.52-.54-.55-.42-.77-.63-1.19-.23-.43-.31-.54-.31-1.19v-.98l-.23-.52-.31-.43v-.98l-.23-1.21.23-.87-.23-.86-.09-.64.21-.98-.12-.75v-.98l.34-.55-.11-.75.11-.86V64.2l.2-.64.11-.54.32-1.07.11-1.42v-.31l.43-.87.11-.66.2-.98.22-.75.09-.55.23-1.18.43-.55v-1.52l.2-1.08.33-.75.32-.54.11-.98.2-.44-.2-.43.2-.86.43-.76.22-.22-.11-1.39.2-.66.34-.12-.11-.75.42-.98-.22-.32.43-.43-.21-1.09.54-.21v-.98l.43-.63.11-.23.32-1.07.53-1.09.09-1.42.12-.63.42-1.1.54-1.41.32-1.39.53-1.53.21-.97.33-.55.32-.75.54-.98.09-.64.33-.98v-.75l.09-.43.34-1.1v-1.18l.09-.66v-.64l-.2-1.09v-.64l-.12-.77v-.76l-.2-.75-.65-1.29-.96-.87-1.17-.87-.97-.75-1.05-.34-.85-.2h-1.08l-1.17.11-1.08.32-.94.32-.76.23-1.17.2-.31.23-.85.2-.54.12-.74.63-.97.67-.74.31-.76.44-.63.43-.54.43-.85.55-.54.86-.74.32-.23.23-.42.55-.74.63-.54.76-.63.34-.54.64-.42.54-.75.64-.53.77-.43.44-.31.54-.34.44-.32.31-.42.76-.32.32-.31.43-.54.77-.54.87-.54.64-.74.97-.54 1.1-.31.52-.74.87-.43-.09.21-1.64.11-.87.11-.98.2-.64.11-.66.32-.95v-.44l.22-.86.12-.98.08-.11.12-.64v-1.21l.11-.75v-1.18l-.11-1.21.11-.44-.23-.63v-.87l-.2-.66v-.2l-.42-.98-.43-.75-.31-.98-.43-.55-.65-.2-.65-1.21-.52-.21-.22-.32-.86-.22-.62-.44h-.77l-.51.12-.54-.23-.65.11-.43.32-.63.23-.65.11-.85.21-1.17.66-.65.64-.63.43-.42.43-.65.55-.52.2-1.08 1.1-.42.32-.32.54-.65.55-.43.75-.96 1.18-1.06.78-.31.43-.76.87-.52.52-.11.23-1.08 1.3-.74 1.09-.43.64-.31.75-.11.11-1.08.87-.74 1.52-.54.76-.63.86-.54.55-.11.64-.42.66-.43.43-.43.64-.31.77-.32.96-.53.77-.63.75-.23.64-.11.66-.42.32-.32.87-.11.43-.43.86-.31.98-.32.32-.54-.09.21-.66-.21-.98v-.52l.12-.46v-.75l.2-.75.22-1.09v-1.07l.32-.75.54-.87.31-.98.11-.87v-.86l.12-.43.31-.44.2-.77.23-.64v-.98l.2-.43.22-.75.11-.87.32-.66.31-.09.11-.77.12-.87-.12-.55.21-.63.42-.12.11-.98.23-.43.09-.87-.09-1.07.09-.22.22-.87v-.43l.12-.43-.43-1.07.2-.44-.2-.43-.54-1.64.31-.52-.31-.78.2-.75-.42-.32-.95-.98v-.22l-.33-.44-.63-.2-.97-.66-.74-.32-.65-.12-1.16.66h-.86l-.31.32-.54.23-.65.43-.43.1-.74.97-.54.44-.53.32-.32.66v.31l-.85.44-.32.43-.11.87-1.05.43-.43.66-.34.64-.42.43-.32.98v.54l-.54.44-.74.43-.22.11-.2.76-.65.75v.66l-.32.43-.42.12-.21.43-.65 1.5-.11.55-.63.22-.65.53.11.77-.31.87-.11.32-.85.54-.54.64-.09.66-.34.43v.53l-.52.34v1.07l-.45.55-.51.66-.43.86-.33.75.22.44-.65 1.3.43.2.11.34v.53l.11.66 1.05.32.54.31h.65l1.17.23.32-.23.53-.2v-1.09l.12-.64-.54-.55v-.63l-.11-.23.22-.32-.11-.75.22-.87-.11-.43.11-.89.52-.21.54-.31-.32-.55.32-.98.31-.32.65-1.3v-.54l.32-.32.31-.87.34-.66.2-.32v-1.3l.65-.54v-.64l.09.09.65-.32.43-.75.54-.86.42-.76.74-.22-.2-.55.2-.64.43-.66.22-.2.21-.55.65-.43.62-1.1.75-.63.11-.44.54-.54.62-.32.34-.55.85-.32.32-.32.65-.98.2-.22.65-.21.74-.23.2-.2h.97l.96.09.32.55.43.66-.43.43.65.75-.31.66.2 1.39-.32.55-.22.43.22.98-.31.98-.11.43.42.53-.22.11-.2 1.21v.43l-.65.52.11.55.11.75v.23l-.43.86-.11.44v1.18l-.22.43-.32.55-.2.98v.87l-.11.43-.11.32-.32.86-.11.66v.87h-.11l-.09.75-.11.66-.32 1.07-.22.55.11.63-.23.44v.86h.12l-.32.66-.11.87-.2.64v1.09l-.76 1.53-.12.52v.43l.12.87-.43.77-.43.44.12.95-.12.66.12.75-.54.98-.21.55.32 1.07v.66l-.65.87-.32.31.65.98-.11.55-.65.96-.09.77.2.75-.31.55v.2l-.31.66-.43.76.43.66-.54.75-.12.32.32.77v1.39l-.43 1.09-.2.44.31.98-.74.63.21.66-.52.96-.34.98.12.34v.64l-.12.66-.31 1.07.11.32-.22.66-.52.55-.11.75.43.54.11.64-.43.66.2.44-.31.97.43.53.74.66.42.32.65.11h.43l.85.21.85-.21.63-.66.43-.96.22-.45-.33-.75.22-1.3.11-.98.21-.87.11-.75.54-.75-.12-.66.23-.64.09-.43v-.86l.34-.98v-1.1l.08-.63-.08-.12.08-.43.23-.43.11-.64.09-.78v-.52l.11-.43.23-.78-.11-.75.42-.54.32-.87-.12-.75-.09-.55-.11-.64.54-.77.31-.87-.11-.86v-.55l.32-1.07.22-.66.43-1.73.11-.52.43-.55.54-1.64.42-.96.09-1.2.65-.76.2-1.07 1.08-2.16.11-.66.32-.43.31-.87.23-.54.31-.32.31-.44.32-.66.22-.75.43-.75.31-.87.43-.66.31-.31.54-.76.54-.86.65-.78.43-.31.31-.76.32-.32.42-.77.54-.64.63-.75.34-.43.2-.43.74-.66.65-.64.2-.44.54-.77v-.2l.54-.78.2-.09.45-.34.32-.43.62-.64.54-.43.43-.76.65-.34.31-.54.43-.44.54-.64.85-.31.63-.87.85-.66.74-.11.54-.44 1.08-.31.74-.44 1.08-.11.85.11.74.23.31.09.43.55.32.43.53.43.32.66.11.87.43 1.18-.32.44.32.86-.32.98v.43l-.11.21.11.55-.22.54.22 1.09-.31.32-.23.76-.31.86v.11l.31.87-.42.75v.43l-.11.66-.21.76-.22.98-.2.75v.98l-.12.43-.42.86-.11.76-.43 1.09-.31.52v.78l-.74 1.3.2.43-.2.98v.86l-.54.96v.77l-.54.44.11.63-.11.55-.2.64.11.77-.34.44-.63 1.73-.11.43-.43.98v1.07l-.31.66-.11.75-.23.87-.09.32-.11.66-.22.75v.43l-.21.75.12.43-.12.35-.42.86-.23 1.19v.32l-.31.65v.55l-.2.87-.34.75-.2.75.11.32-.11.77-.23.64-.2 1.19v1.29l-.42.55.2.87-.2.66.2.63-.2.78-.12.64.12.22-.23.96-.31 1.09.11 1.19-.22.54v.98l.11.64-.11.87.42.22.43.55.65.87h.96l.43-.66.63-.64.31-1.1-.31-.86.11-.11.31-.76.12-1.18-.23-.66.34-.75.31-.55-.22-.64.22-.77-.11-.87.43-.63-.09-.55.09-1.09.65-1.73v-.87l-.11-.64.54-1.09.2-.64.22-.75-.31-.87.31-.54.54-.66.09-.87-.31-.32.42-.54-.11-1.07.54-.78-.11-.86.33-.98.09-.53.43-.66.11-.75.11-.66.12-.86.31-.64.11-.55.09-.86.23-.21.42-.66-.11-.32v-.54l.32-.67v-.52l.33-.77.43-.87.31-1.18.2-.75.43-.67.22-.86.43-.87.43-.43.42-.75.54-.55.43-.54.43-.64.42-.75.43-.43.31-.78.54-.52.43-.87.54-.77 1.05-1.3.54-.87.54-.75.42-.43.63-.98.54-.55.65-.75.74-.86.54-.87.43-.66 1.05-.96.65-.77.86-.75.74-.44.85-.75.85-.32.43-.45.74-.32.22-.32.86-.43.54-.44.2-.11.85-.2.76-.44 1.06-.54.96-.32.86-.11.96-.12.74-.2.63.09 1.39.54.85.87.54.66.32.52.11.55.22 1.3.09.98-.09.86-.22 1.53-.11.86-.09.55-.43.64-.11.54-.32.64-.22.34.11.64-.11.55-.31.54-.23.44-.31 1.5-.32.78-.22 1.07-.32.31-.42.66.11 1.07-.34.99-.62.86-.32 1.53-.11.86-.43.21v1.09l-.31.43-.11.32-.12.66-.42 1.3-.12.96-.09.66-.42.98v.52l-.43.66-.33.87-.32 1.41.11.98-.31.63v.44l-.54.66v1.18l.11.55-.53.64.2.43-.09.98-.23.54-.2.44-.22.32v1.3l-.32.31-.22.89.11 1.3-.11.52-.43.98.11.55v.64l-.31.34-.11.86.11.64-.11.43-.32.87v1.09l.09.98-.09.64-.11.32.11.77v.87l-.22 1.18.11.87.2.75v.98l-.09.55.21.43v.86l.42.64.32.87.11.66v1.18l.42.55.43.64.23 1.2.31.12.43.52.22.43.43.66.42.32.43.66.63.32.31.21.85.43.34.23.43.43.51.32.23.11.42.44.97.43.85.32.97.11.85.32h.43l.42.11.74-.22h.63l.97-.21.74-.23 1.07-.2.54-.87v-.75z"/><path id="_1" class="fil0 str0" d="M119 60.53l-.96.32-.54.55-.74.2-.74.35-.76.2-.52.23-.76.09-.43.11-.94.12-.34-.12-1.05-.11-.54-.32-.86-.43-.11-.11-.63-.53-.11-.66-.54-.64.11-.86-.31-.98v-.34l.09-.87v-1.07l-.31-1.18.22-.44v-.66l.52-.98-.2-.54.11-1.3.63-.87-.11-.95.42-.87.11-.54.54-.76v-.77l.2-.43v-.75l.54-.76.23-.98-.11-.66.62-.63.43-.87V39.1l.34-.54v-.44l.54-.86.2-.55.31-.75.54-.86-.2-.55-.11-.23.31-.64-.43-.54-.31-.44-.74.23-.76-.43h-.74l-1.17.2-.34-.11-.63.11-.74-.75-.65-.23-.74-.86-.85-.21-1.39.12-.65-.34-1.6.11-.85-.21-1.39.44h-.52l-.33.43-.52.09-.54.43-.74.35-.22.52-.74.34-.54.64-1.08.55-.43.54v.44l-.94.43-.11.64-.65.54-.43.44-.74.54.2.55-.62.43-.54.75-.43.44-.11.43-.2.21-.23.66-.52.2-.42.77v.53l-.34.23-.31.54-.43.87-.2.32-.34.32-.31.66-.2.98-.65.52.31.77v.44l-.52.63-.33.55-.21.55-.11.32V51l-.11.34-.11.75-.2.2-.32.44.43.98-.34.34v.75l.12.86-.12.55.12.64.11.54.31.66v.64l.65.98.2.75.43.55.34.64.51.66.77.64h.31l1.17.43h.65l.2.11 1.39.23.85-.11.65-.44h.32l.63-.54.42-.21 1.28-.43.43-.43 1.08-.87 1.16-.77.43-.64.54-.43.54-.66.54-.76.31-.54.11-.21.63-.86.43-.66.31-.55.65-.75.63-.87.76-1.09.21-.75.76-1.07h.51l-.09 1.18-.11.98.11.87-.11.86-.31.55.31.52-.11.78-.31.64.54.43-.12.75v.78l.43.75-.22.98.53.75.43.86.43.55.74.64.65.54 1.05.55.34.12 1.06.43.53-.12.74.21.77-.09 1.05-.34h.65l.86-.53.74-.11.42-.23.86-.21.42-.31.63-.34.85-.53.54-.43-.2-.78-.85-.2-.01-.01zm-10.34-24.68l-.11.63-.12.98v.32l.12.34-.32.44-.42 1.07.09 1.09-.95 1.3.09.55V43l-.62.32-.43.63-.11.44-.32.43-.22.55-.43.86-.54.66-.2.32-.43.98-.11.21-.2.54-.76.75-.09.35-.43.31-.11.32-.32.75-.65.66-.42.76-.54.66-.52.86-.42.32-.23.66-.43.52-.74.78-.53.86-.66.64-.94.78-.65.52-.54.55-1.48.66-.76.43-.94.21-1.28-.55-.77-.32-.42-1.07-.74-.43.11-.87-.11-.77-.43-.64.11-1.1V55l-.11-.64.31-.43.23-.87-.23-.23v-.63l.43-.98-.09-.32.31-.78.21-.63.33-.66.43-.64.09-.43v-.66l.11-.53.43-.43.65-.78.2-.75.74-.98.34-.43.74-.55-.23-.52.54-.55.23-.75.63-.43v-.55l.96-.98v-.2l.43-.55.74-.55.42-.66.34-.32.54-.31.31-.32.74-.44.86-.77.53-.64h.63l1.08-.54h.74l1.51-.21 1.05.21.43-.12.85.34.96.53.43.34.74.52.34.66v.01z"/><path id="_2" class="fil0 str0" d="M171.7 71.15h-.54l-.94.95-.34.12-.63.54-1.28.55-.54.21-.96-.1-.85.1-.63-.44-.65-.32-.54-1.09-.43-1.3.11-.75-.11-1.62.23-1.09.2-.64.11-2.27.32-.76.33-1.41v-.98l.43-1.3.2-.43.22-.64v-1.09l.43-.98.32-1.5.53-1.64.63-.75v-1.41l.65-.44.32-1.07.11-.86.09-.55.34-.55v-.54l.62-.96.12-.89.53-1.61.12-.76v-.98l-.23-.86-.2-.75-.34-.75-.31-.23-.54-.55-.63-.2-.85-.44h-1.08l-.85.12-1.28.63-.31.12-.54.32-.63.55-1.08.86-.85.75-.65.66-1.28 1.51-.63.86-.54.66-.85 1.07-.43.78-.63.75-.53.54-.54.76-.74.98-1.19 1.18-.86.64v-1.07l.23-.87.2-1.09.34-1.39.85-2.94.09-1.07.23-.86.11-.98v-.44l.09-.86-.2-1.19-.97-1.09-1.82-.32-1.37.32-.65.23-.63.52-.65.34-.74.76-1.28 1.18-.65.75-.85.78-.43.63-.96.98-.43.55-.96 1.3-.86.75-.74.86-1.28 1.42.32-1.74.22-1.18v-.66l.32-1.18v-1.96l-.11-.98-.21-1.3-.74-.96-.54-.86-1.27-.46-.97-.09h-.54l-.85.09-1.48.46-.54.75-.54.11-.11.44h-.2l-.54.52-.43.11-.2.55-.34.21-.63.77-.42.52-.32.66-.42.55-.65.87-.54.52v.66l.42.32.65.43.63-.2.86-1.21.96-.52.31-.78 1.4-1.5 1.27-1.19.23-.22 1.17-.55.96.34.54.53.2.97v1.53l-.11.87-.2 1.41-.32 1.5v.66l-.33 1.19-.2.54-.43 1.19-.11.86-.43.64-.22.77-.21.98-.54 1.19-.31.64-.31.54-.12.66-.22.64-.31.55-.21.43-.76 2.28-.2.54-.11.76-.43 1.18-.54.86-.09.44-.11.77-.22.64-.32.66-.31.96v.98l.11.86.43.55.51.64 1.19-.1.63-.34.43-.86.31-1.07.54-.75.11-.66.43-.98.11-.87.09-1.18.43-.66.22-.87v-.43l.31-.53.23-.77.2-.87.32-.75.33-.64.2-.34.43-.98.97-2.68.53-.78.54-.43.32-.75.74-.87.54-.66.31-.32.97-1.07.53-.66 1.71-1.84.31-.44.65-.63.32-.44.43-.54 2.35-2.6 1.37-1.09h1.28l.54.54.11.98-.65 1.85-.43 1.41-.31 1.3-.32 1.5-.31 1.41-.22.44-.21.98-.42.95-.43 1.21.2.75-.54.87.12.54-.43.55.2.75-.2.75-.31.44.2.86-.2.34-.43 1.3v.53l-.11.43-.32.66v.75l-.22.98-.2.86-.11.98.11.76-.11.43-.23.75v1.09l.43.98.96.32h.54l.54-.43.43-.44.2-.66.54-1.18.11-.75v-1.19l.11-.43.31-.66v-.75l.43-1.09.43-1.41-.11-.76.42-1.07.85-1.52.12-.66.42-1.07.32-.55.54-.43.2-.76.76-.75.52-.66.33-.43.86-1.18.42-.44.63-1.09.65-.87.54-.43.2-.43.43-.43.65-.87.43-.43.63-.98.85-.75 1.7-1.96 1.19-.96 1.17-.54 1.05.11.86.52.42 1.1-.42 1.93-.74 1.85-.43 1.2-.96 2.17-.21.75-.54 1.5-.11.66v.44l-.63.97v.87l-.11.64-.42.86-.12.55-.31.87-.11.54-.32 1.1-.22.63v1.19l-.43 2.82-.09.98-.22.64-.11.86.11 1.42-.11 1.41.42.86.11.87.74 1.73 1.4 1.41 1.7.43.54-.11h1.17l1.28-.2.76-.12 1.05-.43.54-.43.43-.44.65-.43.74-1.73z"/><path id="_3" class="fil0 str0" d="M189.09 32.16l1.48-1.73.65.11h.54l.63.11.43.44v.98l-.32.86-.54 1.07-.53.75-.21.35-.42.43-.54.95-.85.98-.75 1.3-.42.78-.85 1.07-.32.32-.42.86-.34.98-.43.66-.2.21-.43.86-.22 1.09-.54.44-.09.54-.85 1.3v1.07l-.23.32-.31.34-.31 1.07-.34.44-.2.75-.32.86-.34.66v.44l-.2.31v.55l-.22.87v2.5l.42.75v.75l.23.44.43.54.54.32.42.32.63.44.97.11.96-.11.54-.21.51-.11.34-.32.63-.12 1.17-.86h.42l.54-.64.54-.34.43-.32.74-.55.42-.54.43-.32.43-.12.53-.63.43-.44.65-.54.52-.64.76-.78v-.2l.2-.43.54-.23.54-.87.63-.63-.09-.55.63-.43.11-.55.54-.64.42-.98v-.86l.32-.87-.23-.66-.31-.86-.43-.75-.42-.32-.86-.35h-.31l-.85-.09h-1.28l-.65.32-.74.21-1.08.86-.63.34-.65.64-.63.55-.54.66-.22.64.43.43-.09.75-.23.78-.54.2-.74-.2-.85-.23-.74-.55.11-.64-.22-.66v-.64l.42-.86.12-.32.53-.55.43-.54.52-.43.42-.55.43-.32.65-.32.74-.43 1.28-.43.76-.35h1.71l.85-.09 1.06.09h.22l.97.23.51.32 1.08.43.43.66.74.44.22.75.52.66.22.52-.11.34.22.64v.43l-.22.32-.11.78v.75l-.32.55-.54 1.29-.2.87-.54.64-1.05 1.09-.23.43-.53.64-.21.87-.74.43-.76.86-.54.44-.2.45-.85.64-.43.11-.65.87-.74.2-.32.35-.53.63-.43.23-.74.21-.34.32-.63.43-.96.43-1.17.55-.74.22h-.85l-1.19.1-.54-.1-.31.21-1.4-.43-.31-.21-1.17-.34-.96-.75-.43-.32-.74-1.09-.11-.96-.2-.43-.12-.98-.31-.34v-.64l.2-.55-.42-.54v-.76l-.11-.63.53-.66-.42-.55.74-.75-.09-.32.31-.87-.31-.43.51-.43.23-.98.42-.43.21-.55.22-.64.43-.86.31-.55.11-.75.32-.46.42-.63.23-.67v-.52l.31-.11.32-.66.31-.53v-.54l.65-.32.11-.55v-.23l.63-.75.34-.43.63-1.3.54-.98.74-1.18v-.23l.54-.87.62-.86.34-.64.2-.32z"/><path id="_4" class="fil0 str0" d="M207.34 64.31l1.16-.31 1.08-.32.63-.12.74-.31.65-.12.85-.66 1.08-.43.94-.87.65-.52.74-.55.65-.54.95-.32.65-.66.63-.53.96-.88.34-.44.94-1.07 1.19-.98.63-.98.65-.54 1.59-1.94h.32l-.54 2.6-.2 1.29-.12 1.74-.11.86.23 1.09.31.98v.53l.31.77 1.19.75.32.64.65.11.74.32 1.48-.09.76-.23h.86l3.18-1.5 1.28-1.73.54-.55-.31-1.09-.86.11-.85.75-.96.78-.54.32-.86.55-1.39.52-1.48.11-1.16-.63-.77-1.21v-.87l-.2-.98-.11-1.07.22-1.18.2-.66.12-1.3.11-1.18.52-1.1.11-.75.22-.86.43-1.3.63-1.3.31-1.21.43-.86.33-.87.32-1.18.63-1.94.53-.77.23-.44.2-.63.23-.78.63-1.07-.12-.86.54-.66.65-.96.32-.43-.23-.66-.52-1.07-.53-.55-.65-.32-.86.32-1.05-.66-.65-.53-.63-.45-1.08-.21-1.17-.54-.65.11-.74.21-.74-.21-.74.43-.42-.22-.54.22-.65.12-.86.64-.85.34-1.05.64-.54.43-.74.66-.34.75-.74.2-.2.67-.85.43-.23 1.18-.54.32-.85.43-.31.35-.12.86-.2.75-.85.43-.31.32.31 1.1-.74.54v1.3l-.54.96.11 1.3-.42.54.42.66-.33.98.33.87.2.43.43.43.32.96.85.43 1.08.34.74.44h.85l.96.2h.86l.42.12 1.08-.12 1.37-.43.96-.32v.21l-.42.86-.97.78-.43.63-.62.75-.65.55-.63.78-.85.63-.23.44-.63.66-1.08.75-.85.54-.54.64-.74.34-.96.76-.32.43-.85.43-.74.44-.65.43-1.17.54-1.16.21-.77.11h-1.05l-1.19-.11-.85-.21-.86-.54-1.05.43v1.3l.74.98 1.93.64h2.56v-.01zm12.79-15.37l-2.02-.11-1.08-.32-1.05-.55-.74-.75-.43-1.5.09-1.09-.09-.76.31-1.29.2-.98.43-.66.85-1.51.77-1.29.51-.35 1.19-1.61.54-.44.32-.43.62-.64 1.08-.66 1.06-.54.65-.53.74-.23 1.28-.2 1.07-.43h.43l1.28.2 1.28.98.63.75.22 1.19-.42 1.09-.32 1.3-.43 1.29-.64 1.53-.32 1.39-.96 1.96-.32.86-.42 1.19-1.08.98-.63.54-1.19.64-1.17.34-2.24.64z"/><path id="_5" class="fil0 str0" d="M269.52 44.62l-.74-.12h-4.06l.43-1.41.65-1.73.31-.96.54-1.3.23-.66.51-1.29.43-1.19.65-1.09.54-.98.63-1.51.11-1.09-.54-.75-.2-.11-.65.11-1.08.43-.74.66-.2.44-.43.75-.43.98-.42 1.07-.23.43-.63 1.53-.11.63-.54 1.1-.31 1.18-.43 1.3-.31 1.18-.34 1.1-.42 1.18h-.97l-2.65-.2-.96.09-1.17-.09h-1.7l-3.1-.12.31-1.41.54-2.48.32-1.1.2-.75.11-.66.22-.75.32-1.07.11-.43v-.66l.09-1.19v-.66l-.2-1.07-.32-.54-.42-.55-.65-.09-.86-.12-.96.21h-.43l-.63.55-.65.43-.42.23-.63.52-.85 1.09-.86.87-.65.55-.63.75-.42.54-.43.64-.42.55-.66.86-.54.55v.64l.34.34.63.43.65-.23.94-1.18.97-.55.31-.75 1.51-1.52 1.28-1.19.74-.75.85-.23.54.32v.66l-.11.43-.09.76-.34 1.95-.31.75-.21 1.19-.22.87-.97 3.02-.09.44h-2.35l-.74-.21-.77-.32-.94-.34-.76.66.54 1.19.11.34.54.95.63.23 2.46.12h.52l-.52 2.05-.22 1.41-.43 1.3-.31 1.18-.23 1.09-.2.64-.22.87-.11.54-.43.98-.2 1.19-.23.66-.42 1.18-.09.98-.43.75.09.44.34.75.85.43 1.59-.32.43-.86.22-1.53.09-.43.23-1.3.2-.43.22-1.19.12-.98.42-.98.09-.75v-.2l.34-1.1.09-.43.34-.98.31-1.18.2-.75.43-1.74.65-1.2.74-.21 1.17-.11h.96l.97-.12h.96l1.48.12.86-.12 2.24.23h.85l-.42 1.73-.63 2.49-.23.43-.31 2.07-.31.96-.12.77-.11.96-.11.55-.2.75v2.62l.2.95.22.66.86.64 1.05.55.88.22 1.28.1 1.36-.32.23-.21.96-.43 1.06-.77.34-.76.74-.75.63-.75.42-1.09.43-.87-.97-.75-1.05.32-.85.98-.75.75-.33.55-1.37.98-.34.2-.42.11-1.06-.31-.31-.87-.23-.98.11-.87-.11-.77.11-.64.21-.75.11-.98.22-.43.32-.98.31-1.62.54-2.39.54-1.84.85-.09 1.06.09.76.11 1.59-.11 1.28.22.63-.43.43-1.18-.52-.46z"/><path id="_6" class="fil0 str0" d="M311.36 60.53l-.97.32-.54.55-.74.2-.74.35-.76.2-.52.23-.76.09-.43.11-.94.12-.34-.12-1.05-.11-.54-.32-.85-.43-.12-.11-.62-.53-.12-.66-.54-.64.12-.86-.32-.98v-.34l.09-.87v-1.07l-.31-1.18.22-.44v-.66l.52-.98-.2-.54.11-1.3.63-.87-.11-.95.42-.87.11-.54.54-.76v-.77l.21-.43v-.75l.53-.76.23-.98-.11-.66.65-.63.42-.87V39.1l.32-.54v-.44l.54-.86.2-.55.31-.75.54-.86-.2-.55-.11-.23.31-.64-.43-.54-.31-.44-.74.23-.76-.43h-.74l-1.17.2-.34-.11-.63.11-.74-.75-.65-.23-.74-.86-.85-.21-1.39.12-.63-.34-1.62.11-.85-.21-1.39.44h-.52l-.33.43-.52.09-.54.43-.74.35-.22.52-.74.34-.54.64-1.08.55-.42.54v.44l-.95.43-.11.64-.65.54-.43.44-.74.54.23.55-.65.43-.54.75-.43.44-.11.43-.2.21-.23.66-.51.2-.43.77v.53l-.34.23-.31.54-.43.87-.2.32-.34.32-.31.66-.2.98-.65.52.31.77v.44l-.52.63-.33.55-.2.55-.12.32V51l-.11.34-.09.75-.22.2-.32.44.43.98-.31.34v.75l.09.86-.09.55.09.64.11.54.31.66v.64l.65.98.2.75.43.55.34.64.51.66.77.64h.31l1.17.43h.65l.2.11 1.39.23.86-.11.65-.44h.31l.63-.54.43-.21 1.27-.43.45-.43 1.06-.87 1.16-.77.43-.64.54-.43.54-.66.54-.76.31-.54.11-.21.63-.86.43-.66.31-.55.65-.75.63-.87.76-1.09.21-.75.76-1.07h.52l-.09 1.18-.12.98.12.87-.12.86-.31.55.31.52-.11.78-.31.64.54.43-.11.75v.78l.42.75-.22.98.54.75.42.86.43.55.74.64.65.54 1.06.55.33.12 1.06.43.54-.12.74.21.76-.09 1.05-.34h.66l.85-.53.74-.11.42-.23.86-.21.42-.31.63-.34.88-.53.51-.43-.2-.78-.85-.2v-.01zm-10.35-24.68l-.11.63-.11.98v.32l.11.34-.31.44-.43 1.07.09 1.09-.94 1.3.09.55V43l-.63.32-.43.63-.11.44-.32.43-.22.55-.43.86-.51.66-.23.32-.43.98-.11.21-.2.54-.76.75-.09.35-.43.31-.11.32-.32.75-.64.66-.43.76-.54.66-.52.86-.42.32-.23.66-.43.52-.74.78-.53.86-.63.64-.97.78-.65.52-.54.55-1.48.66-.74.43-.96.21-1.28-.55-.77-.32-.42-1.07-.74-.43.11-.87-.11-.77-.43-.64.11-1.1V55l-.11-.64.31-.43.23-.87-.23-.23v-.63l.43-.98-.09-.32.31-.78.21-.63.33-.66.43-.64.09-.43v-.66l.11-.53.43-.43.65-.78.2-.75.76-.98.32-.43.74-.55-.2-.52.51-.55.23-.75.63-.43v-.55l.96-.98v-.2l.43-.55.76-.55.43-.66.31-.32.54-.31.31-.32.74-.44.86-.77.54-.64h.62l1.08-.54h.74l1.51-.21 1.05.21.43-.12.85.34.97.53.42.34.74.52.34.66v.01z"/><path id="_7" class="fil0 str0" d="M382.41 58.37v-.66l-.76-.32-.86.21-.09.54-.42.55v.98l-.34.32v.75l-.52.66-.42.75-.54.75-.32.12-.22.43-.32.75-.74.23-.22.75-.43.23-.42.54-.23.21-.51.32-.54.66-.74.55-1.28.75-1.08.54-.63.64-.85.43-.85.12-.65.64-.74.54-.65.23-.75.21-.65.22-.74.21-1.05.43-.97.32-.42.11-1.17.23-.43.21-.44.11-.86.11h-.51l-.65-.11h-1.06l-1.08.11h-2.33l-.65.12H352l-1.28-.12-.74-.22-.43-.1h-.87l-.43-.11-1.05-.34-2.14-.87-.65-.43-.74-.09-.54-.66-.85-.75-.31-.23-.86-.64-.22-.32-.52-.34-.42-.95-.43-.55v-.32l-.54-.55.2-.54-.31-.44-.31-1.09-.32-.09.2-1.09-.2-.64.43-.66-.23-.21v-.66l.23-.63.09-.78.22-.43.32-1.51.22-.34.43-.52.31-1.09.43-.55.54-.87.31-.31.32-.55 1.27-1.62 1.19-.75.21-.34.85-.75.11-.32.74-.43.23-.12.62-.2.54-.78.63-.32.76-.63.63-.78.77-.32.42-.43.32-.11.96-.44.85-.86 1.06-.55.76-.43 1.17-.52.96-.67.63-.2 1.17-.77.85-.64 1.3-.55 1.06-.75.96-.75 1.06-.55.76-.54.63-.44.96-.86.97-.55.94-.64.54-.77.76-.44 2.14-1.73.85-.75 1.05-.75.97-.86.85-.98 1.08-1.1.94-.86 1.5-2.26.54-.98v-.43l.63-.86.23-.44.51-.98v-.66l.43-.63.22-1.1.32-1.3.31-.54v-2.69l-.2-1.09v-.75l-.54-.87v-.43l-.96-.78-.63-.32-.43-.97-1.08-.64-.63-.12-.31-.54-1.82-.96h-1.19l-.85-.11-.74-.32-.96.2h-1.6l-1.39-.11-.74.34-1.28-.11-1.93.32-2.45.54-1.7.43-1.08.55-1.16.32-1.71.75-.31.32-.74.34-.54.53-1.17.43-.76.45-.54.32-.74.64-.63.98-1.08.66v.21l-.43.43-1.07.66-.09.52-.54.23-.74.86-.65.87-.54 1.41.11.44-.11.98.11.43-.2 1.07.43.54.2.44.74 1.18 1.08.23.31.32 1.62.66h1.37l1.18-.55.21-1.09-.54-.98-.52-.64-.33-.23-.86-.63-.31-.98v-1.3l.65-.98.63-.75.85-1.1.85-.75.65-.63.54-.66.43-.21.85-.55 2.22-1.29 1.51-.55.96-.66 1.28-.43 1.39-.44 1.37-.52 1.19-.11 1.48-.32 1.19-.12 1.48-.22h3.3l1.39.34.74.32.88.31.74.66.54.64.51.78.65.95.32 1.1.11 1.18-.22.87v.54l-.09.21-.43 1.2-.11 1.07-.43.87-.65 1.09-.42.64-.52 1.21-.76.86-.74.76-.54.75-.63.66-.77.86-1.48 1.51-.96.77-1.28 1.07-1.28 1.21-.85.64-.43.43-1.28.86-.96.87-.97.75-1.37.98-1.19.66-.53.32-.52.55-.76.2-.32.23-.96.52-.95.66-.76.32-.63.43-.74.44-.65.34-1.08.43-.85.64-1.17.66-.62.2-.66.76-.42.11-.85.32-.54.55-.86.11-.85 1.07-.96-.09-.09.32-.77.54-.42.32-.2.44-.97.11-.31.86-.12.44-.74-.12-.42.55-.54.64-.43.43-.42.55-.32.66-.76.43-.52.87-.76.75-.52 1.18-.33.78-.32.31-.31.64.11.87-.43.43-.11 1.21-.22.11-.2 1.5-.32 1.3.09.44v.75l.11.54.54.66-.22.64.76.43v1.21l.74.64-.11.75.85.34V68l.74.98v.21l.43.43.76.55 1.17 1.18.65.44.63.31.42.55.65.43.63.34.74.32.54.12.32.2.76.23.43.2 1.16.23.54.32h.74l.85.21.32.11.76.23.74.09.63.11.76.12.86.11h1.9l.66-.11 1.16.2.74-.2.54.11h.32l.65.21.63-.12.64-.43.86.11.42-.32.66-.22.85.11 1.48-.43.65-.21.52-.23.85-.2.54-.55 1.19-.32.31-.54.63-.23h.85l.43-.32.85-.32.34-.54.85-.12.52-.86.65-.55.74-.43.85-.32.65-.43.97-.98.42-.64.74-.75 1.06-1.32.11-.32.43-.21.42-.77.23-.96.31-.77.21-.43.53-.76v-.43l.32-1.3z"/><path id="_8" class="fil0 str0" d="M394.57 63.68l.85-.23 1.06-.32.65-.23h.43l.09-.95.65-.78.85-.43.31-.96.34-.66 1.71-1.73.62-.86.43-.75.85-.99.66-.75.53-.54.43-.55.52-.66.96-1.07.54-.98v.55l-.11.86-.32 1.19v.66l-.31 1.93.2.78.11 1.07-.22.86.11 1.21.11 1.5.54.87.52 1.09 1.28.32 1.28.21.76-.21 1.17-.55.85-1.18.96-1.18.86-1.1.42-.86.74-.76.86-1.2.74-.87.45-.64.74-.66.85-.75-.23 1.53v1.07l-.09 1.18.09 1.21-.2 1.18.2.98.12.98.22.32 1.6 1.62.53.23.63-.12.43.12 1.5-.66 1.59-.64.75-.43.96-.55.54-.75 1.91-1.73.33-.66-.53-.76-.74.64-.54.23-.65.32-.95.55-1.28.63-.76.23-1.17.32-1.16-.11-.65-.87v-1.5l.22-1.09.31-.55-.11-1.07.54-1.19.11-1.2.63-1.73.65-1.3.43-1.41.31-.64.21-.55.33-.75.43-.87.42-1.2.43-.96.11-1.21.32-.32.85-2.59v-.64l.74-1.32.43-1.07.54-1.3.42-.43.2-1.53.54-1.5-.31-.43-1.17-.55h-1.7l-.43.87-.23.66-.31.86-.31 1.39-.43.43v.98l-.34.87-.62.43.09.43-.52.98v.75l-.76.87v1.3l-.21.54-.53.44-.12.98-.42.75v.55l-1.06 2.16-.22.86-.2.76-.66.77-.74 1.07-.63.87-.96.75-1.61 1.64-.63.75-.32.54-.54.21-.65 1.09-.51.87-.54.54-.32.64-1.28 1.3-1.39.66-.54-.32-.11-.86-.2-.55.31-2.16-.11-.78-.11-.64.22-.54v-.75l.32-1.1v-.86l.22-.64.2-.55-.08-.86.42-.98.32-1.41v-.75l.42-.87.2-.66.34-.87.09-.95v-.66l.43-.87.22-.32.32-1.18.53-.78.21-1.73.42-1.18v-.87l.77-1.09.09-.32.22-.98.31-.86.23-.44-.34-.75-.42-.43h-.32l-1.28-.2-.96.52-.09.43-.43.98-.65.98.11.32v.66l-.65.75-.2.64-.31 1.64-.45.75v.86l-.32.67-.31 1.18-.11.32v.43l-.74 1.19-.32 1.29-.34.23-.09.87-.42.66-.43.86-.65.87-.43.64-.31.54-.43.55-.65.75-.62 1.07-1.51 1.53-.74.98-.85 1.07-.65.66-.43.86-.52.64-.65.66-.42.66-.86.64-.65.86-.74.55-.74.21-.42-.53-.23-.43-.09-1.41.43-2.07.31-1.19.2-.98.23-1.18.54-1.62.63-1.3.11-.86v-.66l.74-1.51v-.54l.43-.66v-.55l-.12-.64.12-.75.65-1.21.11-.63.51-.87.12-.75v-1.21l.65-.75.2-1.18v-.87l.11-.66.11-.43.52-.75.22-1.1v-1.3l-.65-.52-.74-.43-1.05-.34-.97-.44-1.39.55-.96.43-.86.66-.74-.11-.65.86-.42.76-.63.11-.65.75-.32 1.19.12.86.96.78h.43l.51-.12.43-.98.54-.63.96-.98.43-.55.63-.32.76-.32.43.09.42.43-.22.78v.96l-.43.98-.31.43v.66l-.11.52.11.55-.11.43-.63.87-.23.98-.2.11v.87l-.54.86v.21l-.22 1.09v1.07l-.52 1.09-.54.98v.43l-.42.76.11.22-.23 1.07-.11.87-.31.66-.63 1.5.09 1.3-.31 1.41-.43.76-.11 1.2v.98l.22.53v1.73l-.22.77.22.32.32 1.07.85.55.85.11z"/><path id="_9" class="fil0 str0" d="M472.24 5.1l-.11-.75-.33-.98-.43-.77-.52-.64-.42-.55-.54-.43-.23-.32-.63-.32-.74-.23-.65-.11h-1.39l-.85.23h-.74l-.54.2-.74.12-.74.75-.65.23-.85.63-.43.12-.2.43-.65.34-.65.53-.32.66-.74.31-.31.44-.43.54-.76.55-.43.52-.63.99-.65.66-.51.75-.34.54-.63.64-.22.55-.63.66-.11.32-.54.75-.54 1.09-.43.53-.42.77-.52 1.07-.43.43v.75l-.54.44-.54.89-.11.63-.42 1.1-.32.32-.63 1.29-.22 1.1-.32.75-.11.32-.54 1.09-.31.52-.2.44-.43 1.29-.45.55-.2.75-.22.55-.21.32V30l-.85.65-.85.87-.43.55-1.16.86-2.25 2.26-.43.22-.65.87.77 1.07 1.28-.43 1.16-1.07.32-.44.74-.54.96-.75-.74 2.59-.42 1.73-.43 1.62-.43 1.3-.42 1.52-.32 1.62-.42.98-.12.55v.86l-.42.55.2.43-.31.75-.12 1.19-.2.43v1.96l-.11.52.11.98-.22.44.33.66-.42.43.31.98.11.86.09.76.34.97.31 1.19.2.32.77.77v.44l.63.31.65.64.42.12 1.06.43.65.32 1.05.11.54-.11.32-.09 1.07-.35h.75l.74-.09.22-.43h.2l.77-.43.51-.12.23-.32.85-.54.43-.75h.31l.65-.44.85-.98.74-.66.74-.75.12-.75.85-.66.42-.55.43-.31.43-.64.54-.66.42-.66.54-.53.32-1.29.42-.78.54-.43.2-.44.54-.52.32-1.21.33-.75.52-.32.54-1.09.22-.75.2-.87v-.43l.32-.66.11-.64v-.43l.43-.87.11-.43v-.86l.11-.87v-.86l-.11-.55-.23-.55.12-.75-.12-.54-.31-.55-.43-1.07-.63-.75-.96-.98-.85-.55-.97-.55-.96-.31-.74-.32h-.74l-.34-.12-.63-.11-.74.11-.76.23h-.63l-.43.32h-.54l-.42.43-.86.64-.42.43-.74.55-.65 1.09-.54.53-.52.66-.34.86-.42.55-1.06 1.3-.74 1.18-1.3.23.22-.86.12-.66.42-1.1.21-.86.42-.76v-.31l.23-.55-.12-.55.54-.52.11-.78.52-.63.34-.55.85-1.18.85-.66.52-.44.43-.32.65-.75.96-.43.63-.78.76-.43.43-.64.74-.54.54-.32.85-.75.52-.55.43-.66.65-.43 1.05-1.07.77-.44.62-.43.65-.34.43-.64.63-.43.54-.43.65-.44.42-.54.52-.44.85-.66 1.08-1.18.43-.32.54-.43 1.05-1.1.65-.52.32-.23.53-.55.32-.43.54-.52.54-.66L471.48 9l.31-.98.34-.87.2-1.18-.09-.87zm-2.67 1.07l-.22 1.09-.43.98-.54.87-.74.96-1.28 1.52-.65.55-1.05.86-.43.55-.31.43-.77.64-.62.66-.54.64-.97.66-.42.32-.63.75-.54.43-.65.34-.52.32-.65.55-.31.32-.74.86-.86.64-.85.77-1.08.98-.53.53-1.28.98-1.06 1.09-1.28 1.07-.85.55-1.08.86.74-2.59.77-1.62.51-.78.43-1.07.54-1.2.85-1.5.54-.99.65-.86.63-1.41 1.28-1.94.42-.98.75-.86.42-.32.11-.43.65-.66.52-.76.23-.66.53-.43.32-.54.63-.64.53-.44.54-.66.97-1.07 1.17-.75.85-.77.85-.53.74-.22 1.28-.32 1.28-.12.76.23.63.43.43.53.22.98.12 1.18h-.01zM444.71 43.2l.85.12h.74l.85-.44.12-.54.22-.75.52-.55v-.32l.33-.43.21-.32.31-.78.34-.52.42-.77.2-.55.32-.75.54-.32.42-.55.43-.63.22-.12.75-.66.31-.43.85-.32.11-.32.74-.32.65-.43h.74l.43.2h.85l.32.12 1.5.75.63.75.23.43.53 1.21v.75l.21.87v.32l-.09 1.09v.32l-.65 1.62v.66l.22.43-.65.75-.43.98.2.64-.51.34-.23.32-.11.98-.63.11.11 1.07-.33.55v.43l-.63.64-.54.43-.11.66-.43.32-.09.98-.65.55-.2.63-.65.32-.43.98-.74.66-.43.98-.42.32-.76.64-.43.66-.31.11-.12.64-.85.55-.31.54-.63.55-.65.64-.2.11-.77.64-1.28.43-.51.23-.54-.11h-.65l-.43-.32-.63-.43-.65-.67-.31-.63-.54-.55-.11-.64-.43-.89v-.75l.11-1.07v-.77l.23-.64.09-.78.11-1.18.11-.43.2-.55v-.32l.23-1.07.43-1.3v-.66l.31-.63.11-.78.43-1.07.31-.66v-.32l.23-.98h.74z"/><path id="_10" class="fil0 str0" d="M479.27 70.49h.65l.74-.32.85-.12.74-.43.86-.11.53-.53.86-.34.65-.2.63-.75 1.07-.66.97-1.19.94-1.41.54-.98.11-.64.31-.77-.2-.53-.54-.54-.85.86-.54.87-.63.43-.65.98-.74.75-.65.55-.54.54-.62.44-.74.43-.54.32-.97.32-.54.32-.74.11-1.28.11-.96-.11h-.85l-.97-.11-.85-.1-.94-.22-.54-.21-.86-.23-.65-.54-.42-.21-.63-.66-.65-1.3-.85-.75-.12-.66-.09-.43-.53-.43.42-.53V60.3l-.11-.63v-.44l.11-.75-.11-.43.31-.46.12-1.82.31-.86h.85l.54.2.31.12.66-.12.85.12 1.16-.32 1.08.2.74-.2.43-.23.74-.32h.65l.63-.11.76-.12.43-.32.85-.31.74-.35.65-.2 1.17-.32.74-.55.54-.54.63-.21.76-.66.43-.63.63-.23.53-.64.43-.34.23-.32.74-.55.54-.43.51-.96.54-.54.43-.98.33-.75.32-.55.2-.87v-.98l-.43-1.18-.54-.55-.42-.75-.52-.43-.96-.55-.32-.32-.43-.11-.33-.11-.63-.64h-1.08l-.63-.34-.33-.09-2.22.63-.23-.11-1.05.11-.66-.11-.42.55-.43.22-1.08.21-.51-.21-.23.64h-.63l-.85.66-.33.32-1.49.98-.74.64-.53.23-.66.43-.51.2-.23.98-.2.44-.33.54-.97.55-.43.32-.09.43-.22.55-.85.32.11.75-.97 1.52h-.2l.09 1.07-.43.44-.42.66v.43l-.43 1.07-.2.66.31.21-.42.66-.43.98.11.43.11.98-.54.75-.11.64.11 1.09-.22.43.54.87-.11.75-.09.87.63.22.22.98-.22.21V64l.31.64.65.11.43.87.42.54.32.12.11.75.54.66.31-.12.97.44.2.75.96.11.86.55.85.43h.74l.65.32h1.91l.96.2 1.28.12h.01zm-7.47-17.97l-.32-.75.11-.35.12-.95.2-.66.42-.75.34-.55.63-.98.22-.52.21-.35.31-.63.54-.66.42-.64.86-.23.42-.75.54-.43.54.11 1.06-.78.31-.52 1.73-.86h.85l.74-.78.97-.09.62.09 1.4-.52 1.39.32 1.05.31.54.32.54.78.2.86-.2 1.07-.43.87-.54.75-.53.66-.54.55-.52.63-.65.44-.63.66-.65.54-1.05.75-.86.64-2.78 1.42-.74.22h-.76l-.43.32h-.63l-.54.32-.54.11-.74-.11-.42.23h-.86l-.53.2-.63-.2-.77-.12.01.01z"/><path id="_11" class="fil0 str0" d="M526.96 44.62l-.74-.12h-4.06l.42-1.41.65-1.73.32-.96.54-1.3.2-.66.54-1.29.42-1.19.65-1.09.52-.98.65-1.51.11-1.09-.54-.75-.22-.11-.63.11-1.08.43-.74.66-.2.44-.43.75-.42.98-.43 1.07-.22.43-.63 1.53-.11.63-.54 1.1-.32 1.18-.42 1.3-.34 1.18-.31 1.1-.43 1.18h-.96l-2.65-.2-.97.09-1.19-.09h-1.7l-3.08-.12.32-1.41.54-2.48.31-1.1.2-.75.11-.66.23-.75.31-1.07.12-.43v-.66l.08-1.19v-.66l-.2-1.07-.31-.54-.43-.55-.65-.09-.85-.12-.97.21h-.42l-.63.55-.65.43-.43.23-.63.52-.85 1.09-.85.87-.65.55-.63.75-.43.54-.42.64-.43.55-.65.86-.54.55v.64l.34.34.62.43.66-.23.94-1.18.96-.55.32-.75 1.5-1.52 1.28-1.19.74-.75.85-.23.54.32v.66l-.11.43-.09.76-.34 1.95-.31.75-.2 1.19-.23.87-.96 3.02-.11.44h-2.34l-.74-.21-.76-.32-.94-.34-.77.66.54 1.19.11.34.54.95.63.23 2.45.12h.53l-.53 2.05-.21 1.41-.42 1.3-.32 1.18-.22 1.09-.2.64-.23.87-.11.54-.43.98-.2 1.19-.22.66-.43 1.18-.09.98-.42.75.09.44.33.75.85.43 1.6-.32.42-.86.21-1.53.11-.43.22-1.3.2-.43.23-1.19.09-.98.43-.98.11-.75v-.2l.31-1.1.12-.43.33-.98.31-1.18.21-.75.42-1.74.65-1.2.74-.21 1.17-.11h.97l.96-.12h.97l1.48.12.85-.12 2.25.23h.85l-.43 1.73-.63 2.49-.22.43-.32 2.07-.31.96-.11.77-.12.96-.11.55-.2.75v2.62l.2.95.23.66.85.64 1.06.55.85.22 1.28.1 1.39-.32.22-.21.97-.43 1.05-.77.32-.76.76-.75.63-.75.43-1.09.42-.87-.96-.75-1.06.32-.85.98-.74.75-.34.55-1.39.98-.31.2-.43.11-1.05-.31-.34-.87-.2-.98.11-.87-.11-.77.11-.64.2-.75.11-.98.2-.43.34-.98.32-1.62.53-2.39.52-1.84.88-.09 1.05.09.74.11 1.62-.11 1.28.22.62-.43.43-1.18-.54-.46z"/><path id="_12" class="fil0 str0" d="M570.5 57.94l-.12-.55-.53-.11-.74-.12-1.08.12-.52.11-.85-.11-1.08.11-1.59.43-.11-1.52.42-1.94v-.66l.23-.32v-.66l-.11-.43.11-.2v-.32l.2-.44v-1.09l.22-.75-.11-1.09.2-.96.12-.98-.12-.75.12-.78-.12-.75v-1.09l.12-.21-.12-.54-.51-3.35.09-.86-.09-.98.2-.87v-.75l-.74-.77-.43-.21-.42-.55-1.51-.31-.74.31-.43 1.3-.22.23-.09.52.52.55v.66l-.43.98v.96l-.43.77v.21l.23.75-.32.66-.33.86-.2.87-.66.98-.2.75-.42.75-.12.23-.42.75-.11.55-.63 1.29-.32.87-.65.98-.22.64-.32.54-1.48 2.28-.85.55-.54.86-.31.44-.23.09-.31.34-.74.52-.97.78-.74.54-1.07.32-.65.32-.95.66-.96.21-.32.31h-.53l-.54-.31-.54-.12h-.94l-.65-.43-.97-.52-.74-.89-.85-.53-.65-1.52-.09-1.07-.12-.98-.11-.78.11-.52.21-.78.33-.86-.22-.75.11-.76.54-.97.09-.21.11-.55.11-.86.12-.32.08-.55.34-.77.63-.96.11-.77.43-.87.43-.63.22-.76.2-.54.32-.75.42-.55.23-.32.42-.89.74-.86.86-1.3.54-.64.96-.43.31-.32.97-.43.85-.35h.43l1.05-.09 2.25.96.74.23.65.64v.98l.11.75.2.43.74.77h.43l.43.21.54-.21.65.12.63-.89.33-.2.63-.87-.2-.86-.85-.12-.66-.75-.53-.55-.32-.54-.11-.64h-.96l-.52-.12-.23-.43-.53-.86h-.43l-1.17-.44-.43.12-.74-.12-.22-.54-.74-.21-.85.21h-1.39l-.86.11-1.05.66-.23.53-.85.11-.54.11v.75l-.85.23-.09.75h-.65l-.2.87-.85.64-.54.86-.43.44-.54.77-.11.52-.74.55-.23.55.12.75-.32.34-.31.52-.54.44.11.54-.76.32.11.66-.2.64-.54.87-.22 1.2-.09.44.09.31-.52.87-.23.55.12 1.07-.32.86-.43 1.09-.11.64v1.1l.54 1.29v.12l-.11.75.11.98.43 1.18.43.87.2.54.65.76.42.54.86.87h.74l.63.54.22.32.43.44 1.07.11h.74l.43.2.63-.09.22.21.75.32.96-.32.85-.43.86-.12.62-.09.54-.66 1.08-.2.43-.44.54-.23.51-.43.65-.32.43-.32.43-.54.85-.55.54-.55.42-.75.74-.43.21-.66.65-.64.31-.66.34-.55.51-.43.65-.75.21-.43.22-.55.43-.52.31-.55.23-.55.09-.43.42-.64.23-.86.2-.44.65-.86v-.77l.54-.55.31-.64.2-.75.43.95-.09.66v.99l-.43.86v.55l.09.32v.97l-.09 1.19.09.43-.09.32-.33.75-.09.23v.64l.2 1.2-.54.98.11.32-.31 1.07.11.66-.11 1.42-.31.63-1.19.23-.43.21-.85.11-.52.32-.97.54-.53.32-.43.23-.65.55-.74.2-.85.55-2.14 1.3-1.16.64-1.28.77-.43.2-1.19.78h-.63l-.96 1.3h-.63l-.34.43-.42.32-1.17.55-.97.95-.85.34-.31.53-.74.43-.43.66-.65.11-.43.32-.63.44-.53.75-.43.43-.97.34v.32l-.54.75-.94.32-.42 1.21-.65.2-.12.32-.96.43-.09.35-.54.63-.31.44-1.19.54-.52.55-.34.64-.31.77-.65.32-.43.55-.31.2-.85.66v.44l-.63.52-.54.23-.54.75-.54 1.09-.85.64-.09.23-.97.75-.65.87-.85.75-.11.43-.85.98-.32.11v.44l-.11.63-.52.55-.33.75-.52.78-.22.52-.97.77-.2.87-.11.32v.54l-.63.55-.23.32-.42.43v1.07l-.21.55-.33.32-.2.34-.23.64v.66l-.2.86-.34.55.34.53.11.97.2.23.43.75.22.87.32.54v.44l.96.43.32.64.85.34.32.32.74.11.85.32 1.07.43.63-.11.88.11.63.21h2.02l1.39-.32.74-.2h1.08l.42-.35h.74l.65-.43.43-.32.85-.43.32-.23.96-.43.54-.21.52-.11.76-.64.85-.54 1.06-.32.42-.55.86-.32.42-.43.86-.55.96-.54.74-.44.65-.75.54-.66 1.17-.75.85-1.18.74-.66.34-.55.85-.53.94-.86.43-.78.65-.75.54-.66.42-.52.86-.98.31-.43.85-1.1.97-1.93.63-.55.33-.55.52-.98.34-.2.42-.75.21-.87.31-.86.43-.23.42-.55-.09-.52.43-.98.43-.43.42-.98.32-.32.11-.87.11-.43.43-.77.2-.76.54-.54.63-1.39.42-.98.34-.55v-1.07l.31-.11.43-.78.2-.86.23-.75.2-.64.43-.98-.09-.55.51-1.07.23-.86.2-.78.34-1.3.31-.54.2-.96.23-.34v-.52l.53-1.85.63-.75 1.51-.66.63-.11h.76l.94-.32.76-.21 1.17-.23.54-.31zm-11.11 4.64l-.2 1.62-.32 1.21-.34.98-.42.43-.43.87.11 1.29-.11.64-.42.55v.75l-.52.98-.34.43-.31.64v1.53l-.32.75-.76.98-.31 1.18-.32.98-.65.98-.51.55.2.64-.97.86-.31.43.31.66-.51.44-.23.86-.54.43v.64l-.51.78-.34.64-.63.75-.11.43-.54.66-.52.86-.96.98-.34.55-.43.52-.2.44-.65.77-.31.53-.97.98-.31.66-.43.32-.63.63-.85.66-.54.55-.42.64-.77.77-.51.64-1.71 1.3-1.08 1.09-.96.32-.2.55-1.08.43-.52.55-.76.52-.63.11-.65.44-.63.32-.54.22-.96.64-.63.11-.65.55-.97.32h-.96l-.63.55h-.54l-.85.43h-.54l-.74-.23-.54-.2-.63.2-.74.23-.87-.43h-.74l-1.48-.76-.43-.77-.54-.52-.23-.87v-.98l.23-1.09v-.75l.31-1.19.54-.98.2-.22v-.96l.54-.55.23-.54.42-.87.09-.66.23-.2.74-1.1.11-.75.54-.75.31-.32.23-.55.31-.31.43-.35.11-.63.74-.32.63-.55.11-.66.32-.55.85-.75.76-.63.2-.55.54-.11.43-.76.74-.86.65-.55.54-.54.63-.96.85-.66.22-.43.43-.32.52-.55 1.07-.66.66-.52.42-.44.52-.86.22-.34 1.06-1.07.85-.66.65-.76h.43l.63-1.07.65-.23 1.5-1.09.52-.64.85-.31.34-.87.85-.77.85-.21.52-.43.85-.44.34-.54.85-.12.85-1.29.85-.09.32-.35 1.5-.63.94-.87 1.28-.66.77-.43.63-.32.74-.32.85-.34.45-.64.63.11 1.27-.97.54-.23.97-.21-.34 1.62.01-.01z"/><path id="_13" class="fil1 str1" d="M85.5 85.11l-.54.32-.54.22-.52.1-.76-.1-.74.32-1.05.12-.34-.23-.09-.11-1.08-.1-.74-.54-.96-.32-.23-.23-.31-.11-.97-1.07-.62-.12-.43-.98-.43-.52-.54-.55-.42-.77-.63-1.19-.23-.43-.31-.54-.31-1.19v-.98l-.23-.52-.31-.43v-.98l-.23-1.21.23-.87-.23-.86-.09-.64.21-.98-.12-.75v-.98l.34-.55-.11-.75.11-.86V64.2l.2-.64.11-.54.32-1.07.11-1.42v-.31l.43-.87.11-.66.2-.98.22-.75.09-.55.23-1.18.43-.55v-1.52l.2-1.08.33-.75.32-.54.11-.98.2-.44-.2-.43.2-.86.43-.76.22-.22-.11-1.39.2-.66.34-.12-.11-.75.42-.98-.22-.32.43-.43-.21-1.09.54-.21v-.98l.43-.63.11-.23.32-1.07.53-1.09.09-1.42.12-.63.42-1.1.54-1.41.32-1.39.53-1.53.21-.97.33-.55.32-.75.54-.98.09-.64.33-.98v-.75l.09-.43.34-1.1v-1.18l.09-.66v-.64l-.2-1.09v-.64l-.12-.77v-.76l-.2-.75-.65-1.29-.96-.87-1.17-.87-.97-.75-1.05-.34-.85-.2h-1.08l-1.17.11-1.08.32-.94.32-.76.23-1.17.2-.31.23-.85.2-.54.12-.74.63-.97.67-.74.31-.76.44-.63.43-.54.43-.85.55-.54.86-.74.32-.23.23-.42.55-.74.63-.54.76-.63.34-.54.64-.42.54-.75.64-.53.77-.43.44-.31.54-.34.44-.32.31-.42.76-.32.32-.31.43-.54.77-.54.87-.54.64-.74.97-.54 1.1-.31.52-.74.87-.43-.09.21-1.64.11-.87.11-.98.2-.64.11-.66.32-.95v-.44l.22-.86.12-.98.08-.11.12-.64v-1.21l.11-.75v-1.18l-.11-1.21.11-.44-.23-.63v-.87l-.2-.66v-.2l-.42-.98-.43-.75-.31-.98-.43-.55-.65-.2-.65-1.21-.52-.21-.22-.32-.86-.22-.62-.44h-.77l-.51.12-.54-.23-.65.11-.43.32-.63.23-.65.11-.85.21-1.17.66-.65.64-.63.43-.42.43-.65.55-.52.2-1.08 1.1-.42.32-.32.54-.65.55-.43.75-.96 1.18-1.06.78-.31.43-.76.87-.52.52-.11.23-1.08 1.3-.74 1.09-.43.64-.31.75-.11.11-1.08.87-.74 1.52-.54.76-.63.86-.54.55-.11.64-.42.66-.43.43-.43.64-.31.77-.32.96-.53.77-.63.75-.23.64-.11.66-.42.32-.32.87-.11.43-.43.86-.31.98-.32.32-.54-.09.21-.66-.21-.98v-.52l.12-.46v-.75l.2-.75.22-1.09v-1.07l.32-.75.54-.87.31-.98.11-.87v-.86l.12-.43.31-.44.2-.77.23-.64v-.98l.2-.43.22-.75.11-.87.32-.66.31-.09.11-.77.12-.87-.12-.55.21-.63.42-.12.11-.98.23-.43.09-.87-.09-1.07.09-.22.22-.87v-.43l.12-.43-.43-1.07.2-.44-.2-.43-.54-1.64.31-.52-.31-.78.2-.75-.42-.32-.95-.98v-.22l-.33-.44-.63-.2-.97-.66-.74-.32-.65-.12-1.16.66h-.86l-.31.32-.54.23-.65.43-.43.1-.74.97-.54.44-.53.32-.32.66v.31l-.85.44-.32.43-.11.87-1.05.43-.43.66-.34.64-.42.43-.32.98v.54l-.54.44-.74.43-.22.11-.2.76-.65.75v.66l-.32.43-.42.12-.21.43-.65 1.5-.11.55-.63.22-.65.53.11.77-.31.87-.11.32-.85.54-.54.64-.09.66-.34.43v.53l-.52.34v1.07l-.45.55-.51.66-.43.86-.33.75.22.44-.65 1.3.43.2.11.34v.53l.11.66 1.05.32.54.31h.65l1.17.23.32-.23.53-.2v-1.09l.12-.64-.54-.55v-.63l-.11-.23.22-.32-.11-.75.22-.87-.11-.43.11-.89.52-.21.54-.31-.32-.55.32-.98.31-.32.65-1.3v-.54l.32-.32.31-.87.34-.66.2-.32v-1.3l.65-.54v-.64l.09.09.65-.32.43-.75.54-.86.42-.76.74-.22-.2-.55.2-.64.43-.66.22-.2.21-.55.65-.43.62-1.1.75-.63.11-.44.54-.54.62-.32.34-.55.85-.32.32-.32.65-.98.2-.22.65-.21.74-.23.2-.2h.97l.96.09.32.55.43.66-.43.43.65.75-.31.66.2 1.39-.32.55-.22.43.22.98-.31.98-.11.43.42.53-.22.11-.2 1.21v.43l-.65.52.11.55.11.75v.23l-.43.86-.11.44v1.18l-.22.43-.32.55-.2.98v.87l-.11.43-.11.32-.32.86-.11.66v.87h-.11l-.09.75-.11.66-.32 1.07-.22.55.11.63-.23.44v.86h.12l-.32.66-.11.87-.2.64v1.09l-.76 1.53-.12.52v.43l.12.87-.43.77-.43.44.12.95-.12.66.12.75-.54.98-.21.55.32 1.07v.66l-.65.87-.32.31.65.98-.11.55-.65.96-.09.77.2.75-.31.55v.2l-.31.66-.43.76.43.66-.54.75-.12.32.32.77v1.39l-.43 1.09-.2.44.31.98-.74.63.21.66-.52.96-.34.98.12.34v.64l-.12.66-.31 1.07.11.32-.22.66-.52.55-.11.75.43.54.11.64-.43.66.2.44-.31.97.43.53.74.66.42.32.65.11h.43l.85.21.85-.21.63-.66.43-.96.22-.45-.33-.75.22-1.3.11-.98.21-.87.11-.75.54-.75-.12-.66.23-.64.09-.43v-.86l.34-.98v-1.1l.08-.63-.08-.12.08-.43.23-.43.11-.64.09-.78v-.52l.11-.43.23-.78-.11-.75.42-.54.32-.87-.12-.75-.09-.55-.11-.64.54-.77.31-.87-.11-.86v-.55l.32-1.07.22-.66.43-1.73.11-.52.43-.55.54-1.64.42-.96.09-1.2.65-.76.2-1.07 1.08-2.16.11-.66.32-.43.31-.87.23-.54.31-.32.31-.44.32-.66.22-.75.43-.75.31-.87.43-.66.31-.31.54-.76.54-.86.65-.78.43-.31.31-.76.32-.32.42-.77.54-.64.63-.75.34-.43.2-.43.74-.66.65-.64.2-.44.54-.77v-.2l.54-.78.2-.09.45-.34.32-.43.62-.64.54-.43.43-.76.65-.34.31-.54.43-.44.54-.64.85-.31.63-.87.85-.66.74-.11.54-.44 1.08-.31.74-.44 1.08-.11.85.11.74.23.31.09.43.55.32.43.53.43.32.66.11.87.43 1.18-.32.44.32.86-.32.98v.43l-.11.21.11.55-.22.54.22 1.09-.31.32-.23.76-.31.86v.11l.31.87-.42.75v.43l-.11.66-.21.76-.22.98-.2.75v.98l-.12.43-.42.86-.11.76-.43 1.09-.31.52v.78l-.74 1.3.2.43-.2.98v.86l-.54.96v.77l-.54.44.11.63-.11.55-.2.64.11.77-.34.44-.63 1.73-.11.43-.43.98v1.07l-.31.66-.11.75-.23.87-.09.32-.11.66-.22.75v.43l-.21.75.12.43-.12.35-.42.86-.23 1.19v.32l-.31.65v.55l-.2.87-.34.75-.2.75.11.32-.11.77-.23.64-.2 1.19v1.29l-.42.55.2.87-.2.66.2.63-.2.78-.12.64.12.22-.23.96-.31 1.09.11 1.19-.22.54v.98l.11.64-.11.87.42.22.43.55.65.87h.96l.43-.66.63-.64.31-1.1-.31-.86.11-.11.31-.76.12-1.18-.23-.66.34-.75.31-.55-.22-.64.22-.77-.11-.87.43-.63-.09-.55.09-1.09.65-1.73v-.87l-.11-.64.54-1.09.2-.64.22-.75-.31-.87.31-.54.54-.66.09-.87-.31-.32.42-.54-.11-1.07.54-.78-.11-.86.33-.98.09-.53.43-.66.11-.75.11-.66.12-.86.31-.64.11-.55.09-.86.23-.21.42-.66-.11-.32v-.54l.32-.67v-.52l.33-.77.43-.87.31-1.18.2-.75.43-.67.22-.86.43-.87.43-.43.42-.75.54-.55.43-.54.43-.64.42-.75.43-.43.31-.78.54-.52.43-.87.54-.77 1.05-1.3.54-.87.54-.75.42-.43.63-.98.54-.55.65-.75.74-.86.54-.87.43-.66 1.05-.96.65-.77.86-.75.74-.44.85-.75.85-.32.43-.45.74-.32.22-.32.86-.43.54-.44.2-.11.85-.2.76-.44 1.06-.54.96-.32.86-.11.96-.12.74-.2.63.09 1.39.54.85.87.54.66.32.52.11.55.22 1.3.09.98-.09.86-.22 1.53-.11.86-.09.55-.43.64-.11.54-.32.64-.22.34.11.64-.11.55-.31.54-.23.44-.31 1.5-.32.78-.22 1.07-.32.31-.42.66.11 1.07-.34.99-.62.86-.32 1.53-.11.86-.43.21v1.09l-.31.43-.11.32-.12.66-.42 1.3-.12.96-.09.66-.42.98v.52l-.43.66-.33.87-.32 1.41.11.98-.31.63v.44l-.54.66v1.18l.11.55-.53.64.2.43-.09.98-.23.54-.2.44-.22.32v1.3l-.32.31-.22.89.11 1.3-.11.52-.43.98.11.55v.64l-.31.34-.11.86.11.64-.11.43-.32.87v1.09l.09.98-.09.64-.11.32.11.77v.87l-.22 1.18.11.87.2.75v.98l-.09.55.21.43v.86l.42.64.32.87.11.66v1.18l.42.55.43.64.23 1.2.31.12.43.52.22.43.43.66.42.32.43.66.63.32.31.21.85.43.34.23.43.43.51.32.23.11.42.44.97.43.85.32.97.11.85.32h.43l.42.11.74-.22h.63l.97-.21.74-.23 1.07-.2.54-.87v-.75z"/><path id="_14" class="fil1 str1" d="M119 60.53l-.96.32-.54.55-.74.2-.74.35-.76.2-.52.23-.76.09-.43.11-.94.12-.34-.12-1.05-.11-.54-.32-.86-.43-.11-.11-.63-.53-.11-.66-.54-.64.11-.86-.31-.98v-.34l.09-.87v-1.07l-.31-1.18.22-.44v-.66l.52-.98-.2-.54.11-1.3.63-.87-.11-.95.42-.87.11-.54.54-.76v-.77l.2-.43v-.75l.54-.76.23-.98-.11-.66.62-.63.43-.87V39.1l.34-.54v-.44l.54-.86.2-.55.31-.75.54-.86-.2-.55-.11-.23.31-.64-.43-.54-.31-.44-.74.23-.76-.43h-.74l-1.17.2-.34-.11-.63.11-.74-.75-.65-.23-.74-.86-.85-.21-1.39.12-.65-.34-1.6.11-.85-.21-1.39.44h-.52l-.33.43-.52.09-.54.43-.74.35-.22.52-.74.34-.54.64-1.08.55-.43.54v.44l-.94.43-.11.64-.65.54-.43.44-.74.54.2.55-.62.43-.54.75-.43.44-.11.43-.2.21-.23.66-.52.2-.42.77v.53l-.34.23-.31.54-.43.87-.2.32-.34.32-.31.66-.2.98-.65.52.31.77v.44l-.52.63-.33.55-.21.55-.11.32V51l-.11.34-.11.75-.2.2-.32.44.43.98-.34.34v.75l.12.86-.12.55.12.64.11.54.31.66v.64l.65.98.2.75.43.55.34.64.51.66.77.64h.31l1.17.43h.65l.2.11 1.39.23.85-.11.65-.44h.32l.63-.54.42-.21 1.28-.43.43-.43 1.08-.87 1.16-.77.43-.64.54-.43.54-.66.54-.76.31-.54.11-.21.63-.86.43-.66.31-.55.65-.75.63-.87.76-1.09.21-.75.76-1.07h.51l-.09 1.18-.11.98.11.87-.11.86-.31.55.31.52-.11.78-.31.64.54.43-.12.75v.78l.43.75-.22.98.53.75.43.86.43.55.74.64.65.54 1.05.55.34.12 1.06.43.53-.12.74.21.77-.09 1.05-.34h.65l.86-.53.74-.11.42-.23.86-.21.42-.31.63-.34.85-.53.54-.43-.2-.78-.85-.2-.01-.01zm-10.34-24.68l-.11.63-.12.98v.32l.12.34-.32.44-.42 1.07.09 1.09-.95 1.3.09.55V43l-.62.32-.43.63-.11.44-.32.43-.22.55-.43.86-.54.66-.2.32-.43.98-.11.21-.2.54-.76.75-.09.35-.43.31-.11.32-.32.75-.65.66-.42.76-.54.66-.52.86-.42.32-.23.66-.43.52-.74.78-.53.86-.66.64-.94.78-.65.52-.54.55-1.48.66-.76.43-.94.21-1.28-.55-.77-.32-.42-1.07-.74-.43.11-.87-.11-.77-.43-.64.11-1.1V55l-.11-.64.31-.43.23-.87-.23-.23v-.63l.43-.98-.09-.32.31-.78.21-.63.33-.66.43-.64.09-.43v-.66l.11-.53.43-.43.65-.78.2-.75.74-.98.34-.43.74-.55-.23-.52.54-.55.23-.75.63-.43v-.55l.96-.98v-.2l.43-.55.74-.55.42-.66.34-.32.54-.31.31-.32.74-.44.86-.77.53-.64h.63l1.08-.54h.74l1.51-.21 1.05.21.43-.12.85.34.96.53.43.34.74.52.34.66v.01z"/><path id="_15" class="fil1 str1" d="M171.7 71.15h-.54l-.94.95-.34.12-.63.54-1.28.55-.54.21-.96-.1-.85.1-.63-.44-.65-.32-.54-1.09-.43-1.3.11-.75-.11-1.62.23-1.09.2-.64.11-2.27.32-.76.33-1.41v-.98l.43-1.3.2-.43.22-.64v-1.09l.43-.98.32-1.5.53-1.64.63-.75v-1.41l.65-.44.32-1.07.11-.86.09-.55.34-.55v-.54l.62-.96.12-.89.53-1.61.12-.76v-.98l-.23-.86-.2-.75-.34-.75-.31-.23-.54-.55-.63-.2-.85-.44h-1.08l-.85.12-1.28.63-.31.12-.54.32-.63.55-1.08.86-.85.75-.65.66-1.28 1.51-.63.86-.54.66-.85 1.07-.43.78-.63.75-.53.54-.54.76-.74.98-1.19 1.18-.86.64v-1.07l.23-.87.2-1.09.34-1.39.85-2.94.09-1.07.23-.86.11-.98v-.44l.09-.86-.2-1.19-.97-1.09-1.82-.32-1.37.32-.65.23-.63.52-.65.34-.74.76-1.28 1.18-.65.75-.85.78-.43.63-.96.98-.43.55-.96 1.3-.86.75-.74.86-1.28 1.42.32-1.74.22-1.18v-.66l.32-1.18v-1.96l-.11-.98-.21-1.3-.74-.96-.54-.86-1.27-.46-.97-.09h-.54l-.85.09-1.48.46-.54.75-.54.11-.11.44h-.2l-.54.52-.43.11-.2.55-.34.21-.63.77-.42.52-.32.66-.42.55-.65.87-.54.52v.66l.42.32.65.43.63-.2.86-1.21.96-.52.31-.78 1.4-1.5 1.27-1.19.23-.22 1.17-.55.96.34.54.53.2.97v1.53l-.11.87-.2 1.41-.32 1.5v.66l-.33 1.19-.2.54-.43 1.19-.11.86-.43.64-.22.77-.21.98-.54 1.19-.31.64-.31.54-.12.66-.22.64-.31.55-.21.43-.76 2.28-.2.54-.11.76-.43 1.18-.54.86-.09.44-.11.77-.22.64-.32.66-.31.96v.98l.11.86.43.55.51.64 1.19-.1.63-.34.43-.86.31-1.07.54-.75.11-.66.43-.98.11-.87.09-1.18.43-.66.22-.87v-.43l.31-.53.23-.77.2-.87.32-.75.33-.64.2-.34.43-.98.97-2.68.53-.78.54-.43.32-.75.74-.87.54-.66.31-.32.97-1.07.53-.66 1.71-1.84.31-.44.65-.63.32-.44.43-.54 2.35-2.6 1.37-1.09h1.28l.54.54.11.98-.65 1.85-.43 1.41-.31 1.3-.32 1.5-.31 1.41-.22.44-.21.98-.42.95-.43 1.21.2.75-.54.87.12.54-.43.55.2.75-.2.75-.31.44.2.86-.2.34-.43 1.3v.53l-.11.43-.32.66v.75l-.22.98-.2.86-.11.98.11.76-.11.43-.23.75v1.09l.43.98.96.32h.54l.54-.43.43-.44.2-.66.54-1.18.11-.75v-1.19l.11-.43.31-.66v-.75l.43-1.09.43-1.41-.11-.76.42-1.07.85-1.52.12-.66.42-1.07.32-.55.54-.43.2-.76.76-.75.52-.66.33-.43.86-1.18.42-.44.63-1.09.65-.87.54-.43.2-.43.43-.43.65-.87.43-.43.63-.98.85-.75 1.7-1.96 1.19-.96 1.17-.54 1.05.11.86.52.42 1.1-.42 1.93-.74 1.85-.43 1.2-.96 2.17-.21.75-.54 1.5-.11.66v.44l-.63.97v.87l-.11.64-.42.86-.12.55-.31.87-.11.54-.32 1.1-.22.63v1.19l-.43 2.82-.09.98-.22.64-.11.86.11 1.42-.11 1.41.42.86.11.87.74 1.73 1.4 1.41 1.7.43.54-.11h1.17l1.28-.2.76-.12 1.05-.43.54-.43.43-.44.65-.43.74-1.73z"/><path id="_16" class="fil1 str1" d="M189.09 32.16l1.48-1.73.65.11h.54l.63.11.43.44v.98l-.32.86-.54 1.07-.53.75-.21.35-.42.43-.54.95-.85.98-.75 1.3-.42.78-.85 1.07-.32.32-.42.86-.34.98-.43.66-.2.21-.43.86-.22 1.09-.54.44-.09.54-.85 1.3v1.07l-.23.32-.31.34-.31 1.07-.34.44-.2.75-.32.86-.34.66v.44l-.2.31v.55l-.22.87v2.5l.42.75v.75l.23.44.43.54.54.32.42.32.63.44.97.11.96-.11.54-.21.51-.11.34-.32.63-.12 1.17-.86h.42l.54-.64.54-.34.43-.32.74-.55.42-.54.43-.32.43-.12.53-.63.43-.44.65-.54.52-.64.76-.78v-.2l.2-.43.54-.23.54-.87.63-.63-.09-.55.63-.43.11-.55.54-.64.42-.98v-.86l.32-.87-.23-.66-.31-.86-.43-.75-.42-.32-.86-.35h-.31l-.85-.09h-1.28l-.65.32-.74.21-1.08.86-.63.34-.65.64-.63.55-.54.66-.22.64.43.43-.09.75-.23.78-.54.2-.74-.2-.85-.23-.74-.55.11-.64-.22-.66v-.64l.42-.86.12-.32.53-.55.43-.54.52-.43.42-.55.43-.32.65-.32.74-.43 1.28-.43.76-.35h1.71l.85-.09 1.06.09h.22l.97.23.51.32 1.08.43.43.66.74.44.22.75.52.66.22.52-.11.34.22.64v.43l-.22.32-.11.78v.75l-.32.55-.54 1.29-.2.87-.54.64-1.05 1.09-.23.43-.53.64-.21.87-.74.43-.76.86-.54.44-.2.45-.85.64-.43.11-.65.87-.74.2-.32.35-.53.63-.43.23-.74.21-.34.32-.63.43-.96.43-1.17.55-.74.22h-.85l-1.19.1-.54-.1-.31.21-1.4-.43-.31-.21-1.17-.34-.96-.75-.43-.32-.74-1.09-.11-.96-.2-.43-.12-.98-.31-.34v-.64l.2-.55-.42-.54v-.76l-.11-.63.53-.66-.42-.55.74-.75-.09-.32.31-.87-.31-.43.51-.43.23-.98.42-.43.21-.55.22-.64.43-.86.31-.55.11-.75.32-.46.42-.63.23-.67v-.52l.31-.11.32-.66.31-.53v-.54l.65-.32.11-.55v-.23l.63-.75.34-.43.63-1.3.54-.98.74-1.18v-.23l.54-.87.62-.86.34-.64.2-.32z"/><path id="_17" class="fil1 str1" d="M207.34 64.31l1.16-.31 1.08-.32.63-.12.74-.31.65-.12.85-.66 1.08-.43.94-.87.65-.52.74-.55.65-.54.95-.32.65-.66.63-.53.96-.88.34-.44.94-1.07 1.19-.98.63-.98.65-.54 1.59-1.94h.32l-.54 2.6-.2 1.29-.12 1.74-.11.86.23 1.09.31.98v.53l.31.77 1.19.75.32.64.65.11.74.32 1.48-.09.76-.23h.86l3.18-1.5 1.28-1.73.54-.55-.31-1.09-.86.11-.85.75-.96.78-.54.32-.86.55-1.39.52-1.48.11-1.16-.63-.77-1.21v-.87l-.2-.98-.11-1.07.22-1.18.2-.66.12-1.3.11-1.18.52-1.1.11-.75.22-.86.43-1.3.63-1.3.31-1.21.43-.86.33-.87.32-1.18.63-1.94.53-.77.23-.44.2-.63.23-.78.63-1.07-.12-.86.54-.66.65-.96.32-.43-.23-.66-.52-1.07-.53-.55-.65-.32-.86.32-1.05-.66-.65-.53-.63-.45-1.08-.21-1.17-.54-.65.11-.74.21-.74-.21-.74.43-.42-.22-.54.22-.65.12-.86.64-.85.34-1.05.64-.54.43-.74.66-.34.75-.74.2-.2.67-.85.43-.23 1.18-.54.32-.85.43-.31.35-.12.86-.2.75-.85.43-.31.32.31 1.1-.74.54v1.3l-.54.96.11 1.3-.42.54.42.66-.33.98.33.87.2.43.43.43.32.96.85.43 1.08.34.74.44h.85l.96.2h.86l.42.12 1.08-.12 1.37-.43.96-.32v.21l-.42.86-.97.78-.43.63-.62.75-.65.55-.63.78-.85.63-.23.44-.63.66-1.08.75-.85.54-.54.64-.74.34-.96.76-.32.43-.85.43-.74.44-.65.43-1.17.54-1.16.21-.77.11h-1.05l-1.19-.11-.85-.21-.86-.54-1.05.43v1.3l.74.98 1.93.64h2.56v-.01zm12.79-15.37l-2.02-.11-1.08-.32-1.05-.55-.74-.75-.43-1.5.09-1.09-.09-.76.31-1.29.2-.98.43-.66.85-1.51.77-1.29.51-.35 1.19-1.61.54-.44.32-.43.62-.64 1.08-.66 1.06-.54.65-.53.74-.23 1.28-.2 1.07-.43h.43l1.28.2 1.28.98.63.75.22 1.19-.42 1.09-.32 1.3-.43 1.29-.64 1.53-.32 1.39-.96 1.96-.32.86-.42 1.19-1.08.98-.63.54-1.19.64-1.17.34-2.24.64z"/><path id="_18" class="fil1 str1" d="M269.52 44.62l-.74-.12h-4.06l.43-1.41.65-1.73.31-.96.54-1.3.23-.66.51-1.29.43-1.19.65-1.09.54-.98.63-1.51.11-1.09-.54-.75-.2-.11-.65.11-1.08.43-.74.66-.2.44-.43.75-.43.98-.42 1.07-.23.43-.63 1.53-.11.63-.54 1.1-.31 1.18-.43 1.3-.31 1.18-.34 1.1-.42 1.18h-.97l-2.65-.2-.96.09-1.17-.09h-1.7l-3.1-.12.31-1.41.54-2.48.32-1.1.2-.75.11-.66.22-.75.32-1.07.11-.43v-.66l.09-1.19v-.66l-.2-1.07-.32-.54-.42-.55-.65-.09-.86-.12-.96.21h-.43l-.63.55-.65.43-.42.23-.63.52-.85 1.09-.86.87-.65.55-.63.75-.42.54-.43.64-.42.55-.66.86-.54.55v.64l.34.34.63.43.65-.23.94-1.18.97-.55.31-.75 1.51-1.52 1.28-1.19.74-.75.85-.23.54.32v.66l-.11.43-.09.76-.34 1.95-.31.75-.21 1.19-.22.87-.97 3.02-.09.44h-2.35l-.74-.21-.77-.32-.94-.34-.76.66.54 1.19.11.34.54.95.63.23 2.46.12h.52l-.52 2.05-.22 1.41-.43 1.3-.31 1.18-.23 1.09-.2.64-.22.87-.11.54-.43.98-.2 1.19-.23.66-.42 1.18-.09.98-.43.75.09.44.34.75.85.43 1.59-.32.43-.86.22-1.53.09-.43.23-1.3.2-.43.22-1.19.12-.98.42-.98.09-.75v-.2l.34-1.1.09-.43.34-.98.31-1.18.2-.75.43-1.74.65-1.2.74-.21 1.17-.11h.96l.97-.12h.96l1.48.12.86-.12 2.24.23h.85l-.42 1.73-.63 2.49-.23.43-.31 2.07-.31.96-.12.77-.11.96-.11.55-.2.75v2.62l.2.95.22.66.86.64 1.05.55.88.22 1.28.1 1.36-.32.23-.21.96-.43 1.06-.77.34-.76.74-.75.63-.75.42-1.09.43-.87-.97-.75-1.05.32-.85.98-.75.75-.33.55-1.37.98-.34.2-.42.11-1.06-.31-.31-.87-.23-.98.11-.87-.11-.77.11-.64.21-.75.11-.98.22-.43.32-.98.31-1.62.54-2.39.54-1.84.85-.09 1.06.09.76.11 1.59-.11 1.28.22.63-.43.43-1.18-.52-.46z"/><path id="_19" class="fil1 str1" d="M311.36 60.53l-.97.32-.54.55-.74.2-.74.35-.76.2-.52.23-.76.09-.43.11-.94.12-.34-.12-1.05-.11-.54-.32-.85-.43-.12-.11-.62-.53-.12-.66-.54-.64.12-.86-.32-.98v-.34l.09-.87v-1.07l-.31-1.18.22-.44v-.66l.52-.98-.2-.54.11-1.3.63-.87-.11-.95.42-.87.11-.54.54-.76v-.77l.21-.43v-.75l.53-.76.23-.98-.11-.66.65-.63.42-.87V39.1l.32-.54v-.44l.54-.86.2-.55.31-.75.54-.86-.2-.55-.11-.23.31-.64-.43-.54-.31-.44-.74.23-.76-.43h-.74l-1.17.2-.34-.11-.63.11-.74-.75-.65-.23-.74-.86-.85-.21-1.39.12-.63-.34-1.62.11-.85-.21-1.39.44h-.52l-.33.43-.52.09-.54.43-.74.35-.22.52-.74.34-.54.64-1.08.55-.42.54v.44l-.95.43-.11.64-.65.54-.43.44-.74.54.23.55-.65.43-.54.75-.43.44-.11.43-.2.21-.23.66-.51.2-.43.77v.53l-.34.23-.31.54-.43.87-.2.32-.34.32-.31.66-.2.98-.65.52.31.77v.44l-.52.63-.33.55-.2.55-.12.32V51l-.11.34-.09.75-.22.2-.32.44.43.98-.31.34v.75l.09.86-.09.55.09.64.11.54.31.66v.64l.65.98.2.75.43.55.34.64.51.66.77.64h.31l1.17.43h.65l.2.11 1.39.23.86-.11.65-.44h.31l.63-.54.43-.21 1.27-.43.45-.43 1.06-.87 1.16-.77.43-.64.54-.43.54-.66.54-.76.31-.54.11-.21.63-.86.43-.66.31-.55.65-.75.63-.87.76-1.09.21-.75.76-1.07h.52l-.09 1.18-.12.98.12.87-.12.86-.31.55.31.52-.11.78-.31.64.54.43-.11.75v.78l.42.75-.22.98.54.75.42.86.43.55.74.64.65.54 1.06.55.33.12 1.06.43.54-.12.74.21.76-.09 1.05-.34h.66l.85-.53.74-.11.42-.23.86-.21.42-.31.63-.34.88-.53.51-.43-.2-.78-.85-.2v-.01zm-10.35-24.68l-.11.63-.11.98v.32l.11.34-.31.44-.43 1.07.09 1.09-.94 1.3.09.55V43l-.63.32-.43.63-.11.44-.32.43-.22.55-.43.86-.51.66-.23.32-.43.98-.11.21-.2.54-.76.75-.09.35-.43.31-.11.32-.32.75-.64.66-.43.76-.54.66-.52.86-.42.32-.23.66-.43.52-.74.78-.53.86-.63.64-.97.78-.65.52-.54.55-1.48.66-.74.43-.96.21-1.28-.55-.77-.32-.42-1.07-.74-.43.11-.87-.11-.77-.43-.64.11-1.1V55l-.11-.64.31-.43.23-.87-.23-.23v-.63l.43-.98-.09-.32.31-.78.21-.63.33-.66.43-.64.09-.43v-.66l.11-.53.43-.43.65-.78.2-.75.76-.98.32-.43.74-.55-.2-.52.51-.55.23-.75.63-.43v-.55l.96-.98v-.2l.43-.55.76-.55.43-.66.31-.32.54-.31.31-.32.74-.44.86-.77.54-.64h.62l1.08-.54h.74l1.51-.21 1.05.21.43-.12.85.34.97.53.42.34.74.52.34.66v.01z"/><path id="_20" class="fil1 str1" d="M382.41 58.37v-.66l-.76-.32-.86.21-.09.54-.42.55v.98l-.34.32v.75l-.52.66-.42.75-.54.75-.32.12-.22.43-.32.75-.74.23-.22.75-.43.23-.42.54-.23.21-.51.32-.54.66-.74.55-1.28.75-1.08.54-.63.64-.85.43-.85.12-.65.64-.74.54-.65.23-.75.21-.65.22-.74.21-1.05.43-.97.32-.42.11-1.17.23-.43.21-.44.11-.86.11h-.51l-.65-.11h-1.06l-1.08.11h-2.33l-.65.12H352l-1.28-.12-.74-.22-.43-.1h-.87l-.43-.11-1.05-.34-2.14-.87-.65-.43-.74-.09-.54-.66-.85-.75-.31-.23-.86-.64-.22-.32-.52-.34-.42-.95-.43-.55v-.32l-.54-.55.2-.54-.31-.44-.31-1.09-.32-.09.2-1.09-.2-.64.43-.66-.23-.21v-.66l.23-.63.09-.78.22-.43.32-1.51.22-.34.43-.52.31-1.09.43-.55.54-.87.31-.31.32-.55 1.27-1.62 1.19-.75.21-.34.85-.75.11-.32.74-.43.23-.12.62-.2.54-.78.63-.32.76-.63.63-.78.77-.32.42-.43.32-.11.96-.44.85-.86 1.06-.55.76-.43 1.17-.52.96-.67.63-.2 1.17-.77.85-.64 1.3-.55 1.06-.75.96-.75 1.06-.55.76-.54.63-.44.96-.86.97-.55.94-.64.54-.77.76-.44 2.14-1.73.85-.75 1.05-.75.97-.86.85-.98 1.08-1.1.94-.86 1.5-2.26.54-.98v-.43l.63-.86.23-.44.51-.98v-.66l.43-.63.22-1.1.32-1.3.31-.54v-2.69l-.2-1.09v-.75l-.54-.87v-.43l-.96-.78-.63-.32-.43-.97-1.08-.64-.63-.12-.31-.54-1.82-.96h-1.19l-.85-.11-.74-.32-.96.2h-1.6l-1.39-.11-.74.34-1.28-.11-1.93.32-2.45.54-1.7.43-1.08.55-1.16.32-1.71.75-.31.32-.74.34-.54.53-1.17.43-.76.45-.54.32-.74.64-.63.98-1.08.66v.21l-.43.43-1.07.66-.09.52-.54.23-.74.86-.65.87-.54 1.41.11.44-.11.98.11.43-.2 1.07.43.54.2.44.74 1.18 1.08.23.31.32 1.62.66h1.37l1.18-.55.21-1.09-.54-.98-.52-.64-.33-.23-.86-.63-.31-.98v-1.3l.65-.98.63-.75.85-1.1.85-.75.65-.63.54-.66.43-.21.85-.55 2.22-1.29 1.51-.55.96-.66 1.28-.43 1.39-.44 1.37-.52 1.19-.11 1.48-.32 1.19-.12 1.48-.22h3.3l1.39.34.74.32.88.31.74.66.54.64.51.78.65.95.32 1.1.11 1.18-.22.87v.54l-.09.21-.43 1.2-.11 1.07-.43.87-.65 1.09-.42.64-.52 1.21-.76.86-.74.76-.54.75-.63.66-.77.86-1.48 1.51-.96.77-1.28 1.07-1.28 1.21-.85.64-.43.43-1.28.86-.96.87-.97.75-1.37.98-1.19.66-.53.32-.52.55-.76.2-.32.23-.96.52-.95.66-.76.32-.63.43-.74.44-.65.34-1.08.43-.85.64-1.17.66-.62.2-.66.76-.42.11-.85.32-.54.55-.86.11-.85 1.07-.96-.09-.09.32-.77.54-.42.32-.2.44-.97.11-.31.86-.12.44-.74-.12-.42.55-.54.64-.43.43-.42.55-.32.66-.76.43-.52.87-.76.75-.52 1.18-.33.78-.32.31-.31.64.11.87-.43.43-.11 1.21-.22.11-.2 1.5-.32 1.3.09.44v.75l.11.54.54.66-.22.64.76.43v1.21l.74.64-.11.75.85.34V68l.74.98v.21l.43.43.76.55 1.17 1.18.65.44.63.31.42.55.65.43.63.34.74.32.54.12.32.2.76.23.43.2 1.16.23.54.32h.74l.85.21.32.11.76.23.74.09.63.11.76.12.86.11h1.9l.66-.11 1.16.2.74-.2.54.11h.32l.65.21.63-.12.64-.43.86.11.42-.32.66-.22.85.11 1.48-.43.65-.21.52-.23.85-.2.54-.55 1.19-.32.31-.54.63-.23h.85l.43-.32.85-.32.34-.54.85-.12.52-.86.65-.55.74-.43.85-.32.65-.43.97-.98.42-.64.74-.75 1.06-1.32.11-.32.43-.21.42-.77.23-.96.31-.77.21-.43.53-.76v-.43l.32-1.3z"/><path id="_21" class="fil1 str1" d="M394.57 63.68l.85-.23 1.06-.32.65-.23h.43l.09-.95.65-.78.85-.43.31-.96.34-.66 1.71-1.73.62-.86.43-.75.85-.99.66-.75.53-.54.43-.55.52-.66.96-1.07.54-.98v.55l-.11.86-.32 1.19v.66l-.31 1.93.2.78.11 1.07-.22.86.11 1.21.11 1.5.54.87.52 1.09 1.28.32 1.28.21.76-.21 1.17-.55.85-1.18.96-1.18.86-1.1.42-.86.74-.76.86-1.2.74-.87.45-.64.74-.66.85-.75-.23 1.53v1.07l-.09 1.18.09 1.21-.2 1.18.2.98.12.98.22.32 1.6 1.62.53.23.63-.12.43.12 1.5-.66 1.59-.64.75-.43.96-.55.54-.75 1.91-1.73.33-.66-.53-.76-.74.64-.54.23-.65.32-.95.55-1.28.63-.76.23-1.17.32-1.16-.11-.65-.87v-1.5l.22-1.09.31-.55-.11-1.07.54-1.19.11-1.2.63-1.73.65-1.3.43-1.41.31-.64.21-.55.33-.75.43-.87.42-1.2.43-.96.11-1.21.32-.32.85-2.59v-.64l.74-1.32.43-1.07.54-1.3.42-.43.2-1.53.54-1.5-.31-.43-1.17-.55h-1.7l-.43.87-.23.66-.31.86-.31 1.39-.43.43v.98l-.34.87-.62.43.09.43-.52.98v.75l-.76.87v1.3l-.21.54-.53.44-.12.98-.42.75v.55l-1.06 2.16-.22.86-.2.76-.66.77-.74 1.07-.63.87-.96.75-1.61 1.64-.63.75-.32.54-.54.21-.65 1.09-.51.87-.54.54-.32.64-1.28 1.3-1.39.66-.54-.32-.11-.86-.2-.55.31-2.16-.11-.78-.11-.64.22-.54v-.75l.32-1.1v-.86l.22-.64.2-.55-.08-.86.42-.98.32-1.41v-.75l.42-.87.2-.66.34-.87.09-.95v-.66l.43-.87.22-.32.32-1.18.53-.78.21-1.73.42-1.18v-.87l.77-1.09.09-.32.22-.98.31-.86.23-.44-.34-.75-.42-.43h-.32l-1.28-.2-.96.52-.09.43-.43.98-.65.98.11.32v.66l-.65.75-.2.64-.31 1.64-.45.75v.86l-.32.67-.31 1.18-.11.32v.43l-.74 1.19-.32 1.29-.34.23-.09.87-.42.66-.43.86-.65.87-.43.64-.31.54-.43.55-.65.75-.62 1.07-1.51 1.53-.74.98-.85 1.07-.65.66-.43.86-.52.64-.65.66-.42.66-.86.64-.65.86-.74.55-.74.21-.42-.53-.23-.43-.09-1.41.43-2.07.31-1.19.2-.98.23-1.18.54-1.62.63-1.3.11-.86v-.66l.74-1.51v-.54l.43-.66v-.55l-.12-.64.12-.75.65-1.21.11-.63.51-.87.12-.75v-1.21l.65-.75.2-1.18v-.87l.11-.66.11-.43.52-.75.22-1.1v-1.3l-.65-.52-.74-.43-1.05-.34-.97-.44-1.39.55-.96.43-.86.66-.74-.11-.65.86-.42.76-.63.11-.65.75-.32 1.19.12.86.96.78h.43l.51-.12.43-.98.54-.63.96-.98.43-.55.63-.32.76-.32.43.09.42.43-.22.78v.96l-.43.98-.31.43v.66l-.11.52.11.55-.11.43-.63.87-.23.98-.2.11v.87l-.54.86v.21l-.22 1.09v1.07l-.52 1.09-.54.98v.43l-.42.76.11.22-.23 1.07-.11.87-.31.66-.63 1.5.09 1.3-.31 1.41-.43.76-.11 1.2v.98l.22.53v1.73l-.22.77.22.32.32 1.07.85.55.85.11z"/><path id="_22" class="fil1 str1" d="M472.24 5.1l-.11-.75-.33-.98-.43-.77-.52-.64-.42-.55-.54-.43-.23-.32-.63-.32-.74-.23-.65-.11h-1.39l-.85.23h-.74l-.54.2-.74.12-.74.75-.65.23-.85.63-.43.12-.2.43-.65.34-.65.53-.32.66-.74.31-.31.44-.43.54-.76.55-.43.52-.63.99-.65.66-.51.75-.34.54-.63.64-.22.55-.63.66-.11.32-.54.75-.54 1.09-.43.53-.42.77-.52 1.07-.43.43v.75l-.54.44-.54.89-.11.63-.42 1.1-.32.32-.63 1.29-.22 1.1-.32.75-.11.32-.54 1.09-.31.52-.2.44-.43 1.29-.45.55-.2.75-.22.55-.21.32V30l-.85.65-.85.87-.43.55-1.16.86-2.25 2.26-.43.22-.65.87.77 1.07 1.28-.43 1.16-1.07.32-.44.74-.54.96-.75-.74 2.59-.42 1.73-.43 1.62-.43 1.3-.42 1.52-.32 1.62-.42.98-.12.55v.86l-.42.55.2.43-.31.75-.12 1.19-.2.43v1.96l-.11.52.11.98-.22.44.33.66-.42.43.31.98.11.86.09.76.34.97.31 1.19.2.32.77.77v.44l.63.31.65.64.42.12 1.06.43.65.32 1.05.11.54-.11.32-.09 1.07-.35h.75l.74-.09.22-.43h.2l.77-.43.51-.12.23-.32.85-.54.43-.75h.31l.65-.44.85-.98.74-.66.74-.75.12-.75.85-.66.42-.55.43-.31.43-.64.54-.66.42-.66.54-.53.32-1.29.42-.78.54-.43.2-.44.54-.52.32-1.21.33-.75.52-.32.54-1.09.22-.75.2-.87v-.43l.32-.66.11-.64v-.43l.43-.87.11-.43v-.86l.11-.87v-.86l-.11-.55-.23-.55.12-.75-.12-.54-.31-.55-.43-1.07-.63-.75-.96-.98-.85-.55-.97-.55-.96-.31-.74-.32h-.74l-.34-.12-.63-.11-.74.11-.76.23h-.63l-.43.32h-.54l-.42.43-.86.64-.42.43-.74.55-.65 1.09-.54.53-.52.66-.34.86-.42.55-1.06 1.3-.74 1.18-1.3.23.22-.86.12-.66.42-1.1.21-.86.42-.76v-.31l.23-.55-.12-.55.54-.52.11-.78.52-.63.34-.55.85-1.18.85-.66.52-.44.43-.32.65-.75.96-.43.63-.78.76-.43.43-.64.74-.54.54-.32.85-.75.52-.55.43-.66.65-.43 1.05-1.07.77-.44.62-.43.65-.34.43-.64.63-.43.54-.43.65-.44.42-.54.52-.44.85-.66 1.08-1.18.43-.32.54-.43 1.05-1.1.65-.52.32-.23.53-.55.32-.43.54-.52.54-.66L471.48 9l.31-.98.34-.87.2-1.18-.09-.87zm-2.67 1.07l-.22 1.09-.43.98-.54.87-.74.96-1.28 1.52-.65.55-1.05.86-.43.55-.31.43-.77.64-.62.66-.54.64-.97.66-.42.32-.63.75-.54.43-.65.34-.52.32-.65.55-.31.32-.74.86-.86.64-.85.77-1.08.98-.53.53-1.28.98-1.06 1.09-1.28 1.07-.85.55-1.08.86.74-2.59.77-1.62.51-.78.43-1.07.54-1.2.85-1.5.54-.99.65-.86.63-1.41 1.28-1.94.42-.98.75-.86.42-.32.11-.43.65-.66.52-.76.23-.66.53-.43.32-.54.63-.64.53-.44.54-.66.97-1.07 1.17-.75.85-.77.85-.53.74-.22 1.28-.32 1.28-.12.76.23.63.43.43.53.22.98.12 1.18h-.01zM444.71 43.2l.85.12h.74l.85-.44.12-.54.22-.75.52-.55v-.32l.33-.43.21-.32.31-.78.34-.52.42-.77.2-.55.32-.75.54-.32.42-.55.43-.63.22-.12.75-.66.31-.43.85-.32.11-.32.74-.32.65-.43h.74l.43.2h.85l.32.12 1.5.75.63.75.23.43.53 1.21v.75l.21.87v.32l-.09 1.09v.32l-.65 1.62v.66l.22.43-.65.75-.43.98.2.64-.51.34-.23.32-.11.98-.63.11.11 1.07-.33.55v.43l-.63.64-.54.43-.11.66-.43.32-.09.98-.65.55-.2.63-.65.32-.43.98-.74.66-.43.98-.42.32-.76.64-.43.66-.31.11-.12.64-.85.55-.31.54-.63.55-.65.64-.2.11-.77.64-1.28.43-.51.23-.54-.11h-.65l-.43-.32-.63-.43-.65-.67-.31-.63-.54-.55-.11-.64-.43-.89v-.75l.11-1.07v-.77l.23-.64.09-.78.11-1.18.11-.43.2-.55v-.32l.23-1.07.43-1.3v-.66l.31-.63.11-.78.43-1.07.31-.66v-.32l.23-.98h.74z"/><path id="_23" class="fil1 str1" d="M479.27 70.49h.65l.74-.32.85-.12.74-.43.86-.11.53-.53.86-.34.65-.2.63-.75 1.07-.66.97-1.19.94-1.41.54-.98.11-.64.31-.77-.2-.53-.54-.54-.85.86-.54.87-.63.43-.65.98-.74.75-.65.55-.54.54-.62.44-.74.43-.54.32-.97.32-.54.32-.74.11-1.28.11-.96-.11h-.85l-.97-.11-.85-.1-.94-.22-.54-.21-.86-.23-.65-.54-.42-.21-.63-.66-.65-1.3-.85-.75-.12-.66-.09-.43-.53-.43.42-.53V60.3l-.11-.63v-.44l.11-.75-.11-.43.31-.46.12-1.82.31-.86h.85l.54.2.31.12.66-.12.85.12 1.16-.32 1.08.2.74-.2.43-.23.74-.32h.65l.63-.11.76-.12.43-.32.85-.31.74-.35.65-.2 1.17-.32.74-.55.54-.54.63-.21.76-.66.43-.63.63-.23.53-.64.43-.34.23-.32.74-.55.54-.43.51-.96.54-.54.43-.98.33-.75.32-.55.2-.87v-.98l-.43-1.18-.54-.55-.42-.75-.52-.43-.96-.55-.32-.32-.43-.11-.33-.11-.63-.64h-1.08l-.63-.34-.33-.09-2.22.63-.23-.11-1.05.11-.66-.11-.42.55-.43.22-1.08.21-.51-.21-.23.64h-.63l-.85.66-.33.32-1.49.98-.74.64-.53.23-.66.43-.51.2-.23.98-.2.44-.33.54-.97.55-.43.32-.09.43-.22.55-.85.32.11.75-.97 1.52h-.2l.09 1.07-.43.44-.42.66v.43l-.43 1.07-.2.66.31.21-.42.66-.43.98.11.43.11.98-.54.75-.11.64.11 1.09-.22.43.54.87-.11.75-.09.87.63.22.22.98-.22.21V64l.31.64.65.11.43.87.42.54.32.12.11.75.54.66.31-.12.97.44.2.75.96.11.86.55.85.43h.74l.65.32h1.91l.96.2 1.28.12h.01zm-7.47-17.97l-.32-.75.11-.35.12-.95.2-.66.42-.75.34-.55.63-.98.22-.52.21-.35.31-.63.54-.66.42-.64.86-.23.42-.75.54-.43.54.11 1.06-.78.31-.52 1.73-.86h.85l.74-.78.97-.09.62.09 1.4-.52 1.39.32 1.05.31.54.32.54.78.2.86-.2 1.07-.43.87-.54.75-.53.66-.54.55-.52.63-.65.44-.63.66-.65.54-1.05.75-.86.64-2.78 1.42-.74.22h-.76l-.43.32h-.63l-.54.32-.54.11-.74-.11-.42.23h-.86l-.53.2-.63-.2-.77-.12.01.01z"/><path id="_24" class="fil1 str1" d="M526.96 44.62l-.74-.12h-4.06l.42-1.41.65-1.73.32-.96.54-1.3.2-.66.54-1.29.42-1.19.65-1.09.52-.98.65-1.51.11-1.09-.54-.75-.22-.11-.63.11-1.08.43-.74.66-.2.44-.43.75-.42.98-.43 1.07-.22.43-.63 1.53-.11.63-.54 1.1-.32 1.18-.42 1.3-.34 1.18-.31 1.1-.43 1.18h-.96l-2.65-.2-.97.09-1.19-.09h-1.7l-3.08-.12.32-1.41.54-2.48.31-1.1.2-.75.11-.66.23-.75.31-1.07.12-.43v-.66l.08-1.19v-.66l-.2-1.07-.31-.54-.43-.55-.65-.09-.85-.12-.97.21h-.42l-.63.55-.65.43-.43.23-.63.52-.85 1.09-.85.87-.65.55-.63.75-.43.54-.42.64-.43.55-.65.86-.54.55v.64l.34.34.62.43.66-.23.94-1.18.96-.55.32-.75 1.5-1.52 1.28-1.19.74-.75.85-.23.54.32v.66l-.11.43-.09.76-.34 1.95-.31.75-.2 1.19-.23.87-.96 3.02-.11.44h-2.34l-.74-.21-.76-.32-.94-.34-.77.66.54 1.19.11.34.54.95.63.23 2.45.12h.53l-.53 2.05-.21 1.41-.42 1.3-.32 1.18-.22 1.09-.2.64-.23.87-.11.54-.43.98-.2 1.19-.22.66-.43 1.18-.09.98-.42.75.09.44.33.75.85.43 1.6-.32.42-.86.21-1.53.11-.43.22-1.3.2-.43.23-1.19.09-.98.43-.98.11-.75v-.2l.31-1.1.12-.43.33-.98.31-1.18.21-.75.42-1.74.65-1.2.74-.21 1.17-.11h.97l.96-.12h.97l1.48.12.85-.12 2.25.23h.85l-.43 1.73-.63 2.49-.22.43-.32 2.07-.31.96-.11.77-.12.96-.11.55-.2.75v2.62l.2.95.23.66.85.64 1.06.55.85.22 1.28.1 1.39-.32.22-.21.97-.43 1.05-.77.32-.76.76-.75.63-.75.43-1.09.42-.87-.96-.75-1.06.32-.85.98-.74.75-.34.55-1.39.98-.31.2-.43.11-1.05-.31-.34-.87-.2-.98.11-.87-.11-.77.11-.64.2-.75.11-.98.2-.43.34-.98.32-1.62.53-2.39.52-1.84.88-.09 1.05.09.74.11 1.62-.11 1.28.22.62-.43.43-1.18-.54-.46z"/><path id="_25" class="fil1 str1" d="M570.5 57.94l-.12-.55-.53-.11-.74-.12-1.08.12-.52.11-.85-.11-1.08.11-1.59.43-.11-1.52.42-1.94v-.66l.23-.32v-.66l-.11-.43.11-.2v-.32l.2-.44v-1.09l.22-.75-.11-1.09.2-.96.12-.98-.12-.75.12-.78-.12-.75v-1.09l.12-.21-.12-.54-.51-3.35.09-.86-.09-.98.2-.87v-.75l-.74-.77-.43-.21-.42-.55-1.51-.31-.74.31-.43 1.3-.22.23-.09.52.52.55v.66l-.43.98v.96l-.43.77v.21l.23.75-.32.66-.33.86-.2.87-.66.98-.2.75-.42.75-.12.23-.42.75-.11.55-.63 1.29-.32.87-.65.98-.22.64-.32.54-1.48 2.28-.85.55-.54.86-.31.44-.23.09-.31.34-.74.52-.97.78-.74.54-1.07.32-.65.32-.95.66-.96.21-.32.31h-.53l-.54-.31-.54-.12h-.94l-.65-.43-.97-.52-.74-.89-.85-.53-.65-1.52-.09-1.07-.12-.98-.11-.78.11-.52.21-.78.33-.86-.22-.75.11-.76.54-.97.09-.21.11-.55.11-.86.12-.32.08-.55.34-.77.63-.96.11-.77.43-.87.43-.63.22-.76.2-.54.32-.75.42-.55.23-.32.42-.89.74-.86.86-1.3.54-.64.96-.43.31-.32.97-.43.85-.35h.43l1.05-.09 2.25.96.74.23.65.64v.98l.11.75.2.43.74.77h.43l.43.21.54-.21.65.12.63-.89.33-.2.63-.87-.2-.86-.85-.12-.66-.75-.53-.55-.32-.54-.11-.64h-.96l-.52-.12-.23-.43-.53-.86h-.43l-1.17-.44-.43.12-.74-.12-.22-.54-.74-.21-.85.21h-1.39l-.86.11-1.05.66-.23.53-.85.11-.54.11v.75l-.85.23-.09.75h-.65l-.2.87-.85.64-.54.86-.43.44-.54.77-.11.52-.74.55-.23.55.12.75-.32.34-.31.52-.54.44.11.54-.76.32.11.66-.2.64-.54.87-.22 1.2-.09.44.09.31-.52.87-.23.55.12 1.07-.32.86-.43 1.09-.11.64v1.1l.54 1.29v.12l-.11.75.11.98.43 1.18.43.87.2.54.65.76.42.54.86.87h.74l.63.54.22.32.43.44 1.07.11h.74l.43.2.63-.09.22.21.75.32.96-.32.85-.43.86-.12.62-.09.54-.66 1.08-.2.43-.44.54-.23.51-.43.65-.32.43-.32.43-.54.85-.55.54-.55.42-.75.74-.43.21-.66.65-.64.31-.66.34-.55.51-.43.65-.75.21-.43.22-.55.43-.52.31-.55.23-.55.09-.43.42-.64.23-.86.2-.44.65-.86v-.77l.54-.55.31-.64.2-.75.43.95-.09.66v.99l-.43.86v.55l.09.32v.97l-.09 1.19.09.43-.09.32-.33.75-.09.23v.64l.2 1.2-.54.98.11.32-.31 1.07.11.66-.11 1.42-.31.63-1.19.23-.43.21-.85.11-.52.32-.97.54-.53.32-.43.23-.65.55-.74.2-.85.55-2.14 1.3-1.16.64-1.28.77-.43.2-1.19.78h-.63l-.96 1.3h-.63l-.34.43-.42.32-1.17.55-.97.95-.85.34-.31.53-.74.43-.43.66-.65.11-.43.32-.63.44-.53.75-.43.43-.97.34v.32l-.54.75-.94.32-.42 1.21-.65.2-.12.32-.96.43-.09.35-.54.63-.31.44-1.19.54-.52.55-.34.64-.31.77-.65.32-.43.55-.31.2-.85.66v.44l-.63.52-.54.23-.54.75-.54 1.09-.85.64-.09.23-.97.75-.65.87-.85.75-.11.43-.85.98-.32.11v.44l-.11.63-.52.55-.33.75-.52.78-.22.52-.97.77-.2.87-.11.32v.54l-.63.55-.23.32-.42.43v1.07l-.21.55-.33.32-.2.34-.23.64v.66l-.2.86-.34.55.34.53.11.97.2.23.43.75.22.87.32.54v.44l.96.43.32.64.85.34.32.32.74.11.85.32 1.07.43.63-.11.88.11.63.21h2.02l1.39-.32.74-.2h1.08l.42-.35h.74l.65-.43.43-.32.85-.43.32-.23.96-.43.54-.21.52-.11.76-.64.85-.54 1.06-.32.42-.55.86-.32.42-.43.86-.55.96-.54.74-.44.65-.75.54-.66 1.17-.75.85-1.18.74-.66.34-.55.85-.53.94-.86.43-.78.65-.75.54-.66.42-.52.86-.98.31-.43.85-1.1.97-1.93.63-.55.33-.55.52-.98.34-.2.42-.75.21-.87.31-.86.43-.23.42-.55-.09-.52.43-.98.43-.43.42-.98.32-.32.11-.87.11-.43.43-.77.2-.76.54-.54.63-1.39.42-.98.34-.55v-1.07l.31-.11.43-.78.2-.86.23-.75.2-.64.43-.98-.09-.55.51-1.07.23-.86.2-.78.34-1.3.31-.54.2-.96.23-.34v-.52l.53-1.85.63-.75 1.51-.66.63-.11h.76l.94-.32.76-.21 1.17-.23.54-.31zm-11.11 4.64l-.2 1.62-.32 1.21-.34.98-.42.43-.43.87.11 1.29-.11.64-.42.55v.75l-.52.98-.34.43-.31.64v1.53l-.32.75-.76.98-.31 1.18-.32.98-.65.98-.51.55.2.64-.97.86-.31.43.31.66-.51.44-.23.86-.54.43v.64l-.51.78-.34.64-.63.75-.11.43-.54.66-.52.86-.96.98-.34.55-.43.52-.2.44-.65.77-.31.53-.97.98-.31.66-.43.32-.63.63-.85.66-.54.55-.42.64-.77.77-.51.64-1.71 1.3-1.08 1.09-.96.32-.2.55-1.08.43-.52.55-.76.52-.63.11-.65.44-.63.32-.54.22-.96.64-.63.11-.65.55-.97.32h-.96l-.63.55h-.54l-.85.43h-.54l-.74-.23-.54-.2-.63.2-.74.23-.87-.43h-.74l-1.48-.76-.43-.77-.54-.52-.23-.87v-.98l.23-1.09v-.75l.31-1.19.54-.98.2-.22v-.96l.54-.55.23-.54.42-.87.09-.66.23-.2.74-1.1.11-.75.54-.75.31-.32.23-.55.31-.31.43-.35.11-.63.74-.32.63-.55.11-.66.32-.55.85-.75.76-.63.2-.55.54-.11.43-.76.74-.86.65-.55.54-.54.63-.96.85-.66.22-.43.43-.32.52-.55 1.07-.66.66-.52.42-.44.52-.86.22-.34 1.06-1.07.85-.66.65-.76h.43l.63-1.07.65-.23 1.5-1.09.52-.64.85-.31.34-.87.85-.77.85-.21.52-.43.85-.44.34-.54.85-.12.85-1.29.85-.09.32-.35 1.5-.63.94-.87 1.28-.66.77-.43.63-.32.74-.32.85-.34.45-.64.63.11 1.27-.97.54-.23.97-.21-.34 1.62.01-.01z"/></g></g></svg>