<svg xmlns="http://www.w3.org/2000/svg" width="347" height="67" shape-rendering="geometricPrecision" text-rendering="geometricPrecision" image-rendering="optimizeQuality" fill-rule="evenodd" clip-rule="evenodd"><defs><style>.str0{stroke:#fefefe;stroke-width:.9;stroke-miterlimit:22.9256}.fil0{fill:#fefefe;fill-rule:nonzero}</style></defs><g id="gschwend"><g id="_2303012372704"><path class="fil0 str0" d="M51.76 52.34l-.33.19-.32.14-.32.06-.46-.06-.45.19-.64.07-.21-.13-.05-.07-.66-.06-.45-.33-.58-.2-.14-.14-.19-.06-.59-.66-.38-.07-.26-.59-.26-.32-.33-.34-.25-.47-.38-.72-.14-.26-.19-.33-.19-.73v-.59l-.14-.32-.19-.26v-.6l-.14-.74.14-.53-.14-.52-.05-.39.12-.6-.07-.45v-.6l.21-.34-.07-.45.07-.53v-.93l.12-.39.07-.33.19-.65.07-.86v-.19l.26-.53.07-.4.12-.6.13-.46.06-.33.14-.72.26-.34v-.92l.12-.66.2-.46.19-.32.07-.6.12-.27-.12-.26.12-.53.26-.46.14-.13-.07-.85.12-.4.21-.08-.07-.45.26-.6-.14-.19.26-.26-.12-.67.33-.13v-.59l.26-.39.06-.14.2-.65.32-.66.05-.87.08-.38.25-.67.33-.86.2-.85.32-.93.12-.59.21-.34.19-.45.33-.6.05-.39.2-.6v-.45l.06-.26.2-.67v-.72l.06-.41v-.38l-.12-.67v-.39l-.07-.47v-.46l-.13-.46-.39-.78-.59-.53-.71-.53-.59-.46-.63-.21-.52-.12h-.66l-.71.07-.65.19-.57.2-.47.14-.71.12-.19.14-.51.12-.33.07-.45.39-.59.41-.45.19-.46.26-.38.27-.33.26-.52.33-.33.53-.45.19-.14.14-.25.34-.45.38-.33.46-.38.21-.33.39-.26.33-.45.39-.32.47-.27.27-.18.33-.21.26-.2.19-.25.46-.19.2-.19.26-.33.47-.33.53-.33.39-.45.59-.33.67-.18.32-.45.53-.26-.06.12-1 .07-.53.07-.59.12-.39.06-.4.2-.58v-.27l.13-.53.08-.59.04-.07.08-.39v-.74l.06-.45v-.72l-.06-.74.06-.27-.14-.38v-.53l-.12-.4v-.12l-.25-.6-.26-.46-.19-.6-.26-.33-.4-.12-.39-.74-.32-.13-.13-.19-.53-.14-.37-.26h-.47l-.31.07-.33-.14-.39.07-.26.19-.39.14-.39.07-.52.13-.71.4-.4.39-.38.26-.25.26-.4.34-.31.12-.66.67-.26.19-.19.33-.4.34-.26.45-.58.72-.64.48-.19.26-.46.53-.32.32-.07.14-.65.79-.45.66-.26.39-.19.46-.07.07-.66.53-.45.92-.32.47-.39.52-.32.33-.07.39-.26.41-.26.26-.26.39-.19.47-.19.58-.32.47-.39.46-.14.39-.06.4-.26.19-.19.53-.07.27-.26.52-.19.6-.19.19-.33-.05.12-.41-.12-.59v-.32l.07-.28v-.46l.12-.45.14-.67v-.65l.19-.46.33-.53.19-.59.06-.53v-.53l.08-.26.18-.27.13-.47.14-.39v-.59l.12-.26.13-.46.07-.53.19-.4.19-.06.07-.47.07-.53-.07-.33.13-.38.25-.08.07-.6.14-.26.05-.53-.05-.65.05-.13.14-.53v-.26l.07-.27-.26-.65.12-.27-.12-.26-.33-1 .19-.31-.19-.48.12-.46-.25-.19-.58-.6v-.13l-.2-.27-.39-.12-.58-.4-.45-.2-.4-.07-.7.4h-.53l-.19.2-.32.14-.4.26-.26.06-.45.59-.33.27-.32.19-.2.4v.19l-.51.27-.2.26-.06.53-.64.27-.26.4-.21.39-.25.26-.2.6v.32l-.33.27-.45.26-.13.07-.12.46-.4.46v.4l-.19.27-.26.07-.12.26-.4.91-.07.34-.38.13-.39.33.06.47-.19.52-.06.2-.52.33-.33.39-.05.4-.21.26v.32l-.31.21v.65l-.28.34-.31.4-.26.52-.2.46.13.27-.39.79.26.12.07.21v.32l.06.4.64.2.33.19h.4l.71.14.19-.14.32-.12v-.67l.08-.39-.33-.33v-.39l-.07-.14.13-.19-.06-.46.13-.53-.07-.26.07-.54.32-.13.33-.19-.2-.33.2-.6.18-.2.4-.79v-.33l.19-.19.19-.53.21-.4.12-.2v-.79l.4-.33v-.39l.05.06.39-.2.27-.45.32-.53.26-.46.45-.14-.12-.33.12-.39.26-.4.14-.12.12-.34.4-.26.37-.67.46-.39.07-.26.32-.33.38-.2.21-.33.52-.2.19-.19.39-.6.13-.13.39-.13.45-.14.12-.12h.59l.59.05.19.34.26.4-.26.26.39.46-.18.4.12.85-.2.33-.13.26.13.6-.19.6-.06.26.25.32-.13.07-.12.74v.26l-.4.31.07.34.07.46v.14l-.26.52-.07.27v.72l-.14.26-.19.33-.12.6v.53l-.07.26-.06.2-.2.52-.07.4v.53h-.06l-.06.46-.06.4-.2.65-.13.34.06.38-.14.27v.53h.08l-.2.4-.06.53-.13.39v.66l-.46.93-.07.32v.26l.07.53-.26.47-.26.27.07.58-.07.4.07.45-.33.6-.12.34.19.65v.4l-.39.53-.2.19.4.6-.07.33-.4.59-.05.46.12.46-.19.34v.12l-.18.4-.27.46.27.41-.33.45-.08.2.2.47v.84l-.26.67-.12.26.18.6-.45.39.13.4-.31.58-.21.6.07.21v.39l-.07.4-.19.65.07.2-.14.4-.31.33-.07.46.26.33.07.39-.26.4.12.27-.19.59.26.32.45.4.26.2.39.06h.26l.52.13.52-.13.38-.4.26-.58.14-.28-.21-.45.14-.79.07-.6.12-.53.07-.46.33-.45-.07-.41.13-.39.06-.26v-.52l.21-.6v-.67l.04-.38-.04-.08.04-.26.14-.26.07-.39.05-.47v-.32l.07-.26.14-.48-.06-.46.25-.32.2-.53-.08-.46-.05-.34-.07-.39.33-.46.19-.53-.07-.53v-.33l.19-.66.14-.4.26-1.05.07-.32.26-.33.33-1 .25-.59.06-.73.39-.46.12-.65.66-1.32.07-.4.19-.26.19-.53.14-.33.19-.2.19-.26.19-.4.13-.46.26-.46.19-.53.26-.4.19-.19.33-.46.33-.53.39-.47.27-.19.18-.46.2-.2.25-.47.33-.39.38-.45.21-.27.12-.26.45-.4.4-.39.12-.27.33-.47v-.12l.33-.47.12-.06.27-.21.2-.26.37-.39.33-.26.26-.46.4-.21.18-.33.27-.27.32-.39.52-.18.38-.53.52-.41.45-.06.33-.27.65-.19.45-.27.66-.06.52.06.45.14.18.06.27.33.19.26.32.27.2.4.06.53.27.72-.2.26.2.53-.2.6v.26l-.07.12.07.34-.13.33.13.66-.19.2-.14.46-.19.52v.07l.19.53-.25.46v.26l-.07.4-.13.47-.13.59-.12.46v.6l-.08.26-.25.52-.07.46-.26.67-.19.32v.47l-.45.79.13.26-.13.6v.52l-.32.59v.47l-.33.27.06.38-.06.34-.12.39.06.46-.2.27-.39 1.06-.06.26-.27.59v.66l-.18.4-.07.45-.14.54-.06.19-.06.4-.14.46v.26l-.12.46.07.26-.07.21-.26.53-.14.72v.2l-.19.39v.34l-.12.53-.21.45-.12.46.07.2-.07.46-.14.39-.12.73v.78l-.25.34.12.53-.12.4.12.38-.12.48-.08.39.08.13-.14.59-.19.66.07.73-.14.33v.59l.07.39-.07.53.26.14.26.33.39.53h.59l.26-.4.38-.39.19-.67-.19-.52.07-.07.19-.46.07-.72-.14-.4.21-.46.18-.34-.13-.39.13-.46-.06-.54.26-.38-.06-.33.06-.67.39-1.05v-.53l-.06-.39.33-.66.12-.39.13-.46-.19-.53.19-.33.33-.4.05-.53-.18-.2.25-.33-.07-.65.33-.47-.06-.53.19-.59.06-.33.26-.4.07-.46.06-.4.08-.52.19-.39.06-.34.06-.52.14-.13.25-.4-.06-.19v-.33l.19-.41v-.32l.2-.47.26-.53.19-.72.12-.45.26-.41.14-.52.26-.53.26-.27.25-.45.33-.34.26-.33.27-.39.25-.45.26-.27.19-.47.33-.32.26-.53.33-.47.64-.79.32-.53.33-.46.26-.26.38-.59.33-.34.39-.46.45-.52.33-.53.26-.4.64-.59.4-.47.52-.45.45-.27.52-.46.51-.19.26-.28.45-.19.14-.2.52-.26.33-.27.12-.06.52-.12.46-.27.64-.33.58-.2.53-.06.58-.08.45-.12.38.06.85.33.51.53.33.4.2.31.06.34.14.79.05.6-.05.52-.14.93-.06.53-.06.33-.26.39-.07.33-.19.39-.13.21.06.39-.06.33-.19.33-.14.27-.19.91-.19.48-.14.65-.19.19-.26.4.07.65-.21.61-.38.52-.19.93-.07.53-.26.12v.67l-.19.26-.06.19-.08.41-.25.79-.07.58-.06.4-.25.6v.32l-.26.4-.21.53-.19.86.07.6-.19.38v.27l-.33.4v.72l.07.33-.33.39.13.27-.06.59-.14.33-.12.27-.13.19v.8l-.2.19-.13.54.07.79-.07.32-.26.59.06.34v.39l-.18.2-.07.53.07.39-.07.26-.2.53v.66l.06.6-.06.39-.06.2.06.46v.53l-.13.72.07.53.12.46v.6l-.06.33.13.26v.53l.26.39.19.53.07.4v.72l.25.33.27.39.13.73.19.08.26.31.14.27.26.4.26.19.26.4.38.2.19.13.51.26.21.14.26.26.31.2.14.06.26.27.59.26.51.2.59.06.52.2h.26l.26.07.45-.14h.38l.59-.13.45-.14.65-.12.33-.53v-.45z"/><path id="_1" class="fil0 str0" d="M72.12 37.37l-.58.19-.33.34-.45.12-.45.21-.46.12-.32.14-.46.06-.26.07-.57.07-.21-.07-.64-.07-.33-.2-.52-.26-.06-.07-.39-.32-.06-.4-.33-.39.06-.52-.18-.6v-.21l.05-.53v-.65l-.19-.72.14-.27v-.4l.31-.59-.12-.33.07-.8.38-.53-.07-.57.26-.53.07-.33.32-.47v-.46l.13-.27v-.45l.32-.47.14-.59-.06-.41.37-.38.26-.53v-.99l.21-.33v-.26l.33-.53.12-.33.19-.46.33-.52-.12-.34-.07-.14.19-.39-.26-.33-.19-.26-.45.14-.46-.27h-.45l-.72.13-.2-.07-.38.07-.45-.46-.4-.14-.45-.52-.52-.13-.84.07-.4-.21-.97.07-.52-.13-.84.27h-.31l-.21.26-.31.06-.33.26-.45.21-.13.32-.45.21-.33.39-.66.33-.26.33v.27l-.57.26-.07.39-.39.33-.26.27-.45.33.12.33-.38.26-.33.46-.26.27-.07.26-.12.13-.14.4-.31.12-.26.47v.32l-.2.14-.19.33-.26.53-.13.2-.2.19-.19.4-.12.6-.4.32.19.47v.26l-.31.39-.21.33-.12.34-.07.19v.39l-.07.21-.06.46-.13.12-.19.27.26.59-.2.21v.46l.07.52-.07.34.07.38.06.33.19.41v.39l.4.59.12.46.26.33.21.39.31.41.47.39h.18l.71.26h.4l.12.07.85.13.51-.06.4-.27h.19l.38-.33.26-.13.78-.26.26-.26.66-.53.7-.47.26-.39.33-.26.33-.4.33-.47.18-.33.07-.12.38-.53.27-.4.18-.33.4-.46.38-.53.47-.66.12-.46.46-.65h.31l-.05.72-.07.59.07.53-.07.53-.19.33.19.32-.06.47-.19.39.33.26-.08.46v.48l.26.45-.13.6.32.46.26.52.27.34.45.39.39.33.64.33.2.07.65.27.32-.08.45.13.47-.05.64-.21h.39l.52-.33.45-.06.26-.14.52-.13.26-.19.38-.21.52-.32.32-.26-.12-.48-.51-.12h-.01zm-6.28-15.04l-.07.39-.07.6v.19l.07.21-.19.27-.26.65.06.66-.58.79.05.34v.26l-.37.2-.27.38-.06.27-.2.26-.13.33-.26.53-.33.4-.12.19-.26.6-.07.13-.12.33-.46.46-.06.21-.26.19-.07.19-.19.46-.4.4-.25.46-.33.41-.31.52-.26.19-.14.41-.26.31-.45.48-.32.52-.4.39-.58.48-.39.31-.33.34-.9.4-.46.26-.57.13-.78-.33-.47-.2-.25-.65-.45-.26.06-.53-.06-.47-.26-.39.06-.67V34l-.06-.39.18-.26.14-.53-.14-.14v-.39l.27-.59-.06-.2.19-.47.13-.39.2-.4.26-.39.05-.26v-.4l.07-.33.26-.26.4-.47.12-.46.45-.6.2-.26.45-.33-.13-.32.32-.34.14-.45.39-.26v-.34l.58-.6v-.12l.26-.33.45-.34.26-.4.2-.19.33-.19.19-.2.45-.27.52-.46.32-.39h.39l.65-.33H62l.92-.13.64.13.26-.08.52.21.58.32.26.21.45.32.21.4z"/><path id="_2" class="fil0 str0" d="M104.15 43.84h-.33l-.57.57-.21.08-.38.33-.78.33-.33.13-.58-.06-.52.06-.38-.27-.4-.19-.32-.67-.27-.79.07-.46-.07-.98.14-.67.13-.39.06-1.38.2-.46.2-.86v-.6l.26-.79.12-.26.13-.39v-.67l.27-.59.19-.92.32-.99.39-.46v-.86l.39-.27.19-.65.07-.52.06-.34.2-.33v-.33l.38-.59.07-.54.32-.98.08-.46v-.6l-.14-.52-.12-.46-.21-.46-.19-.14-.33-.33-.38-.12-.52-.27h-.65l-.52.07-.78.38-.19.08-.32.19-.39.34-.65.52-.52.46-.39.4-.78.92-.39.52-.32.41-.52.65-.26.47-.38.46-.33.33-.32.46-.45.6-.73.72-.52.39v-.65l.14-.54.12-.66.21-.85.51-1.79.06-.65.14-.52.07-.6v-.27l.05-.52-.12-.73-.59-.66-1.11-.19-.83.19-.39.14-.39.32-.39.2-.45.47-.78.72-.39.45-.52.48-.26.38-.59.6-.26.33-.58.8-.52.45-.45.53-.78.86.19-1.06.14-.72v-.4l.19-.72v-1.19l-.06-.6-.13-.79-.45-.59-.33-.52-.77-.28-.59-.05h-.33l-.52.05-.9.28-.32.46-.33.06-.07.27h-.12l-.33.32-.26.07-.12.33-.21.13-.38.47-.26.31-.19.41-.26.33-.39.53-.33.32v.4l.26.2.39.26.38-.12.53-.74.58-.32.19-.47.85-.92.77-.72.14-.14.71-.33.59.21.32.32.12.59v.93l-.06.53-.12.86-.2.91v.41l-.2.72-.12.33-.26.73-.07.52-.26.39-.13.47-.13.59-.33.73-.19.39-.19.33-.07.4-.13.39-.19.33-.13.27-.46 1.38-.12.33-.07.47-.26.72-.33.52-.05.27-.07.47-.13.39-.2.4-.19.58v.6l.07.52.26.34.31.39.72-.06.39-.21.26-.52.19-.65.33-.46.06-.4.26-.6.07-.53.06-.72.26-.4.13-.53v-.26l.19-.33.14-.46.12-.53.2-.46.2-.39.12-.21.26-.59.59-1.64.32-.47.33-.26.19-.46.45-.53.33-.4.19-.2.59-.65.32-.4 1.04-1.12.19-.27.39-.38.2-.27.26-.33 1.43-1.58.83-.67h.78l.33.33.06.6-.39 1.12-.26.86-.19.79-.2.92-.19.86-.13.27-.13.59-.25.58-.26.74.12.45-.33.53.07.33-.26.34.12.45-.12.46-.19.27.13.52-.13.21-.26.79v.32l-.06.27-.2.4v.46l-.13.59-.12.53-.07.59.07.47-.07.26-.14.46v.66l.26.6.58.19h.33l.33-.26.26-.27.12-.4.33-.72.07-.46v-.72l.06-.26.19-.41v-.45l.26-.67.27-.86-.07-.46.25-.65.52-.93.07-.4.26-.65.19-.33.33-.27.12-.46.46-.46.32-.4.2-.26.52-.72.26-.27.38-.66.4-.53.33-.26.12-.26.26-.27.39-.53.26-.26.39-.59.51-.46 1.04-1.19.72-.59.71-.33.64.07.52.31.26.67-.26 1.18-.45 1.13-.26.73-.58 1.32-.13.46-.33.91-.07.4v.27l-.38.59v.53l-.07.39-.25.53-.07.33-.19.53-.07.33-.19.67-.14.38v.73L97.46 40l-.05.6-.14.39-.06.52.06.87-.06.86.25.52.07.53.45 1.06.85.85 1.03.27.33-.07h.71l.78-.12.46-.08.64-.26.33-.26.26-.27.39-.26.45-1.05z"/><path id="_3" class="fil0 str0" d="M114.72 20.09l.89-1.06.4.07h.33l.38.07.26.27v.59l-.19.53-.33.65-.32.46-.13.21-.26.26-.32.58-.52.6-.46.79-.25.47-.52.65-.19.2-.26.52-.2.6-.27.4-.12.13-.26.52-.13.67-.33.27-.05.32-.52.8v.65l-.14.19-.19.21-.19.65-.21.27-.12.46-.19.52-.21.4v.27l-.12.19v.33l-.13.53v1.53l.25.45v.46l.14.27.26.33.33.19.26.2.38.26.59.07.58-.07.33-.12.31-.07.21-.2.38-.07.71-.52h.26l.33-.39.32-.21.26-.19.45-.34.26-.33.26-.19.26-.07.32-.39.27-.27.39-.33.32-.39.46-.47v-.12l.12-.26.33-.14.33-.53.38-.39-.06-.33.39-.26.06-.34.33-.39.26-.6v-.52l.19-.53-.14-.4-.19-.53-.26-.45-.25-.2-.53-.21h-.18l-.52-.06h-.78l-.39.2-.45.13-.66.52-.38.21-.4.39-.38.33-.33.4-.13.39.26.27-.06.45-.13.48-.33.12-.45-.12-.52-.14-.45-.34.07-.39-.14-.4v-.39l.26-.52.07-.2.32-.33.27-.33.31-.26.26-.34.26-.19.39-.2.45-.26.78-.26.46-.22h1.04l.52-.05.64.05h.14l.59.15.31.19.65.26.26.4.45.27.14.46.31.4.14.32-.07.2.13.39v.27l-.13.19-.07.48v.45l-.19.34-.33.78-.12.53-.33.39-.64.67-.14.26-.32.39-.13.53-.45.26-.46.53-.33.26-.12.28-.52.39-.26.06-.39.53-.45.13-.2.21-.32.38-.26.14-.45.13-.21.19-.38.27-.58.26-.71.33-.45.14h-.52l-.72.06-.33-.06-.19.13-.85-.27-.19-.12-.71-.21-.58-.46-.26-.19-.45-.67-.07-.58-.12-.26-.07-.6-.19-.21v-.39l.12-.33-.26-.33v-.46l-.06-.39.32-.4-.26-.33.45-.46-.05-.2.19-.53-.19-.26.31-.26.14-.6.25-.26.13-.33.13-.39.27-.53.18-.33.07-.46.19-.28.26-.38.14-.41v-.32l.19-.07.19-.4.19-.32v-.33l.4-.19.06-.34v-.14l.39-.46.2-.26.39-.79.32-.6.45-.72v-.13l.33-.53.38-.53.21-.39.12-.19z"/><path id="_4" class="fil0 str0" d="M125.81 39.67l.7-.19.66-.19.38-.08.45-.19.39-.07.52-.4.66-.26.57-.53.39-.32.45-.34.4-.32.58-.2.39-.4.38-.32.59-.54.2-.27.58-.65.72-.6.38-.59.4-.33.96-1.18h.2l-.33 1.58-.12.79-.08 1.05-.06.53.14.66.19.6v.32l.18.47.73.46.19.39.4.07.45.19.9-.05.46-.14h.52l1.93-.92.78-1.05.33-.34-.19-.66-.52.07-.52.45-.58.48-.33.19-.52.34-.85.31-.9.07-.7-.38-.47-.74v-.53l-.12-.6-.07-.65.14-.72.12-.4.07-.79.07-.72.31-.67.07-.46.13-.52.27-.79.38-.79.19-.74.26-.52.2-.53.19-.72.39-1.18.32-.47.14-.27.12-.38.14-.48.38-.65-.07-.53.33-.4.39-.58.2-.26-.14-.41-.32-.65-.32-.33-.4-.2-.52.2-.64-.4-.39-.33-.38-.27-.66-.13-.71-.33-.4.07-.45.13-.45-.13-.45.26-.25-.13-.33.13-.39.07-.53.39-.51.21-.64.39-.33.26-.45.4-.21.46-.45.12-.12.41-.51.26-.14.72-.33.2-.52.26-.19.21-.07.53-.12.45-.52.26-.19.2.19.67-.45.33v.79l-.33.59.07.79-.25.33.25.4-.2.6.2.52.12.27.26.26.2.58.51.27.66.2.45.27h.52l.58.12h.52l.26.08.66-.08.83-.26.58-.2v.13l-.25.53-.59.47-.27.39-.37.45-.4.34-.38.47-.52.39-.14.26-.38.41-.66.45-.51.33-.33.39-.45.21-.58.46-.2.26-.51.27-.45.26-.4.27-.71.32-.7.13-.47.07h-.64l-.72-.07-.52-.13-.52-.32-.64.26v.79l.45.6 1.17.39h1.56v-.01zm7.77-9.36l-1.23-.07-.66-.19-.63-.34-.45-.46-.27-.91.06-.66-.06-.47.19-.78.13-.6.26-.4.51-.92.47-.79.31-.21.72-.98.33-.27.2-.26.37-.39.66-.4.64-.33.4-.32.45-.14.78-.13.65-.26h.26l.78.12.77.6.39.46.13.72-.25.67-.2.79-.26.78-.39.94-.19.84-.59 1.2-.19.52-.26.73-.65.59-.39.33-.72.39-.71.21-1.36.39z"/><path id="_5" class="fil0 str0" d="M163.59 27.68l-.45-.08h-2.46l.26-.85.39-1.06.19-.58.33-.8.14-.4.31-.78.26-.73.4-.66.32-.6.39-.92.06-.66-.33-.46-.12-.07-.39.07-.66.26-.45.4-.12.27-.26.46-.26.6-.26.65-.14.26-.38.93-.07.39-.33.67-.18.71-.26.8-.19.71-.21.67-.26.72h-.58l-1.62-.12-.58.06-.71-.06h-1.03l-1.89-.07.19-.86.33-1.51.19-.67.13-.46.06-.4.14-.46.19-.65.07-.26v-.4l.05-.73v-.4l-.12-.65-.19-.33-.26-.33-.39-.06-.53-.07-.58.13h-.26l-.38.33-.4.26-.25.14-.39.32-.51.66-.53.53-.39.34-.38.45-.26.33-.26.39-.26.34-.4.52-.33.34v.39l.21.2.38.27.4-.14.57-.72.59-.34.19-.45.92-.93.77-.73.45-.45.52-.14.33.19v.4l-.07.27-.05.46-.21 1.19-.19.45-.13.73-.13.53-.59 1.84-.05.27h-1.43l-.45-.13-.47-.2-.57-.2-.46.4.33.72.06.21.33.58.38.14 1.5.07h.31l-.31 1.25-.13.86-.27.79-.18.72-.15.66-.12.39-.13.53-.07.33-.26.6-.12.72-.14.41-.25.72-.06.59-.26.46.05.27.21.45.52.27.96-.2.27-.52.13-.93.05-.27.14-.79.12-.26.14-.73.07-.59.26-.6.05-.46v-.12l.21-.67.05-.26.21-.6.19-.71.12-.46.26-1.06.4-.73.45-.13.71-.07h.58l.59-.07h.58l.9.07.52-.07 1.37.14h.51l-.25 1.05-.39 1.52-.14.26-.18 1.26-.19.59-.08.47-.06.58-.07.34-.12.45v1.6l.12.58.13.4.53.39.64.33.53.14.78.06.82-.2.14-.12.59-.27.64-.47.21-.46.45-.45.38-.46.26-.67.26-.53-.59-.45-.64.19-.52.6-.45.46-.2.33-.83.6-.21.12-.26.07-.64-.19-.19-.53-.14-.6.07-.53-.07-.47.07-.39.12-.45.07-.6.14-.26.19-.6.19-.99.33-1.45.33-1.12.51-.06.64.06.47.06.96-.06.78.13.38-.26.26-.72-.31-.28z"/><path id="_6" class="fil0 str0" d="M189.02 37.37l-.59.19-.33.34-.45.12-.45.21-.46.12-.32.14-.46.06-.26.07-.57.07-.21-.07-.64-.07-.32-.2-.52-.26-.07-.07-.38-.32-.07-.4-.33-.39.07-.52-.19-.6v-.21l.05-.53v-.65l-.19-.72.14-.27v-.4l.31-.59-.12-.33.07-.8.38-.53-.06-.57.25-.53.07-.33.33-.47v-.46l.12-.27v-.45l.33-.47.13-.59-.06-.41.39-.38.26-.53v-.99l.19-.33v-.26l.33-.53.12-.33.19-.46.33-.52-.12-.34-.07-.14.19-.39-.26-.33-.19-.26-.45.14-.46-.27h-.45l-.71.13-.21-.07-.38.07-.45-.46-.4-.14-.45-.52-.51-.13-.85.07-.38-.21-.99.07-.51-.13-.85.27h-.31l-.2.26-.32.06-.33.26-.45.21-.13.32-.45.21-.33.39-.66.33-.25.33v.27l-.58.26-.06.39-.4.33-.26.27-.45.33.14.33-.4.26-.33.46-.26.27-.06.26-.12.13-.14.4-.31.12-.26.47v.32l-.21.14-.19.33-.26.53-.12.2-.21.19-.19.4-.12.6-.4.32.19.47v.26l-.31.39-.2.33-.13.34-.07.19v.39l-.06.21-.06.46-.13.12-.2.27.26.59-.18.21v.46l.05.52-.05.34.05.38.07.33.19.41v.39l.39.59.12.46.26.33.21.39.31.41.47.39h.19l.71.26h.39l.12.07.85.13.52-.06.4-.27h.18l.39-.33.26-.13.77-.26.27-.26.65-.53.7-.47.27-.39.32-.26.33-.4.33-.47.19-.33.06-.12.39-.53.26-.4.19-.33.39-.46.39-.53.46-.66.12-.46.47-.65h.31l-.05.72-.07.59.07.53-.07.53-.19.33.19.32-.07.47-.19.39.33.26-.07.46v.48l.26.45-.14.6.33.46.26.52.26.34.45.39.39.33.65.33.2.07.64.27.33-.08.45.13.46-.05.64-.21h.4l.52-.33.45-.06.25-.14.52-.13.26-.19.38-.21.54-.32.31-.26-.13-.48-.51-.12zm-6.29-15.04l-.07.39-.06.6v.19l.06.21-.19.27-.26.65.06.66-.57.79.05.34v.26l-.38.2-.26.38-.07.27-.19.26-.14.33-.26.53-.31.4-.14.19-.26.6-.07.13-.12.33-.46.46-.06.21-.26.19-.06.19-.2.46-.39.4-.26.46-.33.41-.31.52-.26.19-.14.41-.26.31-.45.48-.32.52-.38.39-.59.48-.4.31-.33.34-.9.4-.45.26-.58.13-.78-.33-.47-.2-.25-.65-.45-.26.07-.53-.07-.47-.26-.39.07-.67V34l-.07-.39.19-.26.14-.53-.14-.14v-.39l.26-.59-.06-.2.19-.47.13-.39.2-.4.26-.39.06-.26v-.4l.06-.33.27-.26.39-.47.12-.46.46-.6.2-.26.45-.33-.12-.32.31-.34.14-.45.38-.26v-.34l.58-.6v-.12l.26-.33.47-.34.26-.4.19-.19.32-.19.19-.2.45-.27.52-.46.33-.39h.38l.66-.33h.45l.91-.13.64.13.26-.08.52.21.59.32.25.21.45.32.21.4z"/><path id="_7" class="fil0 str0" d="M232.2 36.05v-.4l-.46-.2-.53.13-.05.33-.26.34v.59l-.2.2v.46l-.32.4-.26.45-.32.46-.2.07-.13.27-.2.45-.45.14-.13.46-.26.14-.26.33-.14.13-.31.19-.32.4-.45.34-.78.46-.66.32-.38.39-.52.27-.51.07-.4.39-.45.33-.39.14-.46.13-.39.13-.45.13-.64.26-.59.19-.26.07-.71.14-.26.13-.27.07-.52.06H218l-.39-.06h-.65l-.65.06h-1.42l-.39.08h-.78l-.78-.08-.45-.13-.26-.06h-.53l-.26-.07-.64-.21-1.3-.53-.4-.26-.45-.05-.32-.4-.52-.46-.19-.14-.52-.39-.13-.2-.32-.2-.26-.58-.26-.34v-.19l-.33-.34.13-.33-.19-.26-.19-.67-.2-.05.13-.67-.13-.39.27-.4-.14-.13v-.4l.14-.38.05-.48.13-.26.2-.92.13-.2.26-.32.19-.67.26-.33.33-.53.19-.19.19-.33.78-.99.72-.46.13-.21.51-.45.07-.2.45-.26.14-.07.38-.12.32-.48.39-.19.46-.39.38-.47.47-.2.26-.26.19-.07.58-.27.52-.52.64-.33.47-.26.71-.32.58-.41.38-.12.71-.47.52-.39.79-.34.65-.45.58-.46.64-.33.46-.33.39-.27.58-.53.59-.33.57-.39.33-.47.46-.27 1.3-1.05.52-.46.64-.45.59-.53.51-.59.66-.67.57-.53.91-1.37.33-.6v-.26l.38-.53.14-.27.31-.59v-.41l.26-.38.14-.67.19-.79.19-.33V8.75l-.12-.66v-.46l-.33-.53v-.26l-.58-.48-.39-.19-.26-.59-.65-.39-.39-.07-.18-.33-1.11-.59h-.72l-.52-.06-.45-.2-.58.12h-.98l-.84-.06-.45.2-.78-.06-1.17.19-1.49.33-1.03.26-.66.34-.7.19-1.04.46-.19.19-.45.21-.33.32-.71.26-.46.28-.33.19-.45.39-.38.6-.66.4v.13l-.26.26-.65.4-.06.32-.32.14-.45.52-.4.53-.33.86.07.27-.07.6.07.26-.12.65.26.33.12.27.45.72.66.14.19.19.98.4h.83l.72-.33.13-.66-.33-.6-.32-.39-.2-.14-.52-.38-.19-.6v-.79l.4-.6.38-.46.52-.67.51-.45.4-.39.33-.4.26-.13.51-.33 1.35-.79.92-.33.58-.41.78-.26.85-.27.83-.31.72-.07.9-.19.73-.08.89-.13h2.01l.84.21.45.19.54.19.45.4.33.39.31.48.39.57.2.67.06.72-.13.53v.33l-.06.13-.26.73-.06.65-.26.53-.4.67-.26.39-.31.73-.46.53-.45.46-.33.46-.38.4-.47.52-.9.92-.58.47-.78.65-.78.74-.52.39-.26.26-.78.53-.58.53-.59.45-.83.6-.72.4-.33.2-.31.33-.46.12-.2.14-.58.32-.58.4-.46.2-.38.26-.45.27-.4.2-.66.27-.51.39-.71.4-.38.12-.4.46-.26.07-.51.2-.33.33-.52.07-.52.65-.58-.06-.06.2-.47.33-.25.19-.12.27-.59.07-.19.52-.07.27-.45-.07-.26.33-.33.39-.26.26-.25.34-.2.4-.46.26-.32.53-.46.46-.31.72-.2.47-.2.19-.19.39.07.53-.26.26-.07.74-.13.07-.12.91-.2.79.06.27v.46l.06.33.33.4-.13.39.46.26v.74l.45.39-.07.45.52.21v.46l.45.59v.13l.26.26.46.34.71.72.4.27.38.18.26.34.39.26.38.21.45.19.33.08.2.12.46.14.26.12.7.14.33.19h.45l.52.13.19.07.47.14.45.05.38.07.46.08.52.06h1.16l.4-.06.7.12.45-.12.33.06h.2l.39.13.38-.07.39-.27.53.07.25-.19.4-.14.52.07.9-.26.39-.13.32-.14.52-.12.32-.34.73-.19.18-.33.39-.14h.51l.27-.2.51-.19.21-.33.52-.07.31-.53.4-.33.45-.26.51-.2.4-.26.59-.6.25-.39.45-.45.65-.81.06-.19.26-.13.26-.47.14-.58.19-.47.13-.27.32-.46v-.26l.19-.79z"/><path id="_8" class="fil0 str0" d="M239.59 39.29l.51-.14.65-.2.39-.14h.26l.06-.58.39-.47.52-.26.19-.59.2-.4 1.04-1.06.38-.52.26-.46.52-.6.4-.46.32-.32.26-.34.32-.4.58-.65.33-.6v.34l-.07.52-.19.72v.41l-.19 1.17.12.48.07.65-.13.52.06.74.07.91.33.53.31.67.78.19.78.13.46-.13.71-.33.52-.72.58-.72.53-.67.25-.53.45-.46.52-.73.45-.53.28-.39.45-.4.51-.46-.14.93v.66l-.05.72.05.73-.12.72.12.6.08.59.13.2.97.99.32.14.39-.08.26.08.91-.41.97-.39.45-.26.58-.33.33-.46 1.16-1.05.2-.41-.32-.46-.45.39-.33.14-.39.2-.58.33-.78.39-.46.14-.71.19-.7-.07-.4-.53v-.91l.13-.66.19-.34-.06-.65.32-.73.07-.73.38-1.05.4-.79.26-.86.19-.39.13-.34.2-.45.26-.53.25-.73.26-.59.07-.74.2-.19.51-1.58v-.39l.45-.8.26-.65.33-.8.26-.26.12-.93.33-.91-.19-.26-.71-.34h-1.04l-.26.53-.14.4-.19.53-.18.84-.27.27v.59l-.2.53-.38.26.06.27-.32.59v.46l-.46.53v.79l-.13.33-.32.27-.07.59-.26.46v.34l-.64 1.31-.14.53-.12.46-.4.47-.45.65-.38.53-.59.46-.97 1-.39.45-.19.33-.33.13-.4.66-.3.53-.33.33-.2.39-.77.79-.85.41-.33-.2-.07-.52-.12-.34.19-1.31-.07-.48-.06-.39.13-.33v-.45l.2-.67v-.53l.13-.39.12-.33-.05-.53.26-.59.19-.86v-.46l.26-.53.12-.4.21-.53.05-.58v-.4l.26-.53.14-.2.19-.72.32-.47.13-1.05.25-.72v-.53l.47-.67.06-.19.13-.6.19-.52.14-.27-.21-.46-.25-.26h-.2l-.77-.12-.59.32-.05.26-.26.59-.4.6.07.2v.4l-.4.45-.12.4-.19.99-.27.46v.52l-.2.41-.18.72-.07.2v.26l-.45.72-.19.79-.21.14-.06.53-.25.4-.26.52-.4.53-.26.39-.19.33-.26.34-.39.45-.38.66-.92.93-.45.6-.51.65-.4.4-.26.52-.32.39-.39.4-.26.41-.52.39-.39.52-.45.34-.45.12-.26-.32-.14-.26-.05-.86.26-1.26.19-.73.12-.59.14-.72.33-.99.38-.79.07-.52v-.41l.44-.92v-.32l.27-.41v-.33l-.08-.39.08-.46.39-.74.07-.38.31-.53.07-.46v-.73l.4-.46.12-.72v-.53l.06-.4.07-.26.32-.46.13-.67v-.79l-.39-.32-.45-.26-.64-.21-.59-.26-.85.33-.58.26-.52.4-.45-.06-.4.52-.25.46-.38.07-.4.46-.19.72.07.53.58.47h.26l.31-.07.26-.6.33-.38.59-.6.26-.33.38-.2.46-.19.26.05.26.26-.14.48v.58l-.26.6-.18.26v.4l-.07.32.07.34-.07.26-.38.53-.14.59-.13.07v.53l-.32.53v.12l-.14.67v.65l-.31.66-.33.6v.26l-.26.46.07.14-.14.65-.07.53-.19.4-.38.92.06.79-.19.86-.26.46-.07.73v.6l.13.32v1.05l-.13.47.13.2.2.65.51.33.52.07z"/><path id="_9" class="fil0 str0" d="M286.79 3.61l-.07-.46-.2-.6-.26-.47-.32-.39-.25-.33-.33-.26-.14-.2-.38-.19-.45-.14-.4-.07h-.84l-.52.14h-.45l-.33.12-.45.07-.45.46-.39.14-.52.39-.26.07-.12.26-.4.21-.39.32-.2.4-.45.19-.18.27-.27.33-.46.33-.26.32-.38.6-.4.4-.31.46-.2.33-.39.39-.13.33-.38.41-.07.19-.33.46-.33.66-.26.32-.25.47-.32.66-.26.26v.45l-.33.27-.33.54-.06.39-.26.67-.19.19-.39.79-.13.67-.19.46-.07.19-.33.66-.19.32-.12.27-.26.78-.27.34-.13.46-.13.33-.13.2v.33l-.51.4-.52.53-.26.33-.71.53-1.36 1.37-.26.14-.4.53.47.65.78-.26.7-.66.2-.26.44-.33.59-.46-.45 1.58-.26 1.05-.26.99-.26.79-.25.93-.2.98-.25.6-.08.33v.53l-.25.33.12.27-.19.45-.07.73-.12.26v1.19l-.07.32.07.6-.14.26.2.41-.25.26.19.6.06.52.06.46.2.59.19.73.12.19.47.47v.27l.38.19.4.39.26.07.64.26.39.2.64.07.33-.07.2-.06.65-.21h.45l.45-.05.13-.27h.13l.46-.26.31-.07.14-.2.52-.33.26-.45h.19l.39-.27.52-.6.45-.4.45-.46.07-.45.52-.4.26-.34.26-.19.26-.39.33-.4.25-.4.33-.32.2-.79.25-.48.33-.26.12-.27.33-.31.19-.74.2-.46.32-.19.33-.66.13-.46.12-.53v-.26l.2-.4.06-.39v-.27l.27-.53.06-.26v-.52l.07-.53v-.53l-.07-.33-.14-.34.08-.45-.08-.33-.19-.34-.26-.65-.38-.45-.58-.6-.52-.34-.59-.33-.58-.19-.45-.2h-.45l-.21-.07-.38-.07-.45.07-.46.14h-.39l-.26.2h-.33l-.25.26-.52.39-.26.26-.45.33-.39.67-.33.32-.32.4-.2.53-.26.33-.64.79-.45.72-.79.14.13-.52.07-.4.26-.67.13-.53.25-.46v-.19l.14-.33-.07-.34.33-.31.06-.48.32-.38.2-.34.52-.72.52-.4.31-.27.27-.19.39-.46.58-.26.39-.48.46-.26.26-.39.45-.33.33-.19.51-.46.32-.33.26-.4.4-.27.64-.65.46-.27.38-.26.39-.21.27-.39.38-.26.33-.26.39-.27.26-.33.31-.26.52-.41.66-.72.26-.19.33-.26.63-.67.4-.32.19-.14.33-.33.19-.27.33-.31.33-.4.64-1.06.18-.6.21-.53.12-.71-.05-.53zm-1.62.65l-.14.66-.26.6-.33.53-.45.58-.78.93-.39.33-.64.53-.26.33-.19.26-.47.39-.37.41-.33.39-.59.4-.26.19-.38.46-.33.26-.39.21-.32.19-.39.34-.19.19-.45.53-.52.39-.52.47-.66.59-.32.32-.78.6-.64.67-.78.65-.52.33-.65.53.45-1.58.47-.99.31-.47.26-.66.33-.73.51-.91.33-.6.39-.53.39-.85.78-1.19.25-.59.46-.53.25-.19.07-.26.39-.41.32-.46.14-.4.32-.26.2-.33.38-.39.32-.27.33-.4.59-.65.71-.46.52-.47.51-.32.45-.13.78-.2.78-.07.46.14.38.26.26.32.14.6.07.72zm-15.11 22.55l.51.07h.45l.52-.26.07-.33.14-.46.31-.33v-.2l.2-.26.13-.2.19-.47.21-.32.25-.47.12-.33.2-.46.33-.19.25-.34.26-.38.14-.08.45-.4.19-.26.52-.19.06-.2.45-.19.4-.27h.45l.26.13h.52l.19.07.91.46.38.45.14.26.33.74v.46l.12.53v.19l-.05.67v.19l-.4.99v.4l.14.26-.4.46-.26.6.12.39-.31.2-.14.2-.06.59-.39.07.07.65-.2.34v.26l-.38.39-.33.26-.07.4-.26.2-.05.6-.4.33-.12.38-.4.2-.26.6-.45.4-.26.6-.25.19-.46.39-.27.4-.18.07-.08.39-.51.33-.19.33-.39.34-.39.39-.12.06-.47.39-.78.27-.31.14-.33-.07h-.39l-.26-.2-.39-.26-.39-.41-.19-.38-.33-.33-.06-.39-.27-.55v-.45l.07-.66v-.46l.14-.39.06-.48.06-.72.07-.26.12-.33v-.2l.14-.65.26-.79v-.4l.19-.39.07-.47.26-.65.19-.41v-.19l.14-.6h.45z"/><path id="_10" class="fil0 str0" d="M291.06 43.43h.39l.45-.19.52-.07.45-.27.52-.06.33-.33.52-.2.39-.13.39-.45.65-.4.58-.73.58-.86.32-.59.07-.39.19-.47-.12-.33-.33-.33-.52.53-.32.53-.39.26-.39.6-.45.45-.4.34-.33.33-.37.27-.45.26-.33.19-.59.2-.33.19-.45.07-.78.07-.58-.07h-.52l-.58-.07-.52-.06-.57-.13-.33-.13-.52-.14-.4-.33-.25-.13-.39-.4-.39-.79-.52-.46-.07-.4-.06-.26-.32-.26.26-.33v-.73l-.07-.39v-.26l.07-.46-.07-.26.19-.28.07-1.11.19-.53h.52l.33.13.18.07.4-.07.52.07.71-.2.65.13.45-.13.26-.14.45-.19h.4l.38-.07.46-.07.26-.2.52-.18.45-.22.4-.12.71-.2.45-.33.32-.33.39-.13.46-.4.26-.38.38-.14.33-.39.26-.21.14-.19.45-.34.33-.26.3-.59.33-.33.26-.59.21-.46.19-.33.12-.53v-.6l-.26-.72-.33-.33-.25-.46-.32-.26-.58-.34-.2-.19-.26-.07-.2-.07-.38-.39h-.66l-.38-.2-.2-.06-1.35.39-.14-.07-.64.07-.4-.07-.26.33-.26.14-.65.13-.31-.13-.14.39h-.39l-.51.4-.2.19-.91.6-.45.39-.32.14-.4.26-.31.12-.14.6-.12.27-.2.33-.59.33-.26.2-.06.26-.13.33-.52.2.07.46-.59.92h-.12l.05.65-.26.27-.25.4v.27l-.27.65-.12.4.19.13-.25.4-.27.6.07.26.07.6-.33.45-.07.39.07.67-.13.26.32.53-.06.45-.06.53.39.14.13.6-.13.12v.6l.18.39.4.07.26.53.26.33.19.07.07.46.33.4.18-.08.59.27.12.46.59.07.52.33.52.26h.45l.39.2h1.16l.59.12.77.07h.01zm-4.54-10.94l-.19-.46.06-.21.08-.58.12-.4.25-.46.21-.33.38-.6.14-.32.12-.21.19-.38.33-.41.25-.39.53-.14.25-.45.33-.27.33.07.64-.47.19-.32 1.05-.52h.52l.45-.48.59-.05.38.05.85-.32.84.2.64.19.33.19.32.48.13.52-.13.65-.26.53-.32.46-.33.4-.32.34-.32.38-.4.27-.38.4-.39.33-.64.46-.52.39-1.69.86-.45.13h-.47l-.26.2h-.38l-.33.2-.33.06-.45-.06-.25.13h-.52l-.33.13-.38-.13-.47-.07.01.01z"/><path id="_11" class="fil0 str0" d="M320.04 27.68l-.45-.08h-2.47l.26-.85.39-1.06.2-.58.33-.8.12-.4.33-.78.25-.73.4-.66.31-.6.4-.92.06-.66-.32-.46-.14-.07-.38.07-.66.26-.45.4-.12.27-.26.46-.25.6-.27.65-.13.26-.38.93-.07.39-.33.67-.19.71-.26.8-.2.71-.19.67-.26.72h-.59l-1.61-.12-.59.06-.72-.06h-1.03l-1.87-.07.19-.86.33-1.51.19-.67.12-.46.07-.4.13-.46.19-.65.08-.26v-.4l.05-.73v-.4l-.13-.65-.19-.33-.26-.33-.39-.06-.52-.07-.59.13h-.25l-.39.33-.39.26-.26.14-.38.32-.52.66-.52.53-.39.34-.39.45-.26.33-.25.39-.26.34-.4.52-.33.34v.39l.21.2.38.27.4-.14.57-.72.58-.34.2-.45.91-.93.78-.73.45-.45.51-.14.33.19v.4l-.07.27-.05.46-.21 1.19-.19.45-.12.73-.14.53-.58 1.84-.07.27h-1.42l-.45-.13-.46-.2-.57-.2-.47.4.33.72.07.21.32.58.39.14 1.48.07h.33l-.33 1.25-.12.86-.26.79-.19.72-.14.66-.12.39-.14.53-.06.33-.27.6-.12.72-.13.41-.26.72-.06.59-.25.46.05.27.2.45.52.27.97-.2.26-.52.12-.93.07-.27.14-.79.12-.26.14-.73.05-.59.26-.6.07-.46v-.12l.19-.67.07-.26.2-.6.19-.71.13-.46.25-1.06.4-.73.45-.13.71-.07h.59l.58-.07h.59l.9.07.52-.07 1.36.14h.52l-.26 1.05-.38 1.52-.14.26-.19 1.26-.19.59-.07.47-.07.58-.07.34-.12.45v1.6l.12.58.14.4.52.39.64.33.52.14.78.06.84-.2.14-.12.59-.27.63-.47.2-.46.46-.45.38-.46.27-.67.25-.53-.58-.45-.65.19-.51.6-.45.46-.21.33-.85.6-.18.12-.27.07-.63-.19-.21-.53-.12-.6.07-.53-.07-.47.07-.39.12-.45.06-.6.13-.26.2-.6.2-.99.32-1.45.31-1.12.54-.06.64.06.45.06.98-.06.78.13.38-.26.26-.72-.33-.28z"/><path id="_12" class="fil0 str0" d="M346.5 35.79l-.07-.34-.32-.06-.45-.07-.66.07-.32.06-.51-.06-.66.06-.97.27-.06-.93.25-1.18v-.4l.14-.2v-.4l-.06-.26.06-.12v-.2l.12-.27v-.66l.14-.46-.07-.66.12-.59.07-.59-.07-.46.07-.47-.07-.46v-.66l.07-.13-.07-.33-.31-2.04.06-.53-.06-.59.12-.53v-.46l-.45-.47-.26-.13-.25-.33-.92-.19-.45.19-.26.79-.13.14-.06.32.32.33v.4l-.26.6v.59l-.27.46v.13l.14.46-.19.4-.2.53-.12.52-.4.6-.13.46-.25.46-.07.14-.26.45-.07.34-.38.78-.19.53-.4.6-.13.39-.2.33-.9 1.39-.51.33-.33.53-.19.26-.14.06-.19.21-.45.31-.59.48-.45.33-.65.19-.39.2-.58.4-.58.13-.2.19h-.32l-.33-.19-.32-.08h-.58l-.39-.26-.59-.32-.45-.54-.52-.32-.39-.93-.06-.65-.07-.59-.07-.48.07-.32.13-.47.2-.53-.13-.45.06-.47.33-.59.05-.12.07-.34.07-.52.07-.2.05-.33.21-.47.38-.59.07-.46.26-.54.26-.38.13-.46.12-.33.2-.46.25-.33.14-.2.26-.54.45-.52.52-.79.33-.39.58-.27.19-.19.59-.26.52-.22h.26l.64-.05 1.36.58.45.14.4.39v.6l.07.46.12.26.45.47h.26l.26.13.33-.13.39.07.39-.54.2-.12.38-.53-.12-.53-.52-.07-.4-.46-.32-.33-.2-.33-.06-.39h-.59l-.31-.07-.14-.27-.32-.52h-.27l-.71-.27-.26.08-.45-.08-.13-.33-.45-.12-.52.12h-.84l-.53.07-.63.4-.14.32-.52.07-.33.07v.46l-.51.14-.06.45h-.39l-.13.53-.51.39-.33.53-.26.26-.33.47-.07.32-.45.34-.14.33.08.46-.2.2-.19.32-.32.27.06.33-.46.19.07.4-.12.39-.33.53-.14.74-.05.26.05.19-.31.53-.14.34.07.65-.19.52-.27.67-.06.39v.67l.33.78v.07l-.07.46.07.6.26.72.26.53.12.33.4.46.25.33.52.53h.45l.39.33.13.19.26.27.65.07h.45l.26.12.39-.06.13.13.45.2.59-.2.51-.26.53-.07.37-.06.33-.4.66-.12.26-.27.33-.14.31-.26.39-.2.26-.19.27-.33.51-.34.33-.33.26-.46.45-.26.12-.4.4-.39.19-.4.2-.34.31-.26.4-.46.13-.26.13-.33.26-.32.19-.34.14-.33.05-.26.26-.39.14-.53.12-.26.39-.53v-.47l.33-.33.19-.39.12-.46.26.58-.05.4v.61l-.26.52v.33l.05.2v.59l-.05.72.05.27-.05.19-.2.46-.06.14v.39l.12.73-.32.6.06.19-.19.65.07.41-.07.86-.18.38-.73.14-.26.13-.51.07-.32.19-.59.33-.32.2-.26.14-.4.33-.45.12-.51.34-1.3.79-.71.39-.78.47-.26.12-.72.48h-.39l-.58.79h-.38l-.21.26-.25.2-.71.33-.59.58-.52.21-.19.32-.45.26-.26.4-.39.07-.27.2-.38.26-.32.46-.26.26-.59.21v.19l-.33.46-.57.2-.26.73-.39.12-.08.2-.58.26-.05.22-.33.38-.19.27-.72.33-.32.33-.21.39-.18.47-.4.19-.26.34-.19.12-.52.4v.27l-.38.32-.33.14-.32.45-.33.67-.52.39-.05.14-.59.46-.4.52-.52.46-.06.26-.52.6-.19.07v.27l-.07.38-.32.33-.2.46-.31.48-.14.31-.59.47-.12.53-.06.2v.33l-.39.33-.14.19-.25.27v.65l-.13.33-.2.2-.12.21-.14.39v.4l-.12.52-.21.34.21.32.06.59.12.14.27.46.13.53.2.33v.26l.58.27.19.39.52.2.19.2.45.06.52.2.65.26.38-.07.54.07.38.13h1.23l.84-.2.45-.12h.66l.25-.21h.45l.4-.26.26-.2.52-.26.19-.14.59-.26.32-.13.32-.07.46-.39.52-.33.64-.19.26-.34.52-.19.26-.26.52-.34.58-.33.45-.26.4-.46.32-.4.72-.46.51-.72.45-.4.21-.34.52-.32.57-.52.26-.48.39-.45.33-.41.26-.31.52-.6.19-.26.51-.67.59-1.18.39-.33.2-.34.31-.59.21-.12.25-.46.13-.53.19-.53.26-.14.26-.33-.06-.32.26-.59.26-.27.26-.59.19-.2.07-.53.07-.26.26-.47.12-.46.33-.33.38-.85.26-.59.2-.34v-.65l.19-.07.26-.47.13-.53.13-.45.13-.39.26-.6-.06-.34.31-.65.14-.52.12-.48.21-.79.19-.33.12-.58.14-.21v-.32l.32-1.12.39-.46.91-.4.39-.07h.46l.57-.19.46-.13.71-.14.33-.19zm-6.75 2.83l-.12.98-.2.74-.2.6-.26.26-.26.53.07.78-.07.39-.26.34v.46l-.31.59-.21.26-.19.39v.94l-.19.45-.46.6-.19.72-.2.59-.39.6-.31.34.12.39-.59.52-.19.26.19.4-.31.27-.14.53-.33.26v.39l-.31.47-.2.39-.39.46-.06.26-.33.4-.32.53-.58.59-.21.34-.26.31-.12.27-.4.47-.18.33-.59.59-.19.4-.26.2-.39.38-.51.41-.33.33-.26.39-.46.47-.31.39-1.04.79-.66.66-.58.2-.12.33-.66.27-.32.33-.46.32-.38.06-.4.27-.38.2-.33.13-.58.39-.38.07-.4.33-.59.2h-.58l-.38.33h-.33l-.52.27h-.33l-.45-.15-.32-.12-.39.12-.45.15-.53-.27h-.45l-.9-.46-.26-.47-.32-.32-.15-.53v-.59l.15-.67v-.45l.18-.73.33-.59.12-.14v-.58l.33-.34.14-.33.26-.53.05-.4.14-.12.45-.67.07-.46.33-.45.18-.2.14-.33.19-.19.26-.22.07-.38.45-.19.38-.34.07-.4.19-.34.52-.45.46-.39.12-.33.33-.07.26-.46.45-.53.4-.33.33-.33.38-.58.52-.41.13-.26.26-.19.32-.34.65-.4.4-.32.25-.26.32-.53.13-.21.65-.65.51-.4.4-.46h.26l.38-.65.4-.14.91-.67.32-.39.51-.19.21-.53.52-.47.51-.12.32-.27.52-.26.2-.33.52-.08.51-.78.52-.06.2-.21.91-.38.57-.53.78-.41.47-.26.38-.19.45-.2.51-.2.28-.39.38.06.77-.59.33-.14.59-.13-.21.99h.01z"/><path id="_13" class="fil0 str0" d="M51.76 52.34l-.33.19-.32.14-.32.06-.46-.06-.45.19-.64.07-.21-.13-.05-.07-.66-.06-.45-.33-.58-.2-.14-.14-.19-.06-.59-.66-.38-.07-.26-.59-.26-.32-.33-.34-.25-.47-.38-.72-.14-.26-.19-.33-.19-.73v-.59l-.14-.32-.19-.26v-.6l-.14-.74.14-.53-.14-.52-.05-.39.12-.6-.07-.45v-.6l.21-.34-.07-.45.07-.53v-.93l.12-.39.07-.33.19-.65.07-.86v-.19l.26-.53.07-.4.12-.6.13-.46.06-.33.14-.72.26-.34v-.92l.12-.66.2-.46.19-.32.07-.6.12-.27-.12-.26.12-.53.26-.46.14-.13-.07-.85.12-.4.21-.08-.07-.45.26-.6-.14-.19.26-.26-.12-.67.33-.13v-.59l.26-.39.06-.14.2-.65.32-.66.05-.87.08-.38.25-.67.33-.86.2-.85.32-.93.12-.59.21-.34.19-.45.33-.6.05-.39.2-.6v-.45l.06-.26.2-.67v-.72l.06-.41v-.38l-.12-.67v-.39l-.07-.47v-.46l-.13-.46-.39-.78-.59-.53-.71-.53-.59-.46-.63-.21-.52-.12h-.66l-.71.07-.65.19-.57.2-.47.14-.71.12-.19.14-.51.12-.33.07-.45.39-.59.41-.45.19-.46.26-.38.27-.33.26-.52.33-.33.53-.45.19-.14.14-.25.34-.45.38-.33.46-.38.21-.33.39-.26.33-.45.39-.32.47-.27.27-.18.33-.21.26-.2.19-.25.46-.19.2-.19.26-.33.47-.33.53-.33.39-.45.59-.33.67-.18.32-.45.53-.26-.06.12-1 .07-.53.07-.59.12-.39.06-.4.2-.58v-.27l.13-.53.08-.59.04-.07.08-.39v-.74l.06-.45v-.72l-.06-.74.06-.27-.14-.38v-.53l-.12-.4v-.12l-.25-.6-.26-.46-.19-.6-.26-.33-.4-.12-.39-.74-.32-.13-.13-.19-.53-.14-.37-.26h-.47l-.31.07-.33-.14-.39.07-.26.19-.39.14-.39.07-.52.13-.71.4-.4.39-.38.26-.25.26-.4.34-.31.12-.66.67-.26.19-.19.33-.4.34-.26.45-.58.72-.64.48-.19.26-.46.53-.32.32-.07.14-.65.79-.45.66-.26.39-.19.46-.07.07-.66.53-.45.92-.32.47-.39.52-.32.33-.07.39-.26.41-.26.26-.26.39-.19.47-.19.58-.32.47-.39.46-.14.39-.06.4-.26.19-.19.53-.07.27-.26.52-.19.6-.19.19-.33-.05.12-.41-.12-.59v-.32l.07-.28v-.46l.12-.45.14-.67v-.65l.19-.46.33-.53.19-.59.06-.53v-.53l.08-.26.18-.27.13-.47.14-.39v-.59l.12-.26.13-.46.07-.53.19-.4.19-.06.07-.47.07-.53-.07-.33.13-.38.25-.08.07-.6.14-.26.05-.53-.05-.65.05-.13.14-.53v-.26l.07-.27-.26-.65.12-.27-.12-.26-.33-1 .19-.31-.19-.48.12-.46-.25-.19-.58-.6v-.13l-.2-.27-.39-.12-.58-.4-.45-.2-.4-.07-.7.4h-.53l-.19.2-.32.14-.4.26-.26.06-.45.59-.33.27-.32.19-.2.4v.19l-.51.27-.2.26-.06.53-.64.27-.26.4-.21.39-.25.26-.2.6v.32l-.33.27-.45.26-.13.07-.12.46-.4.46v.4l-.19.27-.26.07-.12.26-.4.91-.07.34-.38.13-.39.33.06.47-.19.52-.06.2-.52.33-.33.39-.05.4-.21.26v.32l-.31.21v.65l-.28.34-.31.4-.26.52-.2.46.13.27-.39.79.26.12.07.21v.32l.06.4.64.2.33.19h.4l.71.14.19-.14.32-.12v-.67l.08-.39-.33-.33v-.39l-.07-.14.13-.19-.06-.46.13-.53-.07-.26.07-.54.32-.13.33-.19-.2-.33.2-.6.18-.2.4-.79v-.33l.19-.19.19-.53.21-.4.12-.2v-.79l.4-.33v-.39l.05.06.39-.2.27-.45.32-.53.26-.46.45-.14-.12-.33.12-.39.26-.4.14-.12.12-.34.4-.26.37-.67.46-.39.07-.26.32-.33.38-.2.21-.33.52-.2.19-.19.39-.6.13-.13.39-.13.45-.14.12-.12h.59l.59.05.19.34.26.4-.26.26.39.46-.18.4.12.85-.2.33-.13.26.13.6-.19.6-.06.26.25.32-.13.07-.12.74v.26l-.4.31.07.34.07.46v.14l-.26.52-.07.27v.72l-.14.26-.19.33-.12.6v.53l-.07.26-.06.2-.2.52-.07.4v.53h-.06l-.06.46-.06.4-.2.65-.13.34.06.38-.14.27v.53h.08l-.2.4-.06.53-.13.39v.66l-.46.93-.07.32v.26l.07.53-.26.47-.26.27.07.58-.07.4.07.45-.33.6-.12.34.19.65v.4l-.39.53-.2.19.4.6-.07.33-.4.59-.05.46.12.46-.19.34v.12l-.18.4-.27.46.27.41-.33.45-.08.2.2.47v.84l-.26.67-.12.26.18.6-.45.39.13.4-.31.58-.21.6.07.21v.39l-.07.4-.19.65.07.2-.14.4-.31.33-.07.46.26.33.07.39-.26.4.12.27-.19.59.26.32.45.4.26.2.39.06h.26l.52.13.52-.13.38-.4.26-.58.14-.28-.21-.45.14-.79.07-.6.12-.53.07-.46.33-.45-.07-.41.13-.39.06-.26v-.52l.21-.6v-.67l.04-.38-.04-.08.04-.26.14-.26.07-.39.05-.47v-.32l.07-.26.14-.48-.06-.46.25-.32.2-.53-.08-.46-.05-.34-.07-.39.33-.46.19-.53-.07-.53v-.33l.19-.66.14-.4.26-1.05.07-.32.26-.33.33-1 .25-.59.06-.73.39-.46.12-.65.66-1.32.07-.4.19-.26.19-.53.14-.33.19-.2.19-.26.19-.4.13-.46.26-.46.19-.53.26-.4.19-.19.33-.46.33-.53.39-.47.27-.19.18-.46.2-.2.25-.47.33-.39.38-.45.21-.27.12-.26.45-.4.4-.39.12-.27.33-.47v-.12l.33-.47.12-.06.27-.21.2-.26.37-.39.33-.26.26-.46.4-.21.18-.33.27-.27.32-.39.52-.18.38-.53.52-.41.45-.06.33-.27.65-.19.45-.27.66-.06.52.06.45.14.18.06.27.33.19.26.32.27.2.4.06.53.27.72-.2.26.2.53-.2.6v.26l-.07.12.07.34-.13.33.13.66-.19.2-.14.46-.19.52v.07l.19.53-.25.46v.26l-.07.4-.13.47-.13.59-.12.46v.6l-.08.26-.25.52-.07.46-.26.67-.19.32v.47l-.45.79.13.26-.13.6v.52l-.32.59v.47l-.33.27.06.38-.06.34-.12.39.06.46-.2.27-.39 1.06-.06.26-.27.59v.66l-.18.4-.07.45-.14.54-.06.19-.06.4-.14.46v.26l-.12.46.07.26-.07.21-.26.53-.14.72v.2l-.19.39v.34l-.12.53-.21.45-.12.46.07.2-.07.46-.14.39-.12.73v.78l-.25.34.12.53-.12.4.12.38-.12.48-.08.39.08.13-.14.59-.19.66.07.73-.14.33v.59l.07.39-.07.53.26.14.26.33.39.53h.59l.26-.4.38-.39.19-.67-.19-.52.07-.07.19-.46.07-.72-.14-.4.21-.46.18-.34-.13-.39.13-.46-.06-.54.26-.38-.06-.33.06-.67.39-1.05v-.53l-.06-.39.33-.66.12-.39.13-.46-.19-.53.19-.33.33-.4.05-.53-.18-.2.25-.33-.07-.65.33-.47-.06-.53.19-.59.06-.33.26-.4.07-.46.06-.4.08-.52.19-.39.06-.34.06-.52.14-.13.25-.4-.06-.19v-.33l.19-.41v-.32l.2-.47.26-.53.19-.72.12-.45.26-.41.14-.52.26-.53.26-.27.25-.45.33-.34.26-.33.27-.39.25-.45.26-.27.19-.47.33-.32.26-.53.33-.47.64-.79.32-.53.33-.46.26-.26.38-.59.33-.34.39-.46.45-.52.33-.53.26-.4.64-.59.4-.47.52-.45.45-.27.52-.46.51-.19.26-.28.45-.19.14-.2.52-.26.33-.27.12-.06.52-.12.46-.27.64-.33.58-.2.53-.06.58-.08.45-.12.38.06.85.33.51.53.33.4.2.31.06.34.14.79.05.6-.05.52-.14.93-.06.53-.06.33-.26.39-.07.33-.19.39-.13.21.06.39-.06.33-.19.33-.14.27-.19.91-.19.48-.14.65-.19.19-.26.4.07.65-.21.61-.38.52-.19.93-.07.53-.26.12v.67l-.19.26-.06.19-.08.41-.25.79-.07.58-.06.4-.25.6v.32l-.26.4-.21.53-.19.86.07.6-.19.38v.27l-.33.4v.72l.07.33-.33.39.13.27-.06.59-.14.33-.12.27-.13.19v.8l-.2.19-.13.54.07.79-.07.32-.26.59.06.34v.39l-.18.2-.07.53.07.39-.07.26-.2.53v.66l.06.6-.06.39-.06.2.06.46v.53l-.13.72.07.53.12.46v.6l-.06.33.13.26v.53l.26.39.19.53.07.4v.72l.25.33.27.39.13.73.19.08.26.31.14.27.26.4.26.19.26.4.38.2.19.13.51.26.21.14.26.26.31.2.14.06.26.27.59.26.51.2.59.06.52.2h.26l.26.07.45-.14h.38l.59-.13.45-.14.65-.12.33-.53v-.45z"/><path id="_14" class="fil0 str0" d="M72.12 37.37l-.58.19-.33.34-.45.12-.45.21-.46.12-.32.14-.46.06-.26.07-.57.07-.21-.07-.64-.07-.33-.2-.52-.26-.06-.07-.39-.32-.06-.4-.33-.39.06-.52-.18-.6v-.21l.05-.53v-.65l-.19-.72.14-.27v-.4l.31-.59-.12-.33.07-.8.38-.53-.07-.57.26-.53.07-.33.32-.47v-.46l.13-.27v-.45l.32-.47.14-.59-.06-.41.37-.38.26-.53v-.99l.21-.33v-.26l.33-.53.12-.33.19-.46.33-.52-.12-.34-.07-.14.19-.39-.26-.33-.19-.26-.45.14-.46-.27h-.45l-.72.13-.2-.07-.38.07-.45-.46-.4-.14-.45-.52-.52-.13-.84.07-.4-.21-.97.07-.52-.13-.84.27h-.31l-.21.26-.31.06-.33.26-.45.21-.13.32-.45.21-.33.39-.66.33-.26.33v.27l-.57.26-.07.39-.39.33-.26.27-.45.33.12.33-.38.26-.33.46-.26.27-.07.26-.12.13-.14.4-.31.12-.26.47v.32l-.2.14-.19.33-.26.53-.13.2-.2.19-.19.4-.12.6-.4.32.19.47v.26l-.31.39-.21.33-.12.34-.07.19v.39l-.07.21-.06.46-.13.12-.19.27.26.59-.2.21v.46l.07.52-.07.34.07.38.06.33.19.41v.39l.4.59.12.46.26.33.21.39.31.41.47.39h.18l.71.26h.4l.12.07.85.13.51-.06.4-.27h.19l.38-.33.26-.13.78-.26.26-.26.66-.53.7-.47.26-.39.33-.26.33-.4.33-.47.18-.33.07-.12.38-.53.27-.4.18-.33.4-.46.38-.53.47-.66.12-.46.46-.65h.31l-.05.72-.07.59.07.53-.07.53-.19.33.19.32-.06.47-.19.39.33.26-.08.46v.48l.26.45-.13.6.32.46.26.52.27.34.45.39.39.33.64.33.2.07.65.27.32-.08.45.13.47-.05.64-.21h.39l.52-.33.45-.06.26-.14.52-.13.26-.19.38-.21.52-.32.32-.26-.12-.48-.51-.12h-.01zm-6.28-15.04l-.07.39-.07.6v.19l.07.21-.19.27-.26.65.06.66-.58.79.05.34v.26l-.37.2-.27.38-.06.27-.2.26-.13.33-.26.53-.33.4-.12.19-.26.6-.07.13-.12.33-.46.46-.06.21-.26.19-.07.19-.19.46-.4.4-.25.46-.33.41-.31.52-.26.19-.14.41-.26.31-.45.48-.32.52-.4.39-.58.48-.39.31-.33.34-.9.4-.46.26-.57.13-.78-.33-.47-.2-.25-.65-.45-.26.06-.53-.06-.47-.26-.39.06-.67V34l-.06-.39.18-.26.14-.53-.14-.14v-.39l.27-.59-.06-.2.19-.47.13-.39.2-.4.26-.39.05-.26v-.4l.07-.33.26-.26.4-.47.12-.46.45-.6.2-.26.45-.33-.13-.32.32-.34.14-.45.39-.26v-.34l.58-.6v-.12l.26-.33.45-.34.26-.4.2-.19.33-.19.19-.2.45-.27.52-.46.32-.39h.39l.65-.33H62l.92-.13.64.13.26-.08.52.21.58.32.26.21.45.32.21.4z"/><path id="_15" class="fil0 str0" d="M104.15 43.84h-.33l-.57.57-.21.08-.38.33-.78.33-.33.13-.58-.06-.52.06-.38-.27-.4-.19-.32-.67-.27-.79.07-.46-.07-.98.14-.67.13-.39.06-1.38.2-.46.2-.86v-.6l.26-.79.12-.26.13-.39v-.67l.27-.59.19-.92.32-.99.39-.46v-.86l.39-.27.19-.65.07-.52.06-.34.2-.33v-.33l.38-.59.07-.54.32-.98.08-.46v-.6l-.14-.52-.12-.46-.21-.46-.19-.14-.33-.33-.38-.12-.52-.27h-.65l-.52.07-.78.38-.19.08-.32.19-.39.34-.65.52-.52.46-.39.4-.78.92-.39.52-.32.41-.52.65-.26.47-.38.46-.33.33-.32.46-.45.6-.73.72-.52.39v-.65l.14-.54.12-.66.21-.85.51-1.79.06-.65.14-.52.07-.6v-.27l.05-.52-.12-.73-.59-.66-1.11-.19-.83.19-.39.14-.39.32-.39.2-.45.47-.78.72-.39.45-.52.48-.26.38-.59.6-.26.33-.58.8-.52.45-.45.53-.78.86.19-1.06.14-.72v-.4l.19-.72v-1.19l-.06-.6-.13-.79-.45-.59-.33-.52-.77-.28-.59-.05h-.33l-.52.05-.9.28-.32.46-.33.06-.07.27h-.12l-.33.32-.26.07-.12.33-.21.13-.38.47-.26.31-.19.41-.26.33-.39.53-.33.32v.4l.26.2.39.26.38-.12.53-.74.58-.32.19-.47.85-.92.77-.72.14-.14.71-.33.59.21.32.32.12.59v.93l-.06.53-.12.86-.2.91v.41l-.2.72-.12.33-.26.73-.07.52-.26.39-.13.47-.13.59-.33.73-.19.39-.19.33-.07.4-.13.39-.19.33-.13.27-.46 1.38-.12.33-.07.47-.26.72-.33.52-.05.27-.07.47-.13.39-.2.4-.19.58v.6l.07.52.26.34.31.39.72-.06.39-.21.26-.52.19-.65.33-.46.06-.4.26-.6.07-.53.06-.72.26-.4.13-.53v-.26l.19-.33.14-.46.12-.53.2-.46.2-.39.12-.21.26-.59.59-1.64.32-.47.33-.26.19-.46.45-.53.33-.4.19-.2.59-.65.32-.4 1.04-1.12.19-.27.39-.38.2-.27.26-.33 1.43-1.58.83-.67h.78l.33.33.06.6-.39 1.12-.26.86-.19.79-.2.92-.19.86-.13.27-.13.59-.25.58-.26.74.12.45-.33.53.07.33-.26.34.12.45-.12.46-.19.27.13.52-.13.21-.26.79v.32l-.06.27-.2.4v.46l-.13.59-.12.53-.07.59.07.47-.07.26-.14.46v.66l.26.6.58.19h.33l.33-.26.26-.27.12-.4.33-.72.07-.46v-.72l.06-.26.19-.41v-.45l.26-.67.27-.86-.07-.46.25-.65.52-.93.07-.4.26-.65.19-.33.33-.27.12-.46.46-.46.32-.4.2-.26.52-.72.26-.27.38-.66.4-.53.33-.26.12-.26.26-.27.39-.53.26-.26.39-.59.51-.46 1.04-1.19.72-.59.71-.33.64.07.52.31.26.67-.26 1.18-.45 1.13-.26.73-.58 1.32-.13.46-.33.91-.07.4v.27l-.38.59v.53l-.07.39-.25.53-.07.33-.19.53-.07.33-.19.67-.14.38v.73L97.46 40l-.05.6-.14.39-.06.52.06.87-.06.86.25.52.07.53.45 1.06.85.85 1.03.27.33-.07h.71l.78-.12.46-.08.64-.26.33-.26.26-.27.39-.26.45-1.05z"/><path id="_16" class="fil0 str0" d="M114.72 20.09l.89-1.06.4.07h.33l.38.07.26.27v.59l-.19.53-.33.65-.32.46-.13.21-.26.26-.32.58-.52.6-.46.79-.25.47-.52.65-.19.2-.26.52-.2.6-.27.4-.12.13-.26.52-.13.67-.33.27-.05.32-.52.8v.65l-.14.19-.19.21-.19.65-.21.27-.12.46-.19.52-.21.4v.27l-.12.19v.33l-.13.53v1.53l.25.45v.46l.14.27.26.33.33.19.26.2.38.26.59.07.58-.07.33-.12.31-.07.21-.2.38-.07.71-.52h.26l.33-.39.32-.21.26-.19.45-.34.26-.33.26-.19.26-.07.32-.39.27-.27.39-.33.32-.39.46-.47v-.12l.12-.26.33-.14.33-.53.38-.39-.06-.33.39-.26.06-.34.33-.39.26-.6v-.52l.19-.53-.14-.4-.19-.53-.26-.45-.25-.2-.53-.21h-.18l-.52-.06h-.78l-.39.2-.45.13-.66.52-.38.21-.4.39-.38.33-.33.4-.13.39.26.27-.06.45-.13.48-.33.12-.45-.12-.52-.14-.45-.34.07-.39-.14-.4v-.39l.26-.52.07-.2.32-.33.27-.33.31-.26.26-.34.26-.19.39-.2.45-.26.78-.26.46-.22h1.04l.52-.05.64.05h.14l.59.15.31.19.65.26.26.4.45.27.14.46.31.4.14.32-.07.2.13.39v.27l-.13.19-.07.48v.45l-.19.34-.33.78-.12.53-.33.39-.64.67-.14.26-.32.39-.13.53-.45.26-.46.53-.33.26-.12.28-.52.39-.26.06-.39.53-.45.13-.2.21-.32.38-.26.14-.45.13-.21.19-.38.27-.58.26-.71.33-.45.14h-.52l-.72.06-.33-.06-.19.13-.85-.27-.19-.12-.71-.21-.58-.46-.26-.19-.45-.67-.07-.58-.12-.26-.07-.6-.19-.21v-.39l.12-.33-.26-.33v-.46l-.06-.39.32-.4-.26-.33.45-.46-.05-.2.19-.53-.19-.26.31-.26.14-.6.25-.26.13-.33.13-.39.27-.53.18-.33.07-.46.19-.28.26-.38.14-.41v-.32l.19-.07.19-.4.19-.32v-.33l.4-.19.06-.34v-.14l.39-.46.2-.26.39-.79.32-.6.45-.72v-.13l.33-.53.38-.53.21-.39.12-.19z"/><path id="_17" class="fil0 str0" d="M125.81 39.67l.7-.19.66-.19.38-.08.45-.19.39-.07.52-.4.66-.26.57-.53.39-.32.45-.34.4-.32.58-.2.39-.4.38-.32.59-.54.2-.27.58-.65.72-.6.38-.59.4-.33.96-1.18h.2l-.33 1.58-.12.79-.08 1.05-.06.53.14.66.19.6v.32l.18.47.73.46.19.39.4.07.45.19.9-.05.46-.14h.52l1.93-.92.78-1.05.33-.34-.19-.66-.52.07-.52.45-.58.48-.33.19-.52.34-.85.31-.9.07-.7-.38-.47-.74v-.53l-.12-.6-.07-.65.14-.72.12-.4.07-.79.07-.72.31-.67.07-.46.13-.52.27-.79.38-.79.19-.74.26-.52.2-.53.19-.72.39-1.18.32-.47.14-.27.12-.38.14-.48.38-.65-.07-.53.33-.4.39-.58.2-.26-.14-.41-.32-.65-.32-.33-.4-.2-.52.2-.64-.4-.39-.33-.38-.27-.66-.13-.71-.33-.4.07-.45.13-.45-.13-.45.26-.25-.13-.33.13-.39.07-.53.39-.51.21-.64.39-.33.26-.45.4-.21.46-.45.12-.12.41-.51.26-.14.72-.33.2-.52.26-.19.21-.07.53-.12.45-.52.26-.19.2.19.67-.45.33v.79l-.33.59.07.79-.25.33.25.4-.2.6.2.52.12.27.26.26.2.58.51.27.66.2.45.27h.52l.58.12h.52l.26.08.66-.08.83-.26.58-.2v.13l-.25.53-.59.47-.27.39-.37.45-.4.34-.38.47-.52.39-.14.26-.38.41-.66.45-.51.33-.33.39-.45.21-.58.46-.2.26-.51.27-.45.26-.4.27-.71.32-.7.13-.47.07h-.64l-.72-.07-.52-.13-.52-.32-.64.26v.79l.45.6 1.17.39h1.56v-.01zm7.77-9.36l-1.23-.07-.66-.19-.63-.34-.45-.46-.27-.91.06-.66-.06-.47.19-.78.13-.6.26-.4.51-.92.47-.79.31-.21.72-.98.33-.27.2-.26.37-.39.66-.4.64-.33.4-.32.45-.14.78-.13.65-.26h.26l.78.12.77.6.39.46.13.72-.25.67-.2.79-.26.78-.39.94-.19.84-.59 1.2-.19.52-.26.73-.65.59-.39.33-.72.39-.71.21-1.36.39z"/><path id="_18" class="fil0 str0" d="M163.59 27.68l-.45-.08h-2.46l.26-.85.39-1.06.19-.58.33-.8.14-.4.31-.78.26-.73.4-.66.32-.6.39-.92.06-.66-.33-.46-.12-.07-.39.07-.66.26-.45.4-.12.27-.26.46-.26.6-.26.65-.14.26-.38.93-.07.39-.33.67-.18.71-.26.8-.19.71-.21.67-.26.72h-.58l-1.62-.12-.58.06-.71-.06h-1.03l-1.89-.07.19-.86.33-1.51.19-.67.13-.46.06-.4.14-.46.19-.65.07-.26v-.4l.05-.73v-.4l-.12-.65-.19-.33-.26-.33-.39-.06-.53-.07-.58.13h-.26l-.38.33-.4.26-.25.14-.39.32-.51.66-.53.53-.39.34-.38.45-.26.33-.26.39-.26.34-.4.52-.33.34v.39l.21.2.38.27.4-.14.57-.72.59-.34.19-.45.92-.93.77-.73.45-.45.52-.14.33.19v.4l-.07.27-.05.46-.21 1.19-.19.45-.13.73-.13.53-.59 1.84-.05.27h-1.43l-.45-.13-.47-.2-.57-.2-.46.4.33.72.06.21.33.58.38.14 1.5.07h.31l-.31 1.25-.13.86-.27.79-.18.72-.15.66-.12.39-.13.53-.07.33-.26.6-.12.72-.14.41-.25.72-.06.59-.26.46.05.27.21.45.52.27.96-.2.27-.52.13-.93.05-.27.14-.79.12-.26.14-.73.07-.59.26-.6.05-.46v-.12l.21-.67.05-.26.21-.6.19-.71.12-.46.26-1.06.4-.73.45-.13.71-.07h.58l.59-.07h.58l.9.07.52-.07 1.37.14h.51l-.25 1.05-.39 1.52-.14.26-.18 1.26-.19.59-.08.47-.06.58-.07.34-.12.45v1.6l.12.58.13.4.53.39.64.33.53.14.78.06.82-.2.14-.12.59-.27.64-.47.21-.46.45-.45.38-.46.26-.67.26-.53-.59-.45-.64.19-.52.6-.45.46-.2.33-.83.6-.21.12-.26.07-.64-.19-.19-.53-.14-.6.07-.53-.07-.47.07-.39.12-.45.07-.6.14-.26.19-.6.19-.99.33-1.45.33-1.12.51-.06.64.06.47.06.96-.06.78.13.38-.26.26-.72-.31-.28z"/><path id="_19" class="fil0 str0" d="M189.02 37.37l-.59.19-.33.34-.45.12-.45.21-.46.12-.32.14-.46.06-.26.07-.57.07-.21-.07-.64-.07-.32-.2-.52-.26-.07-.07-.38-.32-.07-.4-.33-.39.07-.52-.19-.6v-.21l.05-.53v-.65l-.19-.72.14-.27v-.4l.31-.59-.12-.33.07-.8.38-.53-.06-.57.25-.53.07-.33.33-.47v-.46l.12-.27v-.45l.33-.47.13-.59-.06-.41.39-.38.26-.53v-.99l.19-.33v-.26l.33-.53.12-.33.19-.46.33-.52-.12-.34-.07-.14.19-.39-.26-.33-.19-.26-.45.14-.46-.27h-.45l-.71.13-.21-.07-.38.07-.45-.46-.4-.14-.45-.52-.51-.13-.85.07-.38-.21-.99.07-.51-.13-.85.27h-.31l-.2.26-.32.06-.33.26-.45.21-.13.32-.45.21-.33.39-.66.33-.25.33v.27l-.58.26-.06.39-.4.33-.26.27-.45.33.14.33-.4.26-.33.46-.26.27-.06.26-.12.13-.14.4-.31.12-.26.47v.32l-.21.14-.19.33-.26.53-.12.2-.21.19-.19.4-.12.6-.4.32.19.47v.26l-.31.39-.2.33-.13.34-.07.19v.39l-.06.21-.06.46-.13.12-.2.27.26.59-.18.21v.46l.05.52-.05.34.05.38.07.33.19.41v.39l.39.59.12.46.26.33.21.39.31.41.47.39h.19l.71.26h.39l.12.07.85.13.52-.06.4-.27h.18l.39-.33.26-.13.77-.26.27-.26.65-.53.7-.47.27-.39.32-.26.33-.4.33-.47.19-.33.06-.12.39-.53.26-.4.19-.33.39-.46.39-.53.46-.66.12-.46.47-.65h.31l-.05.72-.07.59.07.53-.07.53-.19.33.19.32-.07.47-.19.39.33.26-.07.46v.48l.26.45-.14.6.33.46.26.52.26.34.45.39.39.33.65.33.2.07.64.27.33-.08.45.13.46-.05.64-.21h.4l.52-.33.45-.06.25-.14.52-.13.26-.19.38-.21.54-.32.31-.26-.13-.48-.51-.12zm-6.29-15.04l-.07.39-.06.6v.19l.06.21-.19.27-.26.65.06.66-.57.79.05.34v.26l-.38.2-.26.38-.07.27-.19.26-.14.33-.26.53-.31.4-.14.19-.26.6-.07.13-.12.33-.46.46-.06.21-.26.19-.06.19-.2.46-.39.4-.26.46-.33.41-.31.52-.26.19-.14.41-.26.31-.45.48-.32.52-.38.39-.59.48-.4.31-.33.34-.9.4-.45.26-.58.13-.78-.33-.47-.2-.25-.65-.45-.26.07-.53-.07-.47-.26-.39.07-.67V34l-.07-.39.19-.26.14-.53-.14-.14v-.39l.26-.59-.06-.2.19-.47.13-.39.2-.4.26-.39.06-.26v-.4l.06-.33.27-.26.39-.47.12-.46.46-.6.2-.26.45-.33-.12-.32.31-.34.14-.45.38-.26v-.34l.58-.6v-.12l.26-.33.47-.34.26-.4.19-.19.32-.19.19-.2.45-.27.52-.46.33-.39h.38l.66-.33h.45l.91-.13.64.13.26-.08.52.21.59.32.25.21.45.32.21.4z"/><path id="_20" class="fil0 str0" d="M232.2 36.05v-.4l-.46-.2-.53.13-.05.33-.26.34v.59l-.2.2v.46l-.32.4-.26.45-.32.46-.2.07-.13.27-.2.45-.45.14-.13.46-.26.14-.26.33-.14.13-.31.19-.32.4-.45.34-.78.46-.66.32-.38.39-.52.27-.51.07-.4.39-.45.33-.39.14-.46.13-.39.13-.45.13-.64.26-.59.19-.26.07-.71.14-.26.13-.27.07-.52.06H218l-.39-.06h-.65l-.65.06h-1.42l-.39.08h-.78l-.78-.08-.45-.13-.26-.06h-.53l-.26-.07-.64-.21-1.3-.53-.4-.26-.45-.05-.32-.4-.52-.46-.19-.14-.52-.39-.13-.2-.32-.2-.26-.58-.26-.34v-.19l-.33-.34.13-.33-.19-.26-.19-.67-.2-.05.13-.67-.13-.39.27-.4-.14-.13v-.4l.14-.38.05-.48.13-.26.2-.92.13-.2.26-.32.19-.67.26-.33.33-.53.19-.19.19-.33.78-.99.72-.46.13-.21.51-.45.07-.2.45-.26.14-.07.38-.12.32-.48.39-.19.46-.39.38-.47.47-.2.26-.26.19-.07.58-.27.52-.52.64-.33.47-.26.71-.32.58-.41.38-.12.71-.47.52-.39.79-.34.65-.45.58-.46.64-.33.46-.33.39-.27.58-.53.59-.33.57-.39.33-.47.46-.27 1.3-1.05.52-.46.64-.45.59-.53.51-.59.66-.67.57-.53.91-1.37.33-.6v-.26l.38-.53.14-.27.31-.59v-.41l.26-.38.14-.67.19-.79.19-.33V8.75l-.12-.66v-.46l-.33-.53v-.26l-.58-.48-.39-.19-.26-.59-.65-.39-.39-.07-.18-.33-1.11-.59h-.72l-.52-.06-.45-.2-.58.12h-.98l-.84-.06-.45.2-.78-.06-1.17.19-1.49.33-1.03.26-.66.34-.7.19-1.04.46-.19.19-.45.21-.33.32-.71.26-.46.28-.33.19-.45.39-.38.6-.66.4v.13l-.26.26-.65.4-.06.32-.32.14-.45.52-.4.53-.33.86.07.27-.07.6.07.26-.12.65.26.33.12.27.45.72.66.14.19.19.98.4h.83l.72-.33.13-.66-.33-.6-.32-.39-.2-.14-.52-.38-.19-.6v-.79l.4-.6.38-.46.52-.67.51-.45.4-.39.33-.4.26-.13.51-.33 1.35-.79.92-.33.58-.41.78-.26.85-.27.83-.31.72-.07.9-.19.73-.08.89-.13h2.01l.84.21.45.19.54.19.45.4.33.39.31.48.39.57.2.67.06.72-.13.53v.33l-.06.13-.26.73-.06.65-.26.53-.4.67-.26.39-.31.73-.46.53-.45.46-.33.46-.38.4-.47.52-.9.92-.58.47-.78.65-.78.74-.52.39-.26.26-.78.53-.58.53-.59.45-.83.6-.72.4-.33.2-.31.33-.46.12-.2.14-.58.32-.58.4-.46.2-.38.26-.45.27-.4.2-.66.27-.51.39-.71.4-.38.12-.4.46-.26.07-.51.2-.33.33-.52.07-.52.65-.58-.06-.06.2-.47.33-.25.19-.12.27-.59.07-.19.52-.07.27-.45-.07-.26.33-.33.39-.26.26-.25.34-.2.4-.46.26-.32.53-.46.46-.31.72-.2.47-.2.19-.19.39.07.53-.26.26-.07.74-.13.07-.12.91-.2.79.06.27v.46l.06.33.33.4-.13.39.46.26v.74l.45.39-.07.45.52.21v.46l.45.59v.13l.26.26.46.34.71.72.4.27.38.18.26.34.39.26.38.21.45.19.33.08.2.12.46.14.26.12.7.14.33.19h.45l.52.13.19.07.47.14.45.05.38.07.46.08.52.06h1.16l.4-.06.7.12.45-.12.33.06h.2l.39.13.38-.07.39-.27.53.07.25-.19.4-.14.52.07.9-.26.39-.13.32-.14.52-.12.32-.34.73-.19.18-.33.39-.14h.51l.27-.2.51-.19.21-.33.52-.07.31-.53.4-.33.45-.26.51-.2.4-.26.59-.6.25-.39.45-.45.65-.81.06-.19.26-.13.26-.47.14-.58.19-.47.13-.27.32-.46v-.26l.19-.79z"/><path id="_21" class="fil0 str0" d="M239.59 39.29l.51-.14.65-.2.39-.14h.26l.06-.58.39-.47.52-.26.19-.59.2-.4 1.04-1.06.38-.52.26-.46.52-.6.4-.46.32-.32.26-.34.32-.4.58-.65.33-.6v.34l-.07.52-.19.72v.41l-.19 1.17.12.48.07.65-.13.52.06.74.07.91.33.53.31.67.78.19.78.13.46-.13.71-.33.52-.72.58-.72.53-.67.25-.53.45-.46.52-.73.45-.53.28-.39.45-.4.51-.46-.14.93v.66l-.05.72.05.73-.12.72.12.6.08.59.13.2.97.99.32.14.39-.08.26.08.91-.41.97-.39.45-.26.58-.33.33-.46 1.16-1.05.2-.41-.32-.46-.45.39-.33.14-.39.2-.58.33-.78.39-.46.14-.71.19-.7-.07-.4-.53v-.91l.13-.66.19-.34-.06-.65.32-.73.07-.73.38-1.05.4-.79.26-.86.19-.39.13-.34.2-.45.26-.53.25-.73.26-.59.07-.74.2-.19.51-1.58v-.39l.45-.8.26-.65.33-.8.26-.26.12-.93.33-.91-.19-.26-.71-.34h-1.04l-.26.53-.14.4-.19.53-.18.84-.27.27v.59l-.2.53-.38.26.06.27-.32.59v.46l-.46.53v.79l-.13.33-.32.27-.07.59-.26.46v.34l-.64 1.31-.14.53-.12.46-.4.47-.45.65-.38.53-.59.46-.97 1-.39.45-.19.33-.33.13-.4.66-.3.53-.33.33-.2.39-.77.79-.85.41-.33-.2-.07-.52-.12-.34.19-1.31-.07-.48-.06-.39.13-.33v-.45l.2-.67v-.53l.13-.39.12-.33-.05-.53.26-.59.19-.86v-.46l.26-.53.12-.4.21-.53.05-.58v-.4l.26-.53.14-.2.19-.72.32-.47.13-1.05.25-.72v-.53l.47-.67.06-.19.13-.6.19-.52.14-.27-.21-.46-.25-.26h-.2l-.77-.12-.59.32-.05.26-.26.59-.4.6.07.2v.4l-.4.45-.12.4-.19.99-.27.46v.52l-.2.41-.18.72-.07.2v.26l-.45.72-.19.79-.21.14-.06.53-.25.4-.26.52-.4.53-.26.39-.19.33-.26.34-.39.45-.38.66-.92.93-.45.6-.51.65-.4.4-.26.52-.32.39-.39.4-.26.41-.52.39-.39.52-.45.34-.45.12-.26-.32-.14-.26-.05-.86.26-1.26.19-.73.12-.59.14-.72.33-.99.38-.79.07-.52v-.41l.44-.92v-.32l.27-.41v-.33l-.08-.39.08-.46.39-.74.07-.38.31-.53.07-.46v-.73l.4-.46.12-.72v-.53l.06-.4.07-.26.32-.46.13-.67v-.79l-.39-.32-.45-.26-.64-.21-.59-.26-.85.33-.58.26-.52.4-.45-.06-.4.52-.25.46-.38.07-.4.46-.19.72.07.53.58.47h.26l.31-.07.26-.6.33-.38.59-.6.26-.33.38-.2.46-.19.26.05.26.26-.14.48v.58l-.26.6-.18.26v.4l-.07.32.07.34-.07.26-.38.53-.14.59-.13.07v.53l-.32.53v.12l-.14.67v.65l-.31.66-.33.6v.26l-.26.46.07.14-.14.65-.07.53-.19.4-.38.92.06.79-.19.86-.26.46-.07.73v.6l.13.32v1.05l-.13.47.13.2.2.65.51.33.52.07z"/><path id="_22" class="fil0 str0" d="M286.79 3.61l-.07-.46-.2-.6-.26-.47-.32-.39-.25-.33-.33-.26-.14-.2-.38-.19-.45-.14-.4-.07h-.84l-.52.14h-.45l-.33.12-.45.07-.45.46-.39.14-.52.39-.26.07-.12.26-.4.21-.39.32-.2.4-.45.19-.18.27-.27.33-.46.33-.26.32-.38.6-.4.4-.31.46-.2.33-.39.39-.13.33-.38.41-.07.19-.33.46-.33.66-.26.32-.25.47-.32.66-.26.26v.45l-.33.27-.33.54-.06.39-.26.67-.19.19-.39.79-.13.67-.19.46-.07.19-.33.66-.19.32-.12.27-.26.78-.27.34-.13.46-.13.33-.13.2v.33l-.51.4-.52.53-.26.33-.71.53-1.36 1.37-.26.14-.4.53.47.65.78-.26.7-.66.2-.26.44-.33.59-.46-.45 1.58-.26 1.05-.26.99-.26.79-.25.93-.2.98-.25.6-.08.33v.53l-.25.33.12.27-.19.45-.07.73-.12.26v1.19l-.07.32.07.6-.14.26.2.41-.25.26.19.6.06.52.06.46.2.59.19.73.12.19.47.47v.27l.38.19.4.39.26.07.64.26.39.2.64.07.33-.07.2-.06.65-.21h.45l.45-.05.13-.27h.13l.46-.26.31-.07.14-.2.52-.33.26-.45h.19l.39-.27.52-.6.45-.4.45-.46.07-.45.52-.4.26-.34.26-.19.26-.39.33-.4.25-.4.33-.32.2-.79.25-.48.33-.26.12-.27.33-.31.19-.74.2-.46.32-.19.33-.66.13-.46.12-.53v-.26l.2-.4.06-.39v-.27l.27-.53.06-.26v-.52l.07-.53v-.53l-.07-.33-.14-.34.08-.45-.08-.33-.19-.34-.26-.65-.38-.45-.58-.6-.52-.34-.59-.33-.58-.19-.45-.2h-.45l-.21-.07-.38-.07-.45.07-.46.14h-.39l-.26.2h-.33l-.25.26-.52.39-.26.26-.45.33-.39.67-.33.32-.32.4-.2.53-.26.33-.64.79-.45.72-.79.14.13-.52.07-.4.26-.67.13-.53.25-.46v-.19l.14-.33-.07-.34.33-.31.06-.48.32-.38.2-.34.52-.72.52-.4.31-.27.27-.19.39-.46.58-.26.39-.48.46-.26.26-.39.45-.33.33-.19.51-.46.32-.33.26-.4.4-.27.64-.65.46-.27.38-.26.39-.21.27-.39.38-.26.33-.26.39-.27.26-.33.31-.26.52-.41.66-.72.26-.19.33-.26.63-.67.4-.32.19-.14.33-.33.19-.27.33-.31.33-.4.64-1.06.18-.6.21-.53.12-.71-.05-.53zm-1.62.65l-.14.66-.26.6-.33.53-.45.58-.78.93-.39.33-.64.53-.26.33-.19.26-.47.39-.37.41-.33.39-.59.4-.26.19-.38.46-.33.26-.39.21-.32.19-.39.34-.19.19-.45.53-.52.39-.52.47-.66.59-.32.32-.78.6-.64.67-.78.65-.52.33-.65.53.45-1.58.47-.99.31-.47.26-.66.33-.73.51-.91.33-.6.39-.53.39-.85.78-1.19.25-.59.46-.53.25-.19.07-.26.39-.41.32-.46.14-.4.32-.26.2-.33.38-.39.32-.27.33-.4.59-.65.71-.46.52-.47.51-.32.45-.13.78-.2.78-.07.46.14.38.26.26.32.14.6.07.72zm-15.11 22.55l.51.07h.45l.52-.26.07-.33.14-.46.31-.33v-.2l.2-.26.13-.2.19-.47.21-.32.25-.47.12-.33.2-.46.33-.19.25-.34.26-.38.14-.08.45-.4.19-.26.52-.19.06-.2.45-.19.4-.27h.45l.26.13h.52l.19.07.91.46.38.45.14.26.33.74v.46l.12.53v.19l-.05.67v.19l-.4.99v.4l.14.26-.4.46-.26.6.12.39-.31.2-.14.2-.06.59-.39.07.07.65-.2.34v.26l-.38.39-.33.26-.07.4-.26.2-.05.6-.4.33-.12.38-.4.2-.26.6-.45.4-.26.6-.25.19-.46.39-.27.4-.18.07-.08.39-.51.33-.19.33-.39.34-.39.39-.12.06-.47.39-.78.27-.31.14-.33-.07h-.39l-.26-.2-.39-.26-.39-.41-.19-.38-.33-.33-.06-.39-.27-.55v-.45l.07-.66v-.46l.14-.39.06-.48.06-.72.07-.26.12-.33v-.2l.14-.65.26-.79v-.4l.19-.39.07-.47.26-.65.19-.41v-.19l.14-.6h.45z"/><path id="_23" class="fil0 str0" d="M291.06 43.43h.39l.45-.19.52-.07.45-.27.52-.06.33-.33.52-.2.39-.13.39-.45.65-.4.58-.73.58-.86.32-.59.07-.39.19-.47-.12-.33-.33-.33-.52.53-.32.53-.39.26-.39.6-.45.45-.4.34-.33.33-.37.27-.45.26-.33.19-.59.2-.33.19-.45.07-.78.07-.58-.07h-.52l-.58-.07-.52-.06-.57-.13-.33-.13-.52-.14-.4-.33-.25-.13-.39-.4-.39-.79-.52-.46-.07-.4-.06-.26-.32-.26.26-.33v-.73l-.07-.39v-.26l.07-.46-.07-.26.19-.28.07-1.11.19-.53h.52l.33.13.18.07.4-.07.52.07.71-.2.65.13.45-.13.26-.14.45-.19h.4l.38-.07.46-.07.26-.2.52-.18.45-.22.4-.12.71-.2.45-.33.32-.33.39-.13.46-.4.26-.38.38-.14.33-.39.26-.21.14-.19.45-.34.33-.26.3-.59.33-.33.26-.59.21-.46.19-.33.12-.53v-.6l-.26-.72-.33-.33-.25-.46-.32-.26-.58-.34-.2-.19-.26-.07-.2-.07-.38-.39h-.66l-.38-.2-.2-.06-1.35.39-.14-.07-.64.07-.4-.07-.26.33-.26.14-.65.13-.31-.13-.14.39h-.39l-.51.4-.2.19-.91.6-.45.39-.32.14-.4.26-.31.12-.14.6-.12.27-.2.33-.59.33-.26.2-.06.26-.13.33-.52.2.07.46-.59.92h-.12l.05.65-.26.27-.25.4v.27l-.27.65-.12.4.19.13-.25.4-.27.6.07.26.07.6-.33.45-.07.39.07.67-.13.26.32.53-.06.45-.06.53.39.14.13.6-.13.12v.6l.18.39.4.07.26.53.26.33.19.07.07.46.33.4.18-.08.59.27.12.46.59.07.52.33.52.26h.45l.39.2h1.16l.59.12.77.07h.01zm-4.54-10.94l-.19-.46.06-.21.08-.58.12-.4.25-.46.21-.33.38-.6.14-.32.12-.21.19-.38.33-.41.25-.39.53-.14.25-.45.33-.27.33.07.64-.47.19-.32 1.05-.52h.52l.45-.48.59-.05.38.05.85-.32.84.2.64.19.33.19.32.48.13.52-.13.65-.26.53-.32.46-.33.4-.32.34-.32.38-.4.27-.38.4-.39.33-.64.46-.52.39-1.69.86-.45.13h-.47l-.26.2h-.38l-.33.2-.33.06-.45-.06-.25.13h-.52l-.33.13-.38-.13-.47-.07.01.01z"/><path id="_24" class="fil0 str0" d="M320.04 27.68l-.45-.08h-2.47l.26-.85.39-1.06.2-.58.33-.8.12-.4.33-.78.25-.73.4-.66.31-.6.4-.92.06-.66-.32-.46-.14-.07-.38.07-.66.26-.45.4-.12.27-.26.46-.25.6-.27.65-.13.26-.38.93-.07.39-.33.67-.19.71-.26.8-.2.71-.19.67-.26.72h-.59l-1.61-.12-.59.06-.72-.06h-1.03l-1.87-.07.19-.86.33-1.51.19-.67.12-.46.07-.4.13-.46.19-.65.08-.26v-.4l.05-.73v-.4l-.13-.65-.19-.33-.26-.33-.39-.06-.52-.07-.59.13h-.25l-.39.33-.39.26-.26.14-.38.32-.52.66-.52.53-.39.34-.39.45-.26.33-.25.39-.26.34-.4.52-.33.34v.39l.21.2.38.27.4-.14.57-.72.58-.34.2-.45.91-.93.78-.73.45-.45.51-.14.33.19v.4l-.07.27-.05.46-.21 1.19-.19.45-.12.73-.14.53-.58 1.84-.07.27h-1.42l-.45-.13-.46-.2-.57-.2-.47.4.33.72.07.21.32.58.39.14 1.48.07h.33l-.33 1.25-.12.86-.26.79-.19.72-.14.66-.12.39-.14.53-.06.33-.27.6-.12.72-.13.41-.26.72-.06.59-.25.46.05.27.2.45.52.27.97-.2.26-.52.12-.93.07-.27.14-.79.12-.26.14-.73.05-.59.26-.6.07-.46v-.12l.19-.67.07-.26.2-.6.19-.71.13-.46.25-1.06.4-.73.45-.13.71-.07h.59l.58-.07h.59l.9.07.52-.07 1.36.14h.52l-.26 1.05-.38 1.52-.14.26-.19 1.26-.19.59-.07.47-.07.58-.07.34-.12.45v1.6l.12.58.14.4.52.39.64.33.52.14.78.06.84-.2.14-.12.59-.27.63-.47.2-.46.46-.45.38-.46.27-.67.25-.53-.58-.45-.65.19-.51.6-.45.46-.21.33-.85.6-.18.12-.27.07-.63-.19-.21-.53-.12-.6.07-.53-.07-.47.07-.39.12-.45.06-.6.13-.26.2-.6.2-.99.32-1.45.31-1.12.54-.06.64.06.45.06.98-.06.78.13.38-.26.26-.72-.33-.28z"/><path id="_25" class="fil0 str0" d="M346.5 35.79l-.07-.34-.32-.06-.45-.07-.66.07-.32.06-.51-.06-.66.06-.97.27-.06-.93.25-1.18v-.4l.14-.2v-.4l-.06-.26.06-.12v-.2l.12-.27v-.66l.14-.46-.07-.66.12-.59.07-.59-.07-.46.07-.47-.07-.46v-.66l.07-.13-.07-.33-.31-2.04.06-.53-.06-.59.12-.53v-.46l-.45-.47-.26-.13-.25-.33-.92-.19-.45.19-.26.79-.13.14-.06.32.32.33v.4l-.26.6v.59l-.27.46v.13l.14.46-.19.4-.2.53-.12.52-.4.6-.13.46-.25.46-.07.14-.26.45-.07.34-.38.78-.19.53-.4.6-.13.39-.2.33-.9 1.39-.51.33-.33.53-.19.26-.14.06-.19.21-.45.31-.59.48-.45.33-.65.19-.39.2-.58.4-.58.13-.2.19h-.32l-.33-.19-.32-.08h-.58l-.39-.26-.59-.32-.45-.54-.52-.32-.39-.93-.06-.65-.07-.59-.07-.48.07-.32.13-.47.2-.53-.13-.45.06-.47.33-.59.05-.12.07-.34.07-.52.07-.2.05-.33.21-.47.38-.59.07-.46.26-.54.26-.38.13-.46.12-.33.2-.46.25-.33.14-.2.26-.54.45-.52.52-.79.33-.39.58-.27.19-.19.59-.26.52-.22h.26l.64-.05 1.36.58.45.14.4.39v.6l.07.46.12.26.45.47h.26l.26.13.33-.13.39.07.39-.54.2-.12.38-.53-.12-.53-.52-.07-.4-.46-.32-.33-.2-.33-.06-.39h-.59l-.31-.07-.14-.27-.32-.52h-.27l-.71-.27-.26.08-.45-.08-.13-.33-.45-.12-.52.12h-.84l-.53.07-.63.4-.14.32-.52.07-.33.07v.46l-.51.14-.06.45h-.39l-.13.53-.51.39-.33.53-.26.26-.33.47-.07.32-.45.34-.14.33.08.46-.2.2-.19.32-.32.27.06.33-.46.19.07.4-.12.39-.33.53-.14.74-.05.26.05.19-.31.53-.14.34.07.65-.19.52-.27.67-.06.39v.67l.33.78v.07l-.07.46.07.6.26.72.26.53.12.33.4.46.25.33.52.53h.45l.39.33.13.19.26.27.65.07h.45l.26.12.39-.06.13.13.45.2.59-.2.51-.26.53-.07.37-.06.33-.4.66-.12.26-.27.33-.14.31-.26.39-.2.26-.19.27-.33.51-.34.33-.33.26-.46.45-.26.12-.4.4-.39.19-.4.2-.34.31-.26.4-.46.13-.26.13-.33.26-.32.19-.34.14-.33.05-.26.26-.39.14-.53.12-.26.39-.53v-.47l.33-.33.19-.39.12-.46.26.58-.05.4v.61l-.26.52v.33l.05.2v.59l-.05.72.05.27-.05.19-.2.46-.06.14v.39l.12.73-.32.6.06.19-.19.65.07.41-.07.86-.18.38-.73.14-.26.13-.51.07-.32.19-.59.33-.32.2-.26.14-.4.33-.45.12-.51.34-1.3.79-.71.39-.78.47-.26.12-.72.48h-.39l-.58.79h-.38l-.21.26-.25.2-.71.33-.59.58-.52.21-.19.32-.45.26-.26.4-.39.07-.27.2-.38.26-.32.46-.26.26-.59.21v.19l-.33.46-.57.2-.26.73-.39.12-.08.2-.58.26-.05.22-.33.38-.19.27-.72.33-.32.33-.21.39-.18.47-.4.19-.26.34-.19.12-.52.4v.27l-.38.32-.33.14-.32.45-.33.67-.52.39-.05.14-.59.46-.4.52-.52.46-.06.26-.52.6-.19.07v.27l-.07.38-.32.33-.2.46-.31.48-.14.31-.59.47-.12.53-.06.2v.33l-.39.33-.14.19-.25.27v.65l-.13.33-.2.2-.12.21-.14.39v.4l-.12.52-.21.34.21.32.06.59.12.14.27.46.13.53.2.33v.26l.58.27.19.39.52.2.19.2.45.06.52.2.65.26.38-.07.54.07.38.13h1.23l.84-.2.45-.12h.66l.25-.21h.45l.4-.26.26-.2.52-.26.19-.14.59-.26.32-.13.32-.07.46-.39.52-.33.64-.19.26-.34.52-.19.26-.26.52-.34.58-.33.45-.26.4-.46.32-.4.72-.46.51-.72.45-.4.21-.34.52-.32.57-.52.26-.48.39-.45.33-.41.26-.31.52-.6.19-.26.51-.67.59-1.18.39-.33.2-.34.31-.59.21-.12.25-.46.13-.53.19-.53.26-.14.26-.33-.06-.32.26-.59.26-.27.26-.59.19-.2.07-.53.07-.26.26-.47.12-.46.33-.33.38-.85.26-.59.2-.34v-.65l.19-.07.26-.47.13-.53.13-.45.13-.39.26-.6-.06-.34.31-.65.14-.52.12-.48.21-.79.19-.33.12-.58.14-.21v-.32l.32-1.12.39-.46.91-.4.39-.07h.46l.57-.19.46-.13.71-.14.33-.19zm-6.75 2.83l-.12.98-.2.74-.2.6-.26.26-.26.53.07.78-.07.39-.26.34v.46l-.31.59-.21.26-.19.39v.94l-.19.45-.46.6-.19.72-.2.59-.39.6-.31.34.12.39-.59.52-.19.26.19.4-.31.27-.14.53-.33.26v.39l-.31.47-.2.39-.39.46-.06.26-.33.4-.32.53-.58.59-.21.34-.26.31-.12.27-.4.47-.18.33-.59.59-.19.4-.26.2-.39.38-.51.41-.33.33-.26.39-.46.47-.31.39-1.04.79-.66.66-.58.2-.12.33-.66.27-.32.33-.46.32-.38.06-.4.27-.38.2-.33.13-.58.39-.38.07-.4.33-.59.2h-.58l-.38.33h-.33l-.52.27h-.33l-.45-.15-.32-.12-.39.12-.45.15-.53-.27h-.45l-.9-.46-.26-.47-.32-.32-.15-.53v-.59l.15-.67v-.45l.18-.73.33-.59.12-.14v-.58l.33-.34.14-.33.26-.53.05-.4.14-.12.45-.67.07-.46.33-.45.18-.2.14-.33.19-.19.26-.22.07-.38.45-.19.38-.34.07-.4.19-.34.52-.45.46-.39.12-.33.33-.07.26-.46.45-.53.4-.33.33-.33.38-.58.52-.41.13-.26.26-.19.32-.34.65-.4.4-.32.25-.26.32-.53.13-.21.65-.65.51-.4.4-.46h.26l.38-.65.4-.14.91-.67.32-.39.51-.19.21-.53.52-.47.51-.12.32-.27.52-.26.2-.33.52-.08.51-.78.52-.06.2-.21.91-.38.57-.53.78-.41.47-.26.38-.19.45-.2.51-.2.28-.39.38.06.77-.59.33-.14.59-.13-.21.99h.01z"/></g></g></svg>